<?xml version="1.0" encoding="utf-8"?>
<!-- Generator: Adobe Illustrator 22.0.1, SVG Export Plug-In . SVG Version: 6.00 Build 0)  -->
<svg version="1.1" id="图层_1" xmlns="http://www.w3.org/2000/svg" xmlns:xlink="http://www.w3.org/1999/xlink" x="0px" y="0px"
	 viewBox="0 0 226.8 226.8" style="enable-background:new 0 0 226.8 226.8;" xml:space="preserve">
<style type="text/css">
	.st0{fill:#FF0000;}
	.st1{fill:none;stroke:#212830;stroke-width:0;stroke-linecap:square;stroke-miterlimit:10;}
</style>
<g>
	<g id="XMLID_1_">
		<g>
			<polygon class="st0" points="182.6,119.7 182.6,132.3 121.3,132.3 113.4,132.3 111.7,132.5 110.3,133.1 108.9,134.1 107.9,135.4 
				107.3,137 107.1,138.6 107.1,151.2 107.1,195.3 106.9,196.9 106.3,198.4 105.3,199.7 103.9,200.7 102.4,201.4 100.8,201.6 
				99.2,201.4 97.6,200.7 96.4,199.7 95.4,198.4 94.7,196.9 94.5,195.3 94.5,167.9 94.5,126 94.5,50.3 107.1,50.3 107.1,109.2 
				107.1,113.4 107.3,115 107.9,116.5 108.9,117.8 110.3,118.8 111.7,119.4 113.4,119.7 130.7,119.7 			"/>
			<polygon class="st0" points="207.6,10.4 207.8,12.6 207.6,14.8 207,16.9 206.1,18.9 204.9,20.7 203.3,22.3 201.5,23.5 
				199.5,24.4 197.4,25 195.2,25.2 193,25 190.9,24.4 188.9,23.5 187.1,22.3 185.6,20.7 184.3,18.9 183.4,16.9 182.8,14.8 
				182.6,12.6 182.8,10.4 183.4,8.3 184.3,6.3 185.6,4.5 187.1,3 188.9,1.7 190.9,0.7 193,0.2 195.2,0 197.4,0.2 199.5,0.7 
				201.5,1.7 203.3,3 204.9,4.5 206.1,6.3 207,8.3 			"/>
			<polygon points="207.8,63 207.8,226.8 182.6,226.8 182.6,132.3 182.6,119.7 182.6,63 182.8,60.8 183.4,58.7 184.3,56.7 
				185.6,54.9 187.1,53.3 188.9,52.1 190.9,51.1 193,50.6 195.2,50.3 197.4,50.6 199.5,51.1 201.5,52.1 203.3,53.3 204.9,54.9 
				206.1,56.7 207,58.7 207.6,60.8 			"/>
			<polygon points="121.3,132.3 107.1,151.2 107.1,138.6 107.3,137 107.9,135.4 108.9,134.1 110.3,133.1 111.7,132.5 113.4,132.3 
							"/>
			<polygon points="170,201.6 170,226.8 19,226.8 94.5,126 94.5,167.9 69.3,201.6 100.8,201.6 			"/>
			<polygon points="197.9,30 130.7,119.7 113.4,119.7 111.7,119.4 110.3,118.8 108.9,117.8 107.9,116.5 107.3,115 107.1,113.4 
				107.1,109.2 170,25.2 19,25.2 19,0 182.9,0 181,2 179.6,4.4 178.5,7 177.8,9.7 177.6,12.4 177.8,15.2 178.4,17.9 179.5,20.5 
				180.9,22.8 182.7,24.9 184.8,26.8 187.1,28.3 189.7,29.3 192.4,30 195.1,30.2 			"/>
		</g>
		<g>
			<polyline class="st1" points="94.5,126 19,226.8 170,226.8 170,201.6 100.8,201.6 69.3,201.6 94.5,167.9 			"/>
			<polygon class="st1" points="207.8,12.6 207.6,10.4 207,8.3 206.1,6.3 204.9,4.5 203.3,3 201.5,1.7 199.5,0.7 197.4,0.2 195.2,0 
				193,0.2 190.9,0.7 188.9,1.7 187.1,3 185.6,4.5 184.3,6.3 183.4,8.3 182.8,10.4 182.6,12.6 182.8,14.8 183.4,16.9 184.3,18.9 
				185.6,20.7 187.1,22.3 188.9,23.5 190.9,24.4 193,25 195.2,25.2 197.4,25 199.5,24.4 201.5,23.5 203.3,22.3 204.9,20.7 
				206.1,18.9 207,16.9 207.6,14.8 			"/>
			<line class="st1" x1="207.8" y1="226.8" x2="207.8" y2="63"/>
			<polyline class="st1" points="207.8,63 207.6,60.8 207,58.7 206.1,56.7 204.9,54.9 203.3,53.3 201.5,52.1 199.5,51.1 197.4,50.6 
				195.2,50.3 193,50.6 190.9,51.1 188.9,52.1 187.1,53.3 185.6,54.9 184.3,56.7 183.4,58.7 182.8,60.8 182.6,63 			"/>
			<polyline class="st1" points="182.6,63 182.6,119.7 182.6,132.3 182.6,226.8 207.8,226.8 			"/>
			<polyline class="st1" points="182.6,132.3 121.3,132.3 113.4,132.3 			"/>
			<polyline class="st1" points="113.4,132.3 111.7,132.5 110.3,133.1 108.9,134.1 107.9,135.4 107.3,137 107.1,138.6 			"/>
			<polyline class="st1" points="107.1,138.6 107.1,151.2 107.1,195.3 			"/>
			<polyline class="st1" points="94.5,195.3 94.7,196.9 95.4,198.4 96.4,199.7 97.6,200.7 99.2,201.4 100.8,201.6 102.4,201.4 
				103.9,200.7 105.3,199.7 106.3,198.4 106.9,196.9 107.1,195.3 			"/>
			<polyline class="st1" points="94.5,195.3 94.5,167.9 94.5,126 94.5,50.3 107.1,50.3 107.1,109.2 107.1,113.4 			"/>
			<polyline class="st1" points="107.1,113.4 107.3,115 107.9,116.5 108.9,117.8 110.3,118.8 111.7,119.4 113.4,119.7 			"/>
			<polyline class="st1" points="113.4,119.7 130.7,119.7 182.6,119.7 			"/>
			<line class="st1" x1="107.1" y1="151.2" x2="121.3" y2="132.3"/>
			<line class="st1" x1="130.7" y1="119.7" x2="197.9" y2="30"/>
			<polyline class="st1" points="182.9,0 181,2 179.6,4.4 178.5,7 177.8,9.7 177.6,12.4 177.8,15.2 178.4,17.9 179.5,20.5 
				180.9,22.8 182.7,24.9 184.8,26.8 187.1,28.3 189.7,29.3 192.4,30 195.1,30.2 197.9,30 			"/>
			<polyline class="st1" points="182.9,0 19,0 19,25.2 170,25.2 107.1,109.2 			"/>
		</g>
	</g>
</g>
</svg>
