<?xml version="1.0" encoding="utf-8"?>
<!-- Generator: Adobe Illustrator 22.0.1, SVG Export Plug-In . SVG Version: 6.00 Build 0)  -->
<svg version="1.1" id="_x30_" xmlns="http://www.w3.org/2000/svg" xmlns:xlink="http://www.w3.org/1999/xlink" x="0px" y="0px"
	 viewBox="0 0 226.8 226.8" style="enable-background:new 0 0 226.8 226.8;" xml:space="preserve">
<style type="text/css">
	.st0{fill:#FF0000;}
</style>
<g>
	<g id="CIRCLE">
		<path class="st0" d="M182.7,12.6c0-7,5.7-12.6,12.6-12.6s12.6,5.7,12.6,12.6c0,7-5.7,12.6-12.6,12.6S182.7,19.5,182.7,12.6
			L182.7,12.6z"/>
	</g>
	<g id="LWPOLYLINE">
		<path d="M182.7,226.8h25.2V63c0-7-5.6-12.6-12.6-12.6S182.7,56,182.7,63V226.8z"/>
	</g>
	<g id="LWPOLYLINE_1_">
		<path class="st0" d="M182.7,119.7h-69.3c-3.5,0-6.3-2.8-6.3-6.3v-63H94.5v144.9c0,3.5,2.8,6.3,6.3,6.3s6.3-2.8,6.3-6.3v-56.7
			c0-3.5,2.8-6.3,6.3-6.3h69.3V119.7z"/>
	</g>
	<g id="LWPOLYLINE_2_">
		<polygon points="94.5,168 69.3,201.6 170.1,201.6 170.1,226.8 18.9,226.8 94.5,126 		"/>
	</g>
	<g id="LWPOLYLINE_3_">
		<path d="M121.3,132.3l-14.2,18.9v-12.6c0-3.5,2.8-6.3,6.3-6.3H121.3z"/>
	</g>
	<g id="LWPOLYLINE_4_">
		<path d="M107.1,109.2l63-84H18.9V0h164c-7,6.8-7.1,18-0.3,24.9c4,4.1,9.7,6,15.3,5.1l-67.2,89.7h-17.3c-3.5,0-6.3-2.8-6.3-6.3
			V109.2z"/>
	</g>
</g>
</svg>
