<svg id="图层_1" data-name="图层 1" xmlns="http://www.w3.org/2000/svg" viewBox="0 0 372.84 198.57"><defs><style>.cls-1,.cls-2,.cls-3,.cls-5,.cls-6,.cls-7{fill:none;}.cls-1,.cls-2,.cls-3,.cls-5,.cls-6{stroke:#000;stroke-width:0.14px;}.cls-1,.cls-2,.cls-3,.cls-4,.cls-5,.cls-6{stroke-miterlimit:10;}.cls-2{stroke-dasharray:8.33 8.33;}.cls-3{stroke-dasharray:8.26 8.26;}.cls-4{fill:#e2f0d9;stroke:#41719c;stroke-width:4.25px;}.cls-5{stroke-dasharray:8.88 8.88;}.cls-6{stroke-dasharray:9.64 9.64;}.cls-7{stroke:red;stroke-miterlimit:8;stroke-width:1.42px;}.cls-8{fill:red;}</style></defs><title>CSS_box</title><polyline class="cls-1" points="283.54 194.24 283.54 198.5 279.28 198.5"/><line class="cls-2" x1="270.95" y1="198.5" x2="8.49" y2="198.5"/><polyline class="cls-1" points="4.32 198.5 0.07 198.5 0.07 194.24"/><line class="cls-3" x1="0.07" y1="185.99" x2="0.07" y2="8.45"/><polyline class="cls-1" points="0.07 4.32 0.07 0.07 4.32 0.07"/><line class="cls-2" x1="12.65" y1="0.07" x2="275.12" y2="0.07"/><polyline class="cls-1" points="279.28 0.07 283.54 0.07 283.54 4.32"/><line class="cls-3" x1="283.54" y1="12.58" x2="283.54" y2="190.12"/><rect class="cls-4" x="42.59" y="35.5" width="198.43" height="127.56"/><polyline class="cls-1" points="212.67 123.38 212.67 127.63 208.42 127.63"/><line class="cls-5" x1="199.54" y1="127.63" x2="79.63" y2="127.63"/><polyline class="cls-1" points="75.19 127.63 70.94 127.63 70.94 123.38"/><line class="cls-6" x1="70.94" y1="113.74" x2="70.94" y2="80.01"/><polyline class="cls-1" points="70.94 75.19 70.94 70.94 75.19 70.94"/><line class="cls-5" x1="84.07" y1="70.94" x2="203.98" y2="70.94"/><polyline class="cls-1" points="208.42 70.94 212.67 70.94 212.67 75.19"/><line class="cls-6" x1="212.67" y1="84.83" x2="212.67" y2="118.56"/><path d="M235.19,209.61a2.8,2.8,0,0,1,.35-1,.83.83,0,0,1,.58-.26.52.52,0,0,1,.36.14.46.46,0,0,1,.15.33,2.67,2.67,0,0,1,0,.4l-.62,2.89a1.35,1.35,0,0,1-.33.67.74.74,0,0,1-.5.2.53.53,0,0,1-.37-.14.41.41,0,0,1-.14-.32,2.44,2.44,0,0,1,0-.3,2.09,2.09,0,0,0,0-.25,2.19,2.19,0,0,0-1-1.78,5.37,5.37,0,0,0-3.4-1,7.18,7.18,0,0,0-3.5.9,6.87,6.87,0,0,0-2.66,2.71,7,7,0,0,0-1,3.54,4.26,4.26,0,0,0,1.27,3.21,4.84,4.84,0,0,0,3.5,1.21,10.2,10.2,0,0,0,6.32-2.32,1.13,1.13,0,0,1,.64-.3.48.48,0,0,1,.35.13.46.46,0,0,1,.14.34,1,1,0,0,1-.31.63,9,9,0,0,1-3.23,2,11.92,11.92,0,0,1-4.35.84,5.65,5.65,0,0,1-4.11-1.49,5.1,5.1,0,0,1-1.54-3.86,8.08,8.08,0,0,1,.77-3.45,9.18,9.18,0,0,1,1.95-2.79,9.64,9.64,0,0,1,2.71-1.85,8.08,8.08,0,0,1,3.42-.71,7.38,7.38,0,0,1,2.62.44A5,5,0,0,1,235.19,209.61Z" transform="translate(-141.66 -113.31)"/><path d="M245.88,222a5.62,5.62,0,0,1-4.12-1.59,5.43,5.43,0,0,1-1.62-4,7.93,7.93,0,0,1,1.22-4.05,8.86,8.86,0,0,1,3.34-3.26,8.67,8.67,0,0,1,4.3-1.2,5.59,5.59,0,0,1,4.11,1.59,5.28,5.28,0,0,1,1.62,3.94,8.2,8.2,0,0,1-1.18,4.11,8.91,8.91,0,0,1-3.32,3.27A8.57,8.57,0,0,1,245.88,222Zm.29-1.28a7.14,7.14,0,0,0,3.56-1,7.24,7.24,0,0,0,2.72-2.69,6.64,6.64,0,0,0,1-3.37,4.28,4.28,0,0,0-1.33-3.21,4.64,4.64,0,0,0-3.38-1.29,6.44,6.44,0,0,0-2.74.58,8.59,8.59,0,0,0-2.26,1.51,7.9,7.9,0,0,0-1.62,2.21,5.85,5.85,0,0,0-.64,2.66,4.42,4.42,0,0,0,1.33,3.3A4.62,4.62,0,0,0,246.17,220.73Z" transform="translate(-141.66 -113.31)"/><path d="M263.42,208.32l-.41,1.93a12.37,12.37,0,0,1,2.86-1.88,6.31,6.31,0,0,1,2.55-.51,4.18,4.18,0,0,1,3,1,3.42,3.42,0,0,1,1.07,2.6,3.85,3.85,0,0,1-.08.7l-1.72,8.06h1.08a.9.9,0,0,1,.58.13.46.46,0,0,1,.16.37.74.74,0,0,1-.26.55,1.07,1.07,0,0,1-.75.22H268a.92.92,0,0,1-.58-.13.49.49,0,0,1-.15-.38.71.71,0,0,1,.25-.54,1.1,1.1,0,0,1,.75-.22h1.08l1.66-7.85a3.14,3.14,0,0,0,.08-.67,2.38,2.38,0,0,0-.78-1.83,3.12,3.12,0,0,0-2.22-.72,5.1,5.1,0,0,0-2.37.53,16.82,16.82,0,0,0-3.14,2.51l-1.71,8h1.45a.92.92,0,0,1,.58.13.45.45,0,0,1,.15.37.73.73,0,0,1-.25.55,1.1,1.1,0,0,1-.75.22H257.9a.9.9,0,0,1-.58-.13.46.46,0,0,1-.16-.38.72.72,0,0,1,.26-.54,1.07,1.07,0,0,1,.75-.22h1.45l2.25-10.62h-1.08a.9.9,0,0,1-.58-.13.49.49,0,0,1-.15-.38.69.69,0,0,1,.25-.54,1.06,1.06,0,0,1,.75-.24Z" transform="translate(-141.66 -113.31)"/><path d="M283.7,208.32h6.94a1,1,0,0,1,.59.12.46.46,0,0,1,.15.38.86.86,0,0,1-.11.45.62.62,0,0,1-.26.25,1.67,1.67,0,0,1-.64.09h-6.94l-1.81,8.52a2.69,2.69,0,0,0-.08.66,1.72,1.72,0,0,0,.75,1.34,3.49,3.49,0,0,0,2.2.6,12.91,12.91,0,0,0,2.95-.38,10.91,10.91,0,0,0,2.53-.89,1.27,1.27,0,0,1,.55-.19.48.48,0,0,1,.35.14.56.56,0,0,1,.14.39.76.76,0,0,1-.38.59,9.59,9.59,0,0,1-3.27,1.22,13.57,13.57,0,0,1-3.14.4,4.44,4.44,0,0,1-3-.89,2.69,2.69,0,0,1-1-2.13,4.58,4.58,0,0,1,.09-.86l1.81-8.52h-2.36a.94.94,0,0,1-.58-.13.49.49,0,0,1-.15-.38.72.72,0,0,1,.25-.54,1.07,1.07,0,0,1,.76-.24h2.36l.8-3.78a1.2,1.2,0,0,1,.32-.65.81.81,0,0,1,.52-.2.52.52,0,0,1,.36.14.42.42,0,0,1,.14.33,1.78,1.78,0,0,1-.06.38Z" transform="translate(-141.66 -113.31)"/><path d="M310.45,215.22h-13c0,.31-.05.55-.05.71a4.57,4.57,0,0,0,1.42,3.44,5.28,5.28,0,0,0,3.84,1.36,11.42,11.42,0,0,0,3.07-.47,9.82,9.82,0,0,0,2.85-1.25,1.15,1.15,0,0,1,.56-.23.48.48,0,0,1,.34.14.53.53,0,0,1,.13.38.72.72,0,0,1-.24.51,7.22,7.22,0,0,1-2.8,1.47,12.81,12.81,0,0,1-4.26.73,6.18,6.18,0,0,1-4.5-1.66,5.66,5.66,0,0,1-1.7-4.22,7.14,7.14,0,0,1,.73-3.19,8.56,8.56,0,0,1,1.93-2.59,10.44,10.44,0,0,1,2.75-1.79,8.35,8.35,0,0,1,3.41-.7,5.81,5.81,0,0,1,4.2,1.54,5.22,5.22,0,0,1,1.6,3.93A9.11,9.11,0,0,1,310.45,215.22Zm-1-1.3a4.47,4.47,0,0,0-1.25-3.44,4.89,4.89,0,0,0-3.59-1.32,7.16,7.16,0,0,0-4.1,1.29,7.51,7.51,0,0,0-2.79,3.47Z" transform="translate(-141.66 -113.31)"/><path d="M319.56,208.32l-.41,1.93a12.14,12.14,0,0,1,2.85-1.88,6.38,6.38,0,0,1,2.55-.51,4.15,4.15,0,0,1,3,1,3.4,3.4,0,0,1,1.08,2.6,3.85,3.85,0,0,1-.08.7l-1.72,8.06h1.08a.92.92,0,0,1,.58.13.45.45,0,0,1,.15.37.73.73,0,0,1-.25.55,1.1,1.1,0,0,1-.75.22h-3.44a.9.9,0,0,1-.58-.13.46.46,0,0,1-.16-.38.72.72,0,0,1,.26-.54,1.07,1.07,0,0,1,.75-.22h1.08l1.66-7.85a3.14,3.14,0,0,0,.08-.67,2.38,2.38,0,0,0-.78-1.83,3.15,3.15,0,0,0-2.22-.72,5,5,0,0,0-2.37.53,16.5,16.5,0,0,0-3.14,2.51l-1.71,8h1.45a.88.88,0,0,1,.57.13.43.43,0,0,1,.16.37.76.76,0,0,1-.25.55,1.11,1.11,0,0,1-.76.22H314a.92.92,0,0,1-.58-.13.49.49,0,0,1-.15-.38.71.71,0,0,1,.25-.54,1.1,1.1,0,0,1,.75-.22h1.45L318,209.61h-1.08a.94.94,0,0,1-.58-.13.49.49,0,0,1-.15-.38.72.72,0,0,1,.25-.54,1.07,1.07,0,0,1,.76-.24Z" transform="translate(-141.66 -113.31)"/><path d="M339.84,208.32h6.94a1,1,0,0,1,.59.12.49.49,0,0,1,.14.38.86.86,0,0,1-.11.45.6.6,0,0,1-.25.25,1.7,1.7,0,0,1-.64.09h-6.95l-1.81,8.52a3.29,3.29,0,0,0-.08.66,1.73,1.73,0,0,0,.76,1.34,3.45,3.45,0,0,0,2.2.6,13,13,0,0,0,2.95-.38,10.91,10.91,0,0,0,2.53-.89,1.23,1.23,0,0,1,.55-.19.48.48,0,0,1,.35.14.56.56,0,0,1,.14.39.75.75,0,0,1-.39.59,9.5,9.5,0,0,1-3.27,1.22,13.51,13.51,0,0,1-3.14.4,4.41,4.41,0,0,1-2.94-.89,2.66,2.66,0,0,1-1-2.13,4.58,4.58,0,0,1,.09-.86l1.81-8.52h-2.36a.92.92,0,0,1-.58-.13.49.49,0,0,1-.15-.38.69.69,0,0,1,.25-.54,1.06,1.06,0,0,1,.75-.24h2.36l.81-3.78a1.14,1.14,0,0,1,.32-.65.77.77,0,0,1,.52-.2.48.48,0,0,1,.35.14.43.43,0,0,1,.15.33,1.78,1.78,0,0,1-.06.38Z" transform="translate(-141.66 -113.31)"/><path d="M291.79,157.7h2.13l.23,1.38h0a6.32,6.32,0,0,1,3.86-1.68c3.15,0,4.92,2.5,4.92,6.35,0,4.29-2.57,6.76-5.38,6.76a5.09,5.09,0,0,1-3.26-1.43l.06,2.13v4h-2.6Zm8.48,6.1c0-2.61-.84-4.22-2.93-4.22a4.41,4.41,0,0,0-2.95,1.52v6.1a4.29,4.29,0,0,0,2.7,1.11C298.91,168.31,300.27,166.7,300.27,163.8Z" transform="translate(-141.66 -113.31)"/><path d="M305,166.88c0-2.7,2.27-4.08,7.46-4.65,0-1.43-.55-2.69-2.38-2.69a7,7,0,0,0-3.61,1.26l-1-1.76a9.49,9.49,0,0,1,5-1.64c3.11,0,4.54,1.95,4.54,5.29v7.5h-2.14l-.2-1.43h-.09a6.19,6.19,0,0,1-4,1.75A3.46,3.46,0,0,1,305,166.88Zm7.46.07v-3c-3.7.43-5,1.38-5,2.77,0,1.24.84,1.74,2,1.74A4.35,4.35,0,0,0,312.47,167Z" transform="translate(-141.66 -113.31)"/><path d="M317.93,164c0-4.06,2.57-6.56,5.33-6.56a4.67,4.67,0,0,1,3.36,1.41l-.09-2.06v-4.63h2.6v18.07H327l-.22-1.4h-.07a5.26,5.26,0,0,1-3.65,1.72C320,170.51,317.93,168.11,317.93,164Zm8.6,2.83v-6.08a4,4,0,0,0-2.75-1.13c-1.72,0-3.15,1.66-3.15,4.35s1.11,4.38,3.06,4.38A3.59,3.59,0,0,0,326.53,166.79Z" transform="translate(-141.66 -113.31)"/><path d="M332.22,164c0-4.06,2.56-6.56,5.33-6.56a4.63,4.63,0,0,1,3.35,1.41l-.09-2.06v-4.63h2.61v18.07h-2.13l-.23-1.4H341a5.26,5.26,0,0,1-3.65,1.72C334.24,170.51,332.22,168.11,332.22,164Zm8.59,2.83v-6.08a3.94,3.94,0,0,0-2.74-1.13c-1.72,0-3.15,1.66-3.15,4.35s1.11,4.38,3.06,4.38A3.57,3.57,0,0,0,340.81,166.79Z" transform="translate(-141.66 -113.31)"/><path d="M347,153.8a1.62,1.62,0,1,1,1.63,1.59A1.51,1.51,0,0,1,347,153.8Zm.31,3.9H350v12.49h-2.61Z" transform="translate(-141.66 -113.31)"/><path d="M353.88,157.7H356l.22,1.74h0a5.83,5.83,0,0,1,4.13-2c2.65,0,3.83,1.77,3.83,4.95v7.84h-2.61v-7.53c0-2.15-.63-3-2.11-3-1.15,0-1.93.57-3,1.68v8.84h-2.6Z" transform="translate(-141.66 -113.31)"/><path d="M367.12,172.5a3.32,3.32,0,0,1,1.81-2.72v-.09a2.41,2.41,0,0,1-1.13-2.08,2.92,2.92,0,0,1,1.41-2.32v-.09a4.18,4.18,0,0,1-1.66-3.33c0-2.81,2.24-4.47,4.83-4.47a5.74,5.74,0,0,1,1.81.3h4.42v2h-2.35a3.53,3.53,0,0,1,.79,2.27c0,2.74-2.06,4.31-4.67,4.31a4.78,4.78,0,0,1-1.75-.37,1.62,1.62,0,0,0-.68,1.3c0,.72.5,1.22,2.09,1.22h2.31c2.93,0,4.47.91,4.47,3,0,2.42-2.52,4.37-6.51,4.37C369.3,175.79,367.12,174.68,367.12,172.5Zm9.16-.65c0-1-.82-1.36-2.31-1.36h-1.89a7,7,0,0,1-1.67-.18,2.2,2.2,0,0,0-1.05,1.81c0,1.2,1.25,1.95,3.31,1.95S376.28,173,376.28,171.85Zm-1.54-10a2.37,2.37,0,1,0-4.72,0,2.38,2.38,0,1,0,4.72,0Z" transform="translate(-141.66 -113.31)"/><path d="M346,120.85h2.13l.23,1.77h0a5.41,5.41,0,0,1,3.88-2.07,3.32,3.32,0,0,1,3.43,2.29c1.24-1.31,2.49-2.29,4.05-2.29,2.61,0,3.84,1.77,3.84,5v7.84H361v-7.53c0-2.15-.64-3-2.07-3a4.17,4.17,0,0,0-2.81,1.68v8.84h-2.61v-7.53c0-2.15-.65-3-2.08-3a4.1,4.1,0,0,0-2.79,1.68v8.84H346Z" transform="translate(-141.66 -113.31)"/><path d="M366.69,130c0-2.7,2.27-4.08,7.46-4.65,0-1.43-.54-2.7-2.38-2.7a6.87,6.87,0,0,0-3.61,1.27l-1-1.76a9.52,9.52,0,0,1,5-1.64c3.11,0,4.54,2,4.54,5.29v7.5h-2.13l-.21-1.43h-.09a6.19,6.19,0,0,1-4,1.75A3.46,3.46,0,0,1,366.69,130Zm7.46.07v-3c-3.7.43-4.94,1.38-4.94,2.77,0,1.24.83,1.74,2,1.74A4.35,4.35,0,0,0,374.15,130.1Z" transform="translate(-141.66 -113.31)"/><path d="M380.45,120.85h2.13l.23,2.24h.05a4.34,4.34,0,0,1,3.56-2.54,3.31,3.31,0,0,1,1.38.25l-.45,2.29a4,4,0,0,0-1.27-.2c-1,0-2.25.7-3,2.7v7.75h-2.61Z" transform="translate(-141.66 -113.31)"/><path d="M388.57,135.65a3.31,3.31,0,0,1,1.82-2.72v-.09a2.41,2.41,0,0,1-1.14-2.08,2.92,2.92,0,0,1,1.41-2.32v-.09A4.21,4.21,0,0,1,389,125c0-2.81,2.25-4.47,4.83-4.47a5.81,5.81,0,0,1,1.82.3h4.42v2h-2.36a3.53,3.53,0,0,1,.79,2.27c0,2.74-2.06,4.31-4.67,4.31a4.73,4.73,0,0,1-1.74-.37,1.6,1.6,0,0,0-.68,1.3c0,.72.5,1.22,2.08,1.22h2.32c2.92,0,4.46.91,4.46,3,0,2.42-2.51,4.37-6.5,4.37C390.75,138.94,388.57,137.83,388.57,135.65Zm9.16-.65c0-1.05-.81-1.36-2.31-1.36h-1.88a7,7,0,0,1-1.68-.18,2.19,2.19,0,0,0-1,1.81c0,1.2,1.24,1.95,3.31,1.95S397.73,136.15,397.73,135Zm-1.54-10a2.37,2.37,0,1,0-4.71,0,2.37,2.37,0,1,0,4.71,0Z" transform="translate(-141.66 -113.31)"/><path d="M402.27,117a1.62,1.62,0,1,1,1.63,1.59A1.51,1.51,0,0,1,402.27,117Zm.32,3.9h2.6v12.49h-2.6Z" transform="translate(-141.66 -113.31)"/><path d="M409.12,120.85h2.13l.23,1.74h0a5.83,5.83,0,0,1,4.13-2c2.65,0,3.83,1.77,3.83,5v7.84h-2.61v-7.53c0-2.15-.63-3-2.11-3-1.15,0-1.92.57-3,1.68v8.84h-2.6Z" transform="translate(-141.66 -113.31)"/><path d="M445.18,219.92h-.1l-.22,1.3h-2.07V203.14h2.61v4.79l-.09,2.13a5.89,5.89,0,0,1,3.72-1.63c3.15,0,4.94,2.49,4.94,6.35,0,4.28-2.56,6.75-5.37,6.75A5.11,5.11,0,0,1,445.18,219.92Zm6.1-5.1c0-2.61-.84-4.22-2.93-4.22a4.39,4.39,0,0,0-3,1.52v6.1a4.23,4.23,0,0,0,2.7,1.11C449.91,219.33,451.28,217.72,451.28,214.82Z" transform="translate(-141.66 -113.31)"/><path d="M456.17,215c0-4.15,2.79-6.55,5.9-6.55s5.85,2.4,5.85,6.55-2.77,6.55-5.85,6.55S456.17,219.13,456.17,215Zm9.07,0c0-2.63-1.22-4.4-3.17-4.4s-3.2,1.77-3.2,4.4,1.23,4.38,3.2,4.38S465.24,217.63,465.24,215Z" transform="translate(-141.66 -113.31)"/><path d="M471,208.72h2.14l.22,2.25h.05a4.32,4.32,0,0,1,3.56-2.54,3.31,3.31,0,0,1,1.38.25L477.9,211a3.76,3.76,0,0,0-1.27-.21c-1,0-2.25.71-3,2.7v7.76H471Z" transform="translate(-141.66 -113.31)"/><path d="M479.19,215c0-4.06,2.56-6.55,5.33-6.55a4.67,4.67,0,0,1,3.36,1.4l-.09-2.06v-4.63h2.6v18.08h-2.13l-.22-1.41H488a5.28,5.28,0,0,1-3.65,1.72C481.21,221.53,479.19,219.13,479.19,215Zm8.6,2.83v-6.07A3.93,3.93,0,0,0,485,210.6c-1.72,0-3.15,1.66-3.15,4.36s1.11,4.37,3.06,4.37A3.61,3.61,0,0,0,487.79,217.81Z" transform="translate(-141.66 -113.31)"/><path d="M493.43,215c0-4.06,2.79-6.55,5.69-6.55,3.31,0,5.11,2.38,5.11,5.89a6.63,6.63,0,0,1-.14,1.34H496a3.76,3.76,0,0,0,3.85,3.81,5.3,5.3,0,0,0,3-.93l.91,1.66a7.54,7.54,0,0,1-4.2,1.33C496.11,221.53,493.43,219.11,493.43,215Zm8.53-1.13c0-2.14-1-3.36-2.79-3.36-1.56,0-2.95,1.18-3.2,3.36Z" transform="translate(-141.66 -113.31)"/><path d="M507.15,208.72h2.13l.23,2.25h.05a4.31,4.31,0,0,1,3.56-2.54,3.34,3.34,0,0,1,1.38.25L514,211a3.66,3.66,0,0,0-1.26-.21c-1,0-2.25.71-3,2.7v7.76h-2.61Z" transform="translate(-141.66 -113.31)"/><line class="cls-7" x1="253.57" y1="99.28" x2="297.71" y2="99.28"/><polygon class="cls-8" points="256.38 103.4 241.02 99.28 256.38 95.17 256.38 103.4"/></svg>