<svg id="图层_1" data-name="图层 1" xmlns="http://www.w3.org/2000/svg" viewBox="0 0 796.42 386.55"><defs><style>.cls-1,.cls-2,.cls-3,.cls-5,.cls-6,.cls-7,.cls-8,.cls-9{fill:none;}.cls-1,.cls-2,.cls-3,.cls-6,.cls-7,.cls-8{stroke:#000;stroke-width:0.28px;}.cls-1,.cls-2,.cls-3,.cls-5,.cls-9{stroke-miterlimit:8;}.cls-2{stroke-dasharray:8.47 8.47;}.cls-3{stroke-dasharray:8.39 8.39;}.cls-4{fill:#e2f0d9;}.cls-10,.cls-4{fill-rule:evenodd;}.cls-5{stroke:#41719c;stroke-width:4.56px;}.cls-6,.cls-7,.cls-8{stroke-miterlimit:10;}.cls-7{stroke-dasharray:8.39 8.39;}.cls-8{stroke-dasharray:8.66 8.66;}.cls-9{stroke:red;stroke-width:0.48px;}.cls-10{fill:red;}</style></defs><title>CSS_box</title><polyline class="cls-1" points="0.14 4.39 0.14 0.14 4.39 0.14"/><line class="cls-2" x1="12.86" y1="0.14" x2="635.08" y2="0.14"/><polyline class="cls-1" points="639.31 0.14 643.56 0.14 643.56 4.39"/><line class="cls-3" x1="643.56" y1="12.79" x2="643.56" y2="377.96"/><polyline class="cls-1" points="643.56 382.16 643.56 386.41 639.31 386.41"/><line class="cls-2" x1="630.85" y1="386.41" x2="8.63" y2="386.41"/><polyline class="cls-1" points="4.39 386.41 0.14 386.41 0.14 382.16"/><line class="cls-3" x1="0.14" y1="373.77" x2="0.14" y2="8.59"/><polygon class="cls-4" points="64.43 64.7 579.28 64.7 579.28 322.13 64.43 322.13 64.43 64.7 64.43 64.7"/><polygon class="cls-5" points="64.43 64.7 579.28 64.7 579.28 322.13 64.43 322.13 64.43 64.7 64.43 64.7"/><polyline class="cls-6" points="128.72 128.34 128.72 124.09 132.97 124.09"/><line class="cls-7" x1="141.36" y1="124.09" x2="506.54" y2="124.09"/><polyline class="cls-6" points="510.74 124.09 514.99 124.09 514.99 128.34"/><line class="cls-8" x1="514.99" y1="137" x2="514.99" y2="253.89"/><polyline class="cls-6" points="514.99 258.22 514.99 262.47 510.74 262.47"/><line class="cls-7" x1="502.34" y1="262.47" x2="137.17" y2="262.47"/><polyline class="cls-6" points="132.97 262.47 128.72 262.47 128.72 258.22"/><line class="cls-8" x1="128.72" y1="249.56" x2="128.72" y2="132.67"/><path d="M157.45,203.35c0-17.7,11-27.79,23.69-27.79,7.2,0,11.9,3.3,15.4,6.6l-2.3,2.59c-3.5-3.3-7.7-5.89-13.1-5.89-11.19,0-19.89,10-19.89,24.49s7.9,24.19,19.89,24.19c5.8,0,10.9-2.8,14.6-6.29l2.1,2.6c-4.4,3.89-10,7-16.8,7C167.65,230.84,157.45,220.75,157.45,203.35Z"/><path d="M204.93,203.35c0-17.7,10.8-27.79,23.4-27.79s23.39,10.09,23.39,27.79c0,17.4-10.79,27.49-23.39,27.49S204.93,220.75,204.93,203.35Zm43.09,0c0-14.5-8.49-24.49-19.69-24.49s-19.6,10-19.6,24.49,8.4,24.19,19.6,24.19S248,217.75,248,203.35Z"/><path d="M268.12,176.86h3l.6,8.39h.2c5.4-5.49,10.89-9.69,18.19-9.69,10.8,0,15.9,6.5,15.9,20.09v33.89h-3.6V196.15c0-11.6-3.7-17.29-12.7-17.29-6.5,0-11.3,3.5-18,10.39v40.29h-3.6Z"/><path d="M327.3,215.55V180.16h-8.4v-2.8l8.4-.5.4-15.4h3.1v15.4h15.6v3.3H330.8v35.89c0,6.8,1.5,11.49,9.2,11.49a17.92,17.92,0,0,0,6.7-1.7l1.19,3a30.65,30.65,0,0,1-8.19,2C329.9,230.84,327.3,224.74,327.3,215.55Z"/><path d="M354,203.35c0-17.2,11-27.79,22.7-27.79,12.19,0,19.89,8.69,19.89,24.29a23.61,23.61,0,0,1-.2,3.6H357.79c0,13.9,8.1,24.09,20.5,24.09a23.55,23.55,0,0,0,14.49-4.8l1.6,3.1c-4,2.4-8.5,5-16.29,5C364.79,230.84,354,220.55,354,203.35Zm39.09-3.2c0-14.3-6.5-21.29-16.39-21.29-9.4,0-17.8,8-18.9,21.29Z"/><path d="M411.18,176.86h3l.6,8.39h.2c5.39-5.49,10.89-9.69,18.19-9.69,10.8,0,15.9,6.5,15.9,20.09v33.89h-3.6V196.15c0-11.6-3.7-17.29-12.7-17.29-6.5,0-11.3,3.5-18,10.39v40.29h-3.6Z"/><path d="M470.36,215.55V180.16H462v-2.8l8.4-.5.4-15.4h3.1v15.4h15.59v3.3H473.86v35.89c0,6.8,1.5,11.49,9.2,11.49a17.87,17.87,0,0,0,6.69-1.7l1.2,3c-3.1,1.1-6.39,2-8.19,2C473,230.84,470.36,224.74,470.36,215.55Z"/><path d="M452.36,92.59h1l-.54,2.17h.07c2.09-1.31,4.52-2.58,6.63-2.58,4.56,0,5.63,3.38,3.9,8.57-1.9,5.71-6.46,9.06-10.48,9.06a6.32,6.32,0,0,1-4.43-2.11l-1.05,3.16-2.09,6.28h-1.15Zm9.81,8.16c1.42-4.27,1-7.52-3.14-7.52-1.72,0-3.95,1-6.7,2.9l-3.46,10.36a6,6,0,0,0,4.48,2.27C456.92,108.76,460.6,105.44,462.17,100.75Z"/><path d="M465.45,105.25c1.24-3.73,5.24-5.48,13.08-6.34,1-2.71,1.28-5.68-2.19-5.68a12.55,12.55,0,0,0-6.17,2l-.26-.92a14.74,14.74,0,0,1,6.84-2.17c3.95,0,4.19,2.93,3.05,6.34l-3.62,10.87h-1l.59-2.23h-.1c-2.19,1.4-4.71,2.65-6.94,2.65C466.16,109.81,464.38,108.44,465.45,105.25Zm10.74.67,2-6c-7.57.8-10.62,2.49-11.56,5.33-.86,2.58.54,3.54,2.58,3.54S473.36,107.8,476.19,105.92Z"/><path d="M483.77,101c1.81-5.42,6.4-8.86,10.48-8.86a5.55,5.55,0,0,1,4.46,2.1l1-3.15,2.35-7h1.14l-8.43,25.31h-1l.59-2.23h-.07a11.42,11.42,0,0,1-6.49,2.65C483.59,109.81,481.88,106.72,483.77,101Zm11,4.81,3.44-10.32a5.12,5.12,0,0,0-4.36-2.3c-3.54,0-7.41,3.48-8.86,7.81-1.53,4.59-.46,7.72,3.27,7.72C490.19,108.76,492.3,107.7,494.76,105.85Z"/><path d="M502.83,101c1.81-5.42,6.4-8.86,10.48-8.86a5.55,5.55,0,0,1,4.46,2.1l1-3.15,2.35-7h1.14l-8.43,25.31h-1l.58-2.23h-.06a11.42,11.42,0,0,1-6.49,2.65C502.65,109.81,500.94,106.72,502.83,101Zm11,4.81,3.44-10.32a5.12,5.12,0,0,0-4.37-2.3c-3.53,0-7.4,3.48-8.85,7.81-1.53,4.59-.46,7.72,3.26,7.72C509.25,108.76,511.35,107.7,513.82,105.85Z"/><path d="M526.17,92.59h1.15l-5.6,16.8h-1.15Zm1.31-5.54A1.72,1.72,0,0,1,529,85.84c.64,0,1,.51.74,1.21a1.75,1.75,0,0,1-1.58,1.3C527.52,88.35,527.2,87.88,527.48,87.05Z"/><path d="M534,92.59h1l-.7,2.68h.06c2.31-1.75,4.51-3.09,6.84-3.09,3.44,0,4.37,2.07,2.93,6.41l-3.6,10.8h-1.15l3.55-10.64c1.23-3.7.66-5.52-2.21-5.52-2.08,0-4,1.12-6.85,3.32l-4.28,12.84h-1.15Z"/><path d="M544.33,112.9a8.53,8.53,0,0,1,3.93-4.14l0-.13a2.22,2.22,0,0,1-.61-2.68,6.25,6.25,0,0,1,2.88-3.09l0-.13a4.83,4.83,0,0,1-.6-4.62,8.73,8.73,0,0,1,7.75-5.93,5,5,0,0,1,2.06.41h5.61l-.35,1.06h-4a4.48,4.48,0,0,1,.49,4.46,8.8,8.8,0,0,1-7.76,6,4.43,4.43,0,0,1-2.58-.77,5.17,5.17,0,0,0-2.31,2.55c-.43,1.28-.08,2.33,2.5,2.33h3.73c3.7,0,5,1.18,4.14,3.76-.95,2.84-4.91,5.64-9.63,5.64C545.38,117.58,543.39,115.7,544.33,112.9Zm13.72-.83c.66-2-.48-2.74-3.13-2.74h-3.83a9.69,9.69,0,0,1-1.94-.29,7.24,7.24,0,0,0-3.58,3.76c-.74,2.23.82,3.76,4.48,3.76C554.07,116.56,557.32,114.27,558.05,112.07Zm2.33-14c1-3-.44-4.88-3-4.88a6.88,6.88,0,0,0-6.19,4.88c-1,2.9.5,4.91,2.92,4.91A7.14,7.14,0,0,0,560.38,98.11Z"/><path d="M525.68,22.4h1l-.7,2.68H526c2.11-1.75,4.51-3.09,6.35-3.09,2.75,0,3.62,1.4,3.46,3.5,2.7-2.16,5-3.5,6.94-3.5,3.28,0,4.28,2.07,2.83,6.4L542,39.2h-1.11l3.54-10.65c1.24-3.69.57-5.51-2.14-5.51-1.66,0-3.69,1.11-6.4,3.31L531.59,39.2h-1.12L534,28.55c1.24-3.69.6-5.51-2.11-5.51-1.63,0-3.75,1.11-6.4,3.31L521.23,39.2h-1.15Z"/><path d="M548.55,35.06c1.25-3.73,5.24-5.49,13.08-6.35,1-2.71,1.29-5.67-2.19-5.67a12.48,12.48,0,0,0-6.16,2l-.26-.93A14.82,14.82,0,0,1,559.86,22c3.95,0,4.19,2.93,3,6.34L559.29,39.2h-1l.58-2.23h-.09c-2.19,1.4-4.71,2.64-6.94,2.64C549.26,39.61,547.49,38.24,548.55,35.06Zm10.75.67,2-6c-7.56.8-10.61,2.49-11.56,5.32-.86,2.59.55,3.54,2.59,3.54S556.47,37.61,559.3,35.73Z"/><path d="M571.16,22.4h1l-.86,3.16h.06c1.8-2,3.93-3.57,5.94-3.57a2.68,2.68,0,0,1,1.51.35l-.64,1.05a2.69,2.69,0,0,0-1.4-.29c-1.5,0-3.74,1.18-6.15,4.5l-3.87,11.6h-1.15Z"/><path d="M573.57,42.71a8.63,8.63,0,0,1,3.93-4.15l0-.13a2.2,2.2,0,0,1-.61-2.67,6.17,6.17,0,0,1,2.88-3.09l0-.13a4.87,4.87,0,0,1-.59-4.62A8.71,8.71,0,0,1,587,22a4.9,4.9,0,0,1,2.06.41h5.61l-.35,1.05h-4a4.52,4.52,0,0,1,.49,4.47c-1.12,3.34-4.51,6-7.76,6a4.38,4.38,0,0,1-2.58-.77,5.1,5.1,0,0,0-2.32,2.55c-.42,1.28-.07,2.33,2.51,2.33h3.73c3.7,0,5,1.18,4.13,3.76-.94,2.84-4.91,5.64-9.63,5.64C574.62,47.39,572.64,45.51,573.57,42.71Zm13.73-.83c.66-2-.49-2.74-3.13-2.74h-3.83a9.69,9.69,0,0,1-1.94-.29,7.27,7.27,0,0,0-3.59,3.76c-.74,2.23.82,3.76,4.49,3.76C583.32,46.37,586.57,44.08,587.3,41.88Zm2.33-14c1-3-.45-4.88-3-4.88a6.88,6.88,0,0,0-6.18,4.88c-1,2.9.5,4.9,2.92,4.9A7.14,7.14,0,0,0,589.63,27.92Z"/><path d="M598.7,22.4h1.15l-5.6,16.8H593.1ZM600,16.85a1.72,1.72,0,0,1,1.55-1.21c.63,0,1,.51.74,1.21a1.78,1.78,0,0,1-1.58,1.31C600.05,18.16,599.73,17.68,600,16.85Z"/><path d="M606.57,22.4h1l-.71,2.68h.07c2.3-1.75,4.5-3.09,6.83-3.09,3.44,0,4.38,2.07,2.93,6.4l-3.6,10.81H611.9l3.55-10.65c1.24-3.69.66-5.51-2.21-5.51-2.07,0-4,1.11-6.84,3.31L602.12,39.2H601Z"/><path d="M700.84,198.37h-.09l-.73,1.69h-.95l8.44-25.31h1.14l-2.48,7.46-1.23,3.38c2.25-1.47,4.74-2.74,6.85-2.74,4.56,0,5.63,3.38,3.9,8.57-1.91,5.71-6.46,9.05-10.48,9.05A6.06,6.06,0,0,1,700.84,198.37Zm13.64-7c1.42-4.27,1-7.52-3.14-7.52-1.72,0-4,1-6.7,2.9l-3.46,10.36a5.91,5.91,0,0,0,4.48,2.26C709.23,199.42,712.91,196.11,714.48,191.42Z"/><path d="M719.19,191.71c1.88-5.64,6.4-8.86,10.41-8.86s6.39,3.22,4.51,8.86-6.37,8.76-10.38,8.76S717.34,197.25,719.19,191.71Zm13.74,0c1.54-4.62-.11-7.81-3.68-7.81s-7.31,3.19-8.85,7.81.11,7.71,3.68,7.71S731.4,196.3,732.93,191.71Z"/><path d="M742.24,183.26h1l-.86,3.16h.06c1.8-2,3.94-3.57,5.94-3.57a2.68,2.68,0,0,1,1.51.35l-.63,1.05a2.73,2.73,0,0,0-1.41-.29c-1.5,0-3.74,1.18-6.15,4.5l-3.87,11.6h-1.15Z"/><path d="M748.61,191.71c1.8-5.42,6.39-8.86,10.47-8.86a5.58,5.58,0,0,1,4.47,2.1l1-3.15,2.35-7.05H768l-8.44,25.31h-.95l.58-2.23h-.06a11.43,11.43,0,0,1-6.5,2.64C748.43,200.47,746.72,197.38,748.61,191.71Zm11,4.81L763,186.19a5.16,5.16,0,0,0-4.37-2.29c-3.54,0-7.41,3.47-8.85,7.81-1.53,4.59-.47,7.71,3.26,7.71C755,199.42,757.13,198.37,759.59,196.52Z"/><path d="M767.67,191.71c1.82-5.48,6.46-8.86,10.19-8.86s5.41,2.77,3.76,7.74a10.68,10.68,0,0,1-.45,1.15h-12.3c-1.48,4.43,0,7.68,4,7.68a9.88,9.88,0,0,0,5.13-1.53l.18,1a11.89,11.89,0,0,1-5.72,1.59C768.19,200.47,765.84,197.19,767.67,191.71Zm12.8-1c1.52-4.56.19-6.79-3-6.79-3,0-6.52,2.55-8.28,6.79Z"/><path d="M788.81,183.26h1l-.86,3.16H789c1.79-2,3.93-3.57,5.94-3.57a2.7,2.7,0,0,1,1.51.35l-.64,1.05a2.72,2.72,0,0,0-1.4-.29c-1.5,0-3.75,1.18-6.16,4.5l-3.87,11.6h-1.14Z"/><line class="cls-9" x1="675.8" y1="188.65" x2="590.63" y2="188.65"/><polygon class="cls-10" points="592.9 181.84 579.28 188.65 592.9 195.46 592.9 181.84 592.9 181.84"/></svg>