<svg id="图层_1" data-name="图层 1" xmlns="http://www.w3.org/2000/svg" viewBox="0 0 800.71 385.74"><defs><style>.cls-1,.cls-2,.cls-28,.cls-3,.cls-5,.cls-6,.cls-7,.cls-8{fill:none;}.cls-1,.cls-2,.cls-3,.cls-6,.cls-7,.cls-8{stroke:#afabab;stroke-width:1.42px;}.cls-1,.cls-2,.cls-28,.cls-3,.cls-5{stroke-miterlimit:8;}.cls-2{stroke-dasharray:8.42 8.42;}.cls-3{stroke-dasharray:8.35 8.35;}.cls-4{fill:#e2f0d9;}.cls-29,.cls-4{fill-rule:evenodd;}.cls-5{stroke:#41719c;stroke-width:4.56px;}.cls-6,.cls-7,.cls-8{stroke-miterlimit:10;}.cls-7{stroke-dasharray:8.35 8.35;}.cls-8{stroke-dasharray:8.61 8.61;}.cls-9{font-size:99.47px;}.cls-13,.cls-17,.cls-23,.cls-9{font-family:SourceHanSansCN-ExtraLight-GBpc-EUC-H, Source Han Sans CN;}.cls-10{letter-spacing:-0.02em;}.cls-11{letter-spacing:-0.01em;}.cls-12{letter-spacing:0em;}.cls-13,.cls-17,.cls-23{font-size:33.43px;}.cls-14{letter-spacing:0.01em;}.cls-15{letter-spacing:0.03em;}.cls-16{letter-spacing:0.03em;}.cls-17{letter-spacing:0.15em;}.cls-18{letter-spacing:0.15em;}.cls-19{letter-spacing:0.13em;}.cls-20{letter-spacing:0.14em;}.cls-21{letter-spacing:0.15em;}.cls-22{letter-spacing:0em;}.cls-23{letter-spacing:0.05em;}.cls-24{letter-spacing:0.05em;}.cls-25{letter-spacing:0.04em;}.cls-26{letter-spacing:0.05em;}.cls-27{letter-spacing:0em;}.cls-28{stroke:red;stroke-width:0.48px;}.cls-29{fill:red;}</style></defs><title>CSS_box</title><polyline class="cls-1" points="0.71 4.96 0.71 0.71 4.96 0.71"/><line class="cls-2" x1="13.38" y1="0.71" x2="632.42" y2="0.71"/><polyline class="cls-1" points="636.63 0.71 640.88 0.71 640.88 4.96"/><line class="cls-3" x1="640.89" y1="13.31" x2="640.89" y2="376.6"/><polyline class="cls-1" points="640.88 380.78 640.88 385.03 636.63 385.03"/><line class="cls-2" x1="628.21" y1="385.03" x2="9.17" y2="385.03"/><polyline class="cls-1" points="4.96 385.03 0.71 385.03 0.71 380.78"/><line class="cls-3" x1="0.71" y1="372.43" x2="0.71" y2="9.14"/><polygon class="cls-4" points="64.67 64.94 576.92 64.94 576.92 321.07 64.67 321.07 64.67 64.94 64.67 64.94"/><polygon class="cls-5" points="64.67 64.94 576.92 64.94 576.92 321.07 64.67 321.07 64.67 64.94 64.67 64.94"/><polyline class="cls-6" points="128.64 128.28 128.64 124.03 132.89 124.03"/><line class="cls-7" x1="141.24" y1="124.03" x2="504.53" y2="124.03"/><polyline class="cls-6" points="508.71 124.03 512.96 124.03 512.96 128.28"/><line class="cls-8" x1="512.96" y1="136.89" x2="512.96" y2="253.15"/><polyline class="cls-6" points="512.96 257.46 512.96 261.71 508.71 261.71"/><line class="cls-7" x1="500.35" y1="261.71" x2="137.06" y2="261.71"/><polyline class="cls-6" points="132.89 261.71 128.64 261.71 128.64 257.46"/><line class="cls-8" x1="128.64" y1="248.85" x2="128.64" y2="132.59"/><text class="cls-9" transform="translate(145.04 227.88)"><tspan class="cls-10">c</tspan><tspan x="47.25" y="0">on</tspan><tspan class="cls-11" x="163.23" y="0">t</tspan><tspan class="cls-12" x="195.55" y="0">e</tspan><tspan x="247.87" y="0">nt</tspan></text><text class="cls-13" transform="matrix(0.95, 0, -0.32, 0.95, 439.55, 104.53)"><tspan class="cls-14">p</tspan><tspan class="cls-15" x="20.26" y="0">addi</tspan><tspan class="cls-16" x="89.88" y="0">n</tspan><tspan x="110.14" y="0">g</tspan></text><text class="cls-17" transform="matrix(0.95, 0, -0.32, 0.95, 503.58, 39.29)">m<tspan class="cls-18" x="34.56" y="0">a</tspan><tspan class="cls-19" x="57.39" y="0">r</tspan><tspan class="cls-20" x="73.1" y="0">g</tspan><tspan class="cls-21" x="95.36" y="0">i</tspan><tspan class="cls-22" x="108.5" y="0">n</tspan></text><text class="cls-23" transform="matrix(0.95, 0, -0.32, 0.95, 689.24, 201.13)">b<tspan class="cls-24" x="21.43" y="0">o</tspan><tspan class="cls-25" x="42.55" y="0">r</tspan><tspan class="cls-24" x="55.39" y="0">d</tspan><tspan class="cls-26" x="76.81" y="0">e</tspan><tspan class="cls-27" x="96.23" y="0">r</tspan></text><line class="cls-28" x1="672.96" y1="188.26" x2="588.21" y2="188.26"/><polygon class="cls-29" points="590.47 181.49 576.92 188.26 590.47 195.04 590.47 181.49 590.47 181.49"/></svg>