<svg id="图层_1" data-name="图层 1" xmlns="http://www.w3.org/2000/svg" viewBox="0 0 800 391.64"><defs><style>.cls-1,.cls-2,.cls-3,.cls-7{fill:none;}.cls-1,.cls-2,.cls-3{stroke:#000;stroke-miterlimit:10;stroke-width:1.42px;}.cls-2{stroke-dasharray:8.57 8.57;}.cls-3{stroke-dasharray:8.47 8.47;}.cls-4{font-size:96.77px;font-family:SourceHanSansCN-Medium-GBpc-EUC-H, Source Han Sans CN;letter-spacing:0.44em;}.cls-5{letter-spacing:0.44em;}.cls-6{letter-spacing:0em;}.cls-7{stroke:red;stroke-miterlimit:8;stroke-width:0.48px;}.cls-10,.cls-22,.cls-8{fill:red;}.cls-8{fill-rule:evenodd;}.cls-10,.cls-22,.cls-26,.cls-9{font-size:22.64px;font-family:GenSenRoundedJP-M, GenSenRounded JP;}.cls-11{letter-spacing:0em;}.cls-12{letter-spacing:0.46em;}.cls-13{letter-spacing:0.45em;}.cls-14,.cls-22{letter-spacing:0em;}.cls-15{letter-spacing:0em;}.cls-16{letter-spacing:0em;}.cls-17{letter-spacing:-0.01em;}.cls-18{letter-spacing:0em;}.cls-19{letter-spacing:0em;}.cls-20{letter-spacing:0em;}.cls-21{letter-spacing:0em;}.cls-23{letter-spacing:0em;}.cls-24{letter-spacing:0em;}.cls-25{letter-spacing:0.21em;}.cls-26{letter-spacing:0.2em;}.cls-27{letter-spacing:0.19em;}.cls-28{letter-spacing:0.2em;}.cls-29{letter-spacing:-0.01em;}.cls-30{letter-spacing:0em;}.cls-31{letter-spacing:-0.01em;}</style></defs><title>CSS优先级计算规则</title><polyline class="cls-1" points="262.87 104.2 262.87 99.95 267.12 99.95"/><line class="cls-2" x1="275.69" y1="99.95" x2="528.57" y2="99.95"/><polyline class="cls-1" points="532.85 99.95 537.11 99.95 537.11 104.2"/><line class="cls-3" x1="537.1" y1="112.67" x2="537.1" y2="243.96"/><polyline class="cls-1" points="537.11 248.2 537.11 252.45 532.85 252.45"/><line class="cls-2" x1="524.28" y1="252.45" x2="271.41" y2="252.45"/><polyline class="cls-1" points="267.12 252.45 262.87 252.45 262.87 248.2"/><line class="cls-3" x1="262.87" y1="239.73" x2="262.87" y2="108.43"/><text class="cls-4" transform="translate(274.46 210.25)">0<tspan class="cls-5" x="97.73" y="0">0</tspan><tspan class="cls-6" x="195.66" y="0">0</tspan></text><line class="cls-7" x1="400.08" y1="211.61" x2="400.08" y2="272.13"/><polygon class="cls-8" points="404.92 270.51 400.08 280.19 395.25 270.51 404.92 270.51 404.92 270.51"/><text class="cls-9" transform="translate(0 85.58)">每多一个</text><text class="cls-10" transform="translate(95.42 85.58)"><tspan class="cls-11">i</tspan><tspan x="6.57" y="0">d</tspan></text><text class="cls-9" transform="translate(116.32 85.58)">，</text><text class="cls-9" transform="translate(138.96 85.58)">百位增加</text><text class="cls-9" transform="translate(229.54 85.58)">1</text><text class="cls-9" transform="translate(274.5 314.18)"><tspan class="cls-12">每</tspan><tspan class="cls-13" x="33.08" y="0">多</tspan><tspan class="cls-12" x="65.96" y="0">一</tspan><tspan x="99.04" y="0">个</tspan></text><text class="cls-10" transform="translate(428.35 314.18)"><tspan class="cls-14">c</tspan><tspan class="cls-15" x="11.62" y="0">l</tspan><tspan class="cls-16" x="18.39" y="0">a</tspan><tspan class="cls-17" x="31.36" y="0">s</tspan><tspan x="42.03" y="0">s</tspan></text><text class="cls-9" transform="translate(502.86 314.18)">或</text><text class="cls-10" transform="translate(274.5 346.69)"><tspan class="cls-18">p</tspan><tspan class="cls-19" x="14.31" y="0">s</tspan><tspan x="25.16" y="0">e</tspan><tspan class="cls-20" x="37.95" y="0">u</tspan><tspan class="cls-21" x="52.06" y="0">d</tspan><tspan x="66.37" y="0">o</tspan></text><text class="cls-10" transform="translate(354.61 346.69)">-</text><text class="cls-22" transform="translate(362.75 346.69)">c<tspan class="cls-15" x="11.62" y="0">l</tspan><tspan class="cls-16" x="18.39" y="0">a</tspan><tspan class="cls-23" x="31.36" y="0">s</tspan><tspan class="cls-24" x="42.21" y="0">s</tspan></text><text class="cls-9" transform="translate(420.61 346.69)">，</text><text class="cls-9" transform="translate(447.9 346.69)"><tspan class="cls-25">十位</tspan><tspan x="54.93" y="0">增</tspan></text><text class="cls-9" transform="translate(274.5 379.21)">加</text><text class="cls-9" transform="translate(297.14 379.21)">1</text><text class="cls-26" transform="translate(548.97 19.93)">每<tspan class="cls-27" x="27.08" y="0">多</tspan><tspan class="cls-28" x="53.98" y="0">一</tspan><tspan class="cls-24" x="81.06" y="0">个</tspan></text><text class="cls-10" transform="translate(672.65 19.93)">e<tspan class="cls-29" x="12.79" y="0">l</tspan><tspan x="19.38" y="0">e</tspan><tspan class="cls-23" x="32.17" y="0">m</tspan><tspan class="cls-17" x="53.48" y="0">e</tspan><tspan class="cls-30" x="66.07" y="0">nt</tspan></text><text class="cls-9" transform="translate(777.36 19.93)">或</text><text class="cls-10" transform="translate(548.97 52.43)"><tspan class="cls-18">p</tspan><tspan class="cls-19" x="14.31" y="0">s</tspan><tspan x="25.16" y="0">e</tspan><tspan class="cls-20" x="37.95" y="0">u</tspan><tspan class="cls-21" x="52.06" y="0">d</tspan><tspan x="66.37" y="0">o</tspan></text><text class="cls-10" transform="translate(629.09 52.43)">-</text><text class="cls-10" transform="translate(637.22 52.43)"><tspan class="cls-31">e</tspan><tspan class="cls-15" x="12.59" y="0">l</tspan><tspan x="19.36" y="0">e</tspan><tspan class="cls-23" x="32.15" y="0">m</tspan><tspan x="53.46" y="0">ent</tspan></text><text class="cls-9" transform="translate(728.19 52.43)">，</text><text class="cls-9" transform="translate(752.76 52.43)">个</text><text class="cls-9" transform="translate(777.36 52.43)">位</text><text class="cls-9" transform="translate(548.97 84.94)">增加</text><text class="cls-9" transform="translate(594.26 84.94)">1</text><line class="cls-7" x1="280.54" y1="168.52" x2="217.67" y2="105.65"/><polygon class="cls-8" points="215.39 110.21 211.97 99.95 222.23 103.37 215.39 110.21 215.39 110.21"/><line class="cls-7" x1="518.53" y1="168.52" x2="581.4" y2="105.65"/><polygon class="cls-8" points="583.68 110.21 587.1 99.95 576.84 103.37 583.68 110.21 583.68 110.21"/></svg>