<svg id="图层_1" data-name="图层 1" xmlns="http://www.w3.org/2000/svg" viewBox="0 0 797.81 378.12"><defs><style>.cls-1,.cls-2,.cls-3,.cls-4{fill:none;}.cls-1,.cls-2,.cls-3{stroke:#000;stroke-miterlimit:10;stroke-width:0.28px;}.cls-2{stroke-dasharray:8.57 8.57;}.cls-3{stroke-dasharray:8.47 8.47;}.cls-4{stroke:red;stroke-miterlimit:8;stroke-width:0.48px;}.cls-5,.cls-6{fill:red;}.cls-5{fill-rule:evenodd;}</style></defs><title>CSS优先级计算规则</title><polyline class="cls-1" points="261.68 102.66 261.68 98.4 265.93 98.4"/><line class="cls-2" x1="274.5" y1="98.4" x2="527.32" y2="98.4"/><polyline class="cls-1" points="531.6 98.4 535.85 98.4 535.85 102.66"/><line class="cls-3" x1="535.85" y1="111.12" x2="535.85" y2="242.39"/><polyline class="cls-1" points="535.85 246.62 535.85 250.87 531.6 250.87"/><line class="cls-2" x1="523.03" y1="250.87" x2="270.22" y2="250.87"/><polyline class="cls-1" points="265.93 250.87 261.68 250.87 261.68 246.62"/><line class="cls-3" x1="261.68" y1="238.15" x2="261.68" y2="106.89"/><path d="M279,175.49c0-23.31,8.9-35.7,23.12-35.7S325,152.18,325,175.49s-8.81,36.28-22.93,36.28S279,198.9,279,175.49Zm35.4,0c0-19.83-5.12-26.89-12.28-26.89s-12.38,7.06-12.38,26.89,5.12,27.38,12.38,27.38S314.35,195.42,314.35,175.49Z" transform="translate(-1.13 -0.99)"/><path d="M376.66,175.49c0-23.31,8.9-35.7,23.12-35.7s22.93,12.39,22.93,35.7-8.81,36.28-22.93,36.28S376.66,198.9,376.66,175.49Zm35.41,0c0-19.83-5.13-26.89-12.29-26.89s-12.38,7.06-12.38,26.89,5.12,27.38,12.38,27.38S412.07,195.42,412.07,175.49Z" transform="translate(-1.13 -0.99)"/><path d="M474.56,175.49c0-23.31,8.9-35.7,23.13-35.7s22.92,12.39,22.92,35.7-8.8,36.28-22.92,36.28S474.56,198.9,474.56,175.49Zm35.41,0c0-19.83-5.13-26.89-12.28-26.89s-12.39,7.06-12.39,26.89,5.13,27.38,12.39,27.38S510,195.42,510,175.49Z" transform="translate(-1.13 -0.99)"/><line class="cls-4" x1="398.86" y1="210.05" x2="398.86" y2="270.54"/><polygon class="cls-5" points="403.7 268.93 398.86 278.61 394.03 268.93 403.7 268.93 403.7 268.93"/><path d="M7.09,66.5A22.72,22.72,0,0,1,5.86,69h15v.66H5.48a24.26,24.26,0,0,1-3.74,4.91c-.13-.09-.43-.32-.61-.43a22.59,22.59,0,0,0,5.28-7.79ZM4.55,77.8c.27-1.88.54-3.8.73-5.37H18.61s0,.37,0,.5l-.18,4.87h3.15v.66h-3.2c-.09,2.08-.22,3.64-.36,4.8H21v.65h-3a5.33,5.33,0,0,1-.72,2.38,1.59,1.59,0,0,1-1.34.54c-.59,0-1.72,0-2.8-.11a1.69,1.69,0,0,0-.19-.63c1.27.09,2.47.11,2.9.11s.64,0,.84-.29a4.42,4.42,0,0,0,.61-2L4,83.89H3.51c.29-1.4.63-3.37,1-5.43H1.15V77.8Zm13.16.66H5.09c-.27,1.79-.54,3.48-.79,4.8h13C17.48,82.13,17.59,80.56,17.71,78.46ZM5.86,73.11,5.21,77.8H17.75l.18-4.69ZM8.42,79a21.77,21.77,0,0,1,4.92,3.29l-.41.56A22.14,22.14,0,0,0,8,79.5Zm.89-5.25a18.21,18.21,0,0,1,4.57,2.78l-.45.53a18.26,18.26,0,0,0-4.58-2.83Z" transform="translate(-1.13 -0.99)"/><path d="M34.21,66.59a18.31,18.31,0,0,1-1.7,2h7l.16,0,.43.31c-2.87,4.85-9.67,8.11-14.92,9.33a2.25,2.25,0,0,0-.39-.65,29.54,29.54,0,0,0,8.47-3.24A16.25,16.25,0,0,0,29.84,72l.45-.45a17.14,17.14,0,0,1,3.56,2.33A16.62,16.62,0,0,0,39,69.22H31.83a23.65,23.65,0,0,1-5.66,3.85,2.53,2.53,0,0,0-.5-.48,19.6,19.6,0,0,0,7.75-6.16Zm3.64,7.68a19.83,19.83,0,0,1-1.6,1.88h7l.16-.05.41.32c-3.15,6.52-11.24,9.42-18.6,10.44a2.48,2.48,0,0,0-.31-.66,32.65,32.65,0,0,0,11.66-3.49,24.55,24.55,0,0,0-3.24-2.85l.54-.34a28.07,28.07,0,0,1,3.33,2.83,14.69,14.69,0,0,0,5.62-5.55h-7.2a24.92,24.92,0,0,1-7.5,4.71A2.32,2.32,0,0,0,27.6,81a21.62,21.62,0,0,0,9.46-6.93Z" transform="translate(-1.13 -0.99)"/><path d="M66.9,76v.75H46.41V76Z" transform="translate(-1.13 -0.99)"/><path d="M80.12,66.7l-.54.84c2.24,3.47,5.54,6.12,10,8.49a2.06,2.06,0,0,0-.5.52,27.27,27.27,0,0,1-9.82-8.49,28.52,28.52,0,0,1-9.74,8.45A4,4,0,0,0,69,76a27.1,27.1,0,0,0,10.57-9.6Zm-.54,5.76V86.83H78.9V72.46Z" transform="translate(-1.13 -0.99)"/><path class="cls-6" d="M97.39,69.38a.81.81,0,0,1,.82-.86.89.89,0,1,1-.82.86Zm.38,3.94h.82V85.25h-.82Z" transform="translate(-1.13 -0.99)"/><path class="cls-6" d="M102.32,79.32c0-3.85,2.45-6.3,5.35-6.3a5.62,5.62,0,0,1,3.67,1.5l-.07-2.25v-5h.81v18h-.67l-.12-1.58h0a5.74,5.74,0,0,1-4,1.87C104.27,85.54,102.32,83.35,102.32,79.32Zm9,3.42V75.4a5.21,5.21,0,0,0-3.65-1.63c-2.51,0-4.43,2.47-4.43,5.55,0,3.26,1.49,5.48,4.14,5.48A5.7,5.7,0,0,0,111.27,82.74Z" transform="translate(-1.13 -0.99)"/><path d="M117,86.4a4.36,4.36,0,0,0,2.79-4,1.46,1.46,0,0,1-.54.09,1.09,1.09,0,0,1-1.23-1.2,1.13,1.13,0,0,1,1.2-1.22c.93,0,1.43.83,1.43,2.1A5.05,5.05,0,0,1,117.3,87Z" transform="translate(-1.13 -0.99)"/><path d="M147,72.61a38.81,38.81,0,0,0,1-4.18h-9.27v-.66h19.59v.66H148.7c-.3,1.35-.66,3-1,4.18h8.11V86.9h-.66V85.34H142.29V86.9h-.68V72.61Zm8.11,6V73.29H142.29v5.28Zm-12.86,6.09h12.86V79.23H142.29Z" transform="translate(-1.13 -0.99)"/><path d="M167.58,66.7a30.8,30.8,0,0,1-2.52,5.08v15h-.65v-14a25.21,25.21,0,0,1-3.06,3.82,2.79,2.79,0,0,0-.5-.54,27.54,27.54,0,0,0,6.09-9.56Zm7.65,18.5a108.88,108.88,0,0,0,2.51-11.91l.73.16c-.64,3.56-1.65,8.54-2.54,11.75h5.48v.66h-14.2V85.2Zm5.1-14.33v.66h-12v-.66Zm-9.72,2.7a89.73,89.73,0,0,1,1.81,10l-.7.2a79.23,79.23,0,0,0-1.74-10Zm3.13-7.11a28.42,28.42,0,0,1,1.15,3.6l-.66.22a24.38,24.38,0,0,0-1.11-3.62Z" transform="translate(-1.13 -0.99)"/><path d="M186.66,81.72v-9h-2.78v-.66h2.78V66.66h.68v5.43h2.56v.66h-2.56v8.7l2.65-1,.11.65-6.16,2.4-.25-.68C184.51,82.53,185.55,82.15,186.66,81.72Zm11.55-12a22.07,22.07,0,0,0,2.15-3.35l.66.34c-.61,1-1.38,2.15-2.06,3h3.64v7.13H191V69.76Zm-6.55,6.48h4.9V70.42h-4.9Zm9.74,2.53v8h-.65V85.63H193v1.09h-.68v-8Zm-8-12.18a12.28,12.28,0,0,1,1.7,2.42l-.61.34a16.26,16.26,0,0,0-1.63-2.51Zm.07,4.78a12.83,12.83,0,0,1,1.86,3.26l-.59.29a13.25,13.25,0,0,0-1.81-3.32ZM200.75,82V79.43H193V82ZM193,85h7.79V82.65H193Zm4.25-8.74H202V70.42h-4.74Zm3.72-4.58a30.42,30.42,0,0,1-2.34,3.4l-.52-.27a23.65,23.65,0,0,0,2.22-3.44Z" transform="translate(-1.13 -0.99)"/><path d="M210.79,66.73l0,4.23h5.18v.5c-.16,10.46-.31,13.59-1,14.49a1.35,1.35,0,0,1-1.24.59,24.09,24.09,0,0,1-2.65-.09,1.53,1.53,0,0,0-.2-.68c1.22.09,2.35.09,2.76.09a.72.72,0,0,0,.75-.29c.54-.7.77-4.06.95-13.95h-4.55c-.21,6.16-1,12-4.17,15.26a4.4,4.4,0,0,0-.61-.34c3.17-3.12,3.94-8.92,4.12-14.92H206.4V71h3.69c0-1.4,0-2.83,0-4.23Zm14.77,2.76v17h-.68V84.87H219v1.74h-.68V69.49Zm-.68,14.72V70.15H219V84.21Z" transform="translate(-1.13 -0.99)"/><path d="M229.89,84.5h3.78V70.85H230.8v-.59a8.57,8.57,0,0,0,3-1h.71V84.5H238v.75h-8.11Z" transform="translate(-1.13 -0.99)"/><path d="M281.53,295.36a24.69,24.69,0,0,1-1.23,2.47h15v.66H279.92a24.26,24.26,0,0,1-3.74,4.91c-.13-.09-.43-.32-.61-.43a22.63,22.63,0,0,0,5.28-7.79ZM279,306.66c.27-1.88.54-3.8.72-5.36h13.34s0,.36,0,.49l-.18,4.87H296v.66h-3.2c-.09,2.08-.22,3.64-.36,4.8h2.94v.66h-3a5.32,5.32,0,0,1-.72,2.37,1.62,1.62,0,0,1-1.34.55c-.59,0-1.72,0-2.81-.12a1.5,1.5,0,0,0-.18-.63c1.27.09,2.47.11,2.9.11s.64,0,.84-.29a4.31,4.31,0,0,0,.61-2l-13.27,0H278c.29-1.4.63-3.37.95-5.43h-3.31v-.66Zm13.16.66H279.53c-.27,1.79-.54,3.49-.79,4.8h13C291.92,311,292,309.42,292.15,307.32ZM280.3,302l-.65,4.68h12.54l.18-4.68Zm2.56,5.9a21.77,21.77,0,0,1,4.92,3.29l-.41.56a22.48,22.48,0,0,0-4.94-3.37Zm.89-5.25a18.22,18.22,0,0,1,4.57,2.79l-.45.52a18.26,18.26,0,0,0-4.58-2.83Z" transform="translate(-1.13 -0.99)"/><path d="M319.85,295.45a17.26,17.26,0,0,1-1.69,2h6.95l.16,0,.43.32c-2.88,4.84-9.67,8.1-14.93,9.32a2.36,2.36,0,0,0-.38-.65,29.76,29.76,0,0,0,8.47-3.24,16.18,16.18,0,0,0-3.38-2.26l.46-.46a17.76,17.76,0,0,1,3.55,2.34,16.66,16.66,0,0,0,5.14-4.67h-7.15a24.06,24.06,0,0,1-5.66,3.85,2.84,2.84,0,0,0-.5-.48,19.63,19.63,0,0,0,7.74-6.16Zm3.65,7.68a18.81,18.81,0,0,1-1.61,1.88h6.95L329,305l.41.32c-3.15,6.52-11.23,9.42-18.59,10.44a2.51,2.51,0,0,0-.32-.66,32.72,32.72,0,0,0,11.66-3.48,24.46,24.46,0,0,0-3.23-2.86l.54-.34a30.87,30.87,0,0,1,3.33,2.83,14.57,14.57,0,0,0,5.61-5.54h-7.2a25.26,25.26,0,0,1-7.49,4.71,2.72,2.72,0,0,0-.48-.48,21.64,21.64,0,0,0,9.47-6.93Z" transform="translate(-1.13 -0.99)"/><path d="M363.57,304.9v.74H343.08v-.74Z" transform="translate(-1.13 -0.99)"/><path d="M387.81,295.57l-.54.83c2.24,3.47,5.55,6.12,10,8.5a1.77,1.77,0,0,0-.5.52,27.42,27.42,0,0,1-9.83-8.49,28.4,28.4,0,0,1-9.74,8.44,3.39,3.39,0,0,0-.52-.47,27.16,27.16,0,0,0,10.58-9.61Zm-.54,5.75V315.7h-.68V301.32Z" transform="translate(-1.13 -0.99)"/><path class="cls-6" d="M433.07,308.18c0-4,2.49-6.3,5.37-6.3a4.88,4.88,0,0,1,3.49,1.5l-.52.59a4.29,4.29,0,0,0-3-1.34c-2.54,0-4.51,2.27-4.51,5.55s1.79,5.48,4.51,5.48a4.88,4.88,0,0,0,3.31-1.43l.47.59a5.66,5.66,0,0,1-3.8,1.59C435.38,314.41,433.07,312.12,433.07,308.18Z" transform="translate(-1.13 -0.99)"/><path class="cls-6" d="M445.32,312.78V296.13h.82v16.78c0,.5.18.75.49.75a1.85,1.85,0,0,0,.43-.05l.16.71a2.66,2.66,0,0,1-.68.09C445.77,314.41,445.32,313.93,445.32,312.78Z" transform="translate(-1.13 -0.99)"/><path class="cls-6" d="M450.05,311.17c0-2.65,2.42-3.9,7.79-4.51.07-1.92-.43-4-2.9-4a6.49,6.49,0,0,0-3.89,1.45l-.41-.66a7.8,7.8,0,0,1,4.35-1.54c2.81,0,3.67,2.09,3.67,4.51v7.72H458l-.12-1.58h-.06a7.21,7.21,0,0,1-4.31,1.88C451.64,314.41,450.05,313.43,450.05,311.17Zm7.79.47v-4.28c-5.18.57-6.95,1.77-6.95,3.79a2.36,2.36,0,0,0,2.67,2.51C455,313.66,456.28,313,457.84,311.64Z" transform="translate(-1.13 -0.99)"/><path class="cls-6" d="M461.39,312.78l.52-.66a5.54,5.54,0,0,0,3.88,1.54c2,0,3-1.16,3-2.51,0-1.57-1.59-2.27-3-2.77-1.81-.65-3.76-1.33-3.76-3.39,0-1.66,1.29-3.11,3.76-3.11a5.28,5.28,0,0,1,3.31,1.23l-.48.61a4.54,4.54,0,0,0-2.88-1.09c-2,0-2.87,1.13-2.87,2.31,0,1.43,1.36,2,2.78,2.52,1.91.72,4,1.31,4,3.64,0,1.77-1.39,3.31-3.9,3.31A6.86,6.86,0,0,1,461.39,312.78Z" transform="translate(-1.13 -0.99)"/><path class="cls-6" d="M471.26,312.78l.52-.66a5.54,5.54,0,0,0,3.88,1.54c2,0,3-1.16,3-2.51,0-1.57-1.59-2.27-3-2.77-1.81-.65-3.76-1.33-3.76-3.39,0-1.66,1.29-3.11,3.76-3.11a5.28,5.28,0,0,1,3.31,1.23l-.48.61a4.54,4.54,0,0,0-2.88-1.09c-2,0-2.87,1.13-2.87,2.31,0,1.43,1.36,2,2.78,2.52,1.91.72,4,1.31,4,3.64,0,1.77-1.38,3.31-3.9,3.31A6.86,6.86,0,0,1,471.26,312.78Z" transform="translate(-1.13 -0.99)"/><path d="M514.54,311l.05.64c-3.56.77-7.27,1.6-9.78,2.15l-.16-.68Zm1.56-11.82c-.06-1.24-.11-2.53-.13-3.87h.72c0,1.34,0,2.63.12,3.87h7.06v.68h-7a44.53,44.53,0,0,0,1.45,9.51,23.88,23.88,0,0,0,3.83-7.36l.63.18a24.89,24.89,0,0,1-4.24,7.93c1,3.1,2.43,4.87,4.13,4.87.81,0,1.08-1.2,1.24-4.39a1.81,1.81,0,0,0,.64.31c-.19,3.53-.55,4.76-1.91,4.76-2,0-3.51-1.86-4.59-5a21.57,21.57,0,0,1-6.12,4.8c-.09-.14-.34-.41-.47-.57a19.81,19.81,0,0,0,6.34-5,46.6,46.6,0,0,1-1.63-10.12H504.81v-.68Zm-2.55,3.26v6.61h-7.23v-6.61Zm-6.55,6h5.87v-5.28H507Zm11.8-12.93a18.16,18.16,0,0,1,4.35,2.56l-.39.54a18.68,18.68,0,0,0-4.35-2.67Z" transform="translate(-1.13 -0.99)"/><path class="cls-6" d="M276.82,334.68h.68l.13,1.54h.05a7,7,0,0,1,4.1-1.83c3.23,0,4.8,2.4,4.8,6.09,0,4-2.45,6.43-5.3,6.43a6.37,6.37,0,0,1-3.65-1.5v6.71h-.81Zm8.9,5.8c0-3-1.09-5.35-4-5.35-1.23,0-2.56.75-4.08,2.06v7.36a6.07,6.07,0,0,0,3.71,1.61C283.88,346.16,285.72,343.81,285.72,340.48Z" transform="translate(-1.13 -0.99)"/><path class="cls-6" d="M288.81,345.28l.52-.66a5.54,5.54,0,0,0,3.88,1.54c2,0,3-1.15,3-2.51,0-1.57-1.59-2.27-3-2.77-1.81-.65-3.76-1.33-3.76-3.39,0-1.66,1.29-3.1,3.76-3.1a5.27,5.27,0,0,1,3.31,1.22l-.48.61a4.54,4.54,0,0,0-2.88-1.09c-2,0-2.87,1.13-2.87,2.31,0,1.43,1.36,2,2.78,2.52,1.91.72,4,1.31,4,3.64,0,1.77-1.39,3.31-3.9,3.31A6.86,6.86,0,0,1,288.81,345.28Z" transform="translate(-1.13 -0.99)"/><path class="cls-6" d="M299.18,340.68c0-3.89,2.49-6.29,5.14-6.29s4.51,2,4.51,5.5a4.74,4.74,0,0,1-.05.81H300c0,3.15,1.84,5.46,4.64,5.46a5.35,5.35,0,0,0,3.29-1.09l.36.71a6.5,6.5,0,0,1-3.69,1.13C301.63,346.91,299.18,344.58,299.18,340.68ZM308,340c0-3.24-1.48-4.83-3.72-4.83s-4,1.81-4.28,4.83Z" transform="translate(-1.13 -0.99)"/><path class="cls-6" d="M312,342.36v-7.68h.81v7.59c0,2.62.84,3.89,2.85,3.89,1.48,0,2.59-.79,4.06-2.56v-8.92h.81v11.93h-.7l-.09-2h-.05c-1.2,1.38-2.44,2.33-4.09,2.33C313.15,346.91,312,345.46,312,342.36Z" transform="translate(-1.13 -0.99)"/><path class="cls-6" d="M324.31,340.68c0-3.85,2.45-6.29,5.34-6.29a5.59,5.59,0,0,1,3.67,1.49l-.07-2.24v-5h.82v18h-.68l-.11-1.58h0a5.7,5.7,0,0,1-4,1.88C326.26,346.91,324.31,344.71,324.31,340.68Zm8.94,3.42v-7.34a5.25,5.25,0,0,0-3.64-1.63c-2.51,0-4.44,2.47-4.44,5.55,0,3.26,1.5,5.48,4.14,5.48A5.68,5.68,0,0,0,333.25,344.1Z" transform="translate(-1.13 -0.99)"/><path class="cls-6" d="M337.85,340.68c0-4,2.44-6.29,5.3-6.29s5.3,2.28,5.3,6.29-2.45,6.23-5.3,6.23S337.85,344.62,337.85,340.68Zm9.76,0c0-3.28-1.93-5.55-4.46-5.55s-4.44,2.27-4.44,5.55,1.9,5.48,4.44,5.48S347.61,343.94,347.61,340.68Z" transform="translate(-1.13 -0.99)"/><path class="cls-6" d="M350.89,340h5.41v.8h-5.41Z" transform="translate(-1.13 -0.99)"/><path class="cls-6" d="M358.59,340.68c0-4,2.49-6.29,5.36-6.29a4.86,4.86,0,0,1,3.49,1.49l-.52.59a4.25,4.25,0,0,0-3-1.34c-2.53,0-4.5,2.27-4.5,5.55s1.79,5.48,4.5,5.48a4.86,4.86,0,0,0,3.31-1.43l.48.59a5.71,5.71,0,0,1-3.81,1.59C360.9,346.91,358.59,344.62,358.59,340.68Z" transform="translate(-1.13 -0.99)"/><path class="cls-6" d="M370.68,345.28V328.63h.81v16.78c0,.5.18.75.5.75a2.29,2.29,0,0,0,.43,0l.16.7a2.73,2.73,0,0,1-.68.09C371.13,346.91,370.68,346.43,370.68,345.28Z" transform="translate(-1.13 -0.99)"/><path class="cls-6" d="M375.41,343.67c0-2.65,2.42-3.9,7.79-4.51.06-1.92-.43-4-2.9-4a6.52,6.52,0,0,0-3.9,1.45l-.4-.66a7.76,7.76,0,0,1,4.34-1.53c2.81,0,3.67,2.08,3.67,4.5v7.72h-.68l-.11-1.58h-.07a7.18,7.18,0,0,1-4.3,1.88C377,346.91,375.41,345.93,375.41,343.67Zm7.79.48v-4.28c-5.19.56-6.95,1.76-6.95,3.78a2.36,2.36,0,0,0,2.67,2.51C380.34,346.16,381.63,345.48,383.2,344.15Z" transform="translate(-1.13 -0.99)"/><path class="cls-6" d="M386.75,345.28l.52-.66a5.53,5.53,0,0,0,3.87,1.54c2,0,3-1.15,3-2.51,0-1.57-1.58-2.27-3-2.77-1.81-.65-3.75-1.33-3.75-3.39,0-1.66,1.29-3.1,3.75-3.1a5.27,5.27,0,0,1,3.31,1.22l-.48.61a4.54,4.54,0,0,0-2.87-1.09c-2,0-2.88,1.13-2.88,2.31,0,1.43,1.36,2,2.79,2.52,1.9.72,4,1.31,4,3.64,0,1.77-1.38,3.31-3.89,3.31A6.84,6.84,0,0,1,386.75,345.28Z" transform="translate(-1.13 -0.99)"/><path class="cls-6" d="M396.62,345.28l.52-.66a5.53,5.53,0,0,0,3.87,1.54c2,0,3-1.15,3-2.51,0-1.57-1.58-2.27-3-2.77-1.81-.65-3.75-1.33-3.75-3.39,0-1.66,1.29-3.1,3.75-3.1a5.27,5.27,0,0,1,3.31,1.22l-.48.61a4.54,4.54,0,0,0-2.87-1.09c-2,0-2.88,1.13-2.88,2.31,0,1.43,1.36,2,2.79,2.52,1.9.72,4,1.31,4,3.64,0,1.77-1.38,3.31-3.89,3.31A6.84,6.84,0,0,1,396.62,345.28Z" transform="translate(-1.13 -0.99)"/><path d="M409.62,347.77a4.39,4.39,0,0,0,2.78-4,1.46,1.46,0,0,1-.54.09,1.09,1.09,0,0,1-1.22-1.2,1.13,1.13,0,0,1,1.2-1.22c.93,0,1.42.84,1.42,2.11a5,5,0,0,1-3.35,4.77Z" transform="translate(-1.13 -0.99)"/><path d="M442.84,327.84v8.74h9.72v.66h-9.72v11h-.68v-11h-9.6v-.66h9.6v-8.74Z" transform="translate(-1.13 -0.99)"/><path d="M462.69,328.07a31.05,31.05,0,0,1-2.51,5.07v15h-.66v-14a25.78,25.78,0,0,1-3,3.83,2.83,2.83,0,0,0-.5-.55,27.59,27.59,0,0,0,6.09-9.55Zm7.66,18.5a109.88,109.88,0,0,0,2.51-11.91l.73.16c-.64,3.55-1.66,8.53-2.54,11.75h5.48v.65h-14.2v-.65Zm5.09-14.34v.66h-12v-.66Zm-9.71,2.7a92.12,92.12,0,0,1,1.81,10l-.7.21a79.85,79.85,0,0,0-1.75-10Zm3.12-7.11a30.89,30.89,0,0,1,1.16,3.6l-.66.23a24.48,24.48,0,0,0-1.11-3.63Z" transform="translate(-1.13 -0.99)"/><path d="M483.11,343.08v-9h-2.78v-.65h2.78V328h.68v5.44h2.56v.65h-2.56v8.7l2.65-1,.12.66-6.16,2.4-.25-.68C481,343.9,482,343.51,483.11,343.08Zm11.55-11.95a20.7,20.7,0,0,0,2.15-3.36l.66.34c-.61,1-1.38,2.15-2.06,3h3.64v7.13H487.46v-7.13Zm-6.54,6.47H493v-5.82h-4.89Zm9.73,2.54v7.94h-.65V347h-7.79v1.08h-.68v-7.94Zm-8-12.19a11.56,11.56,0,0,1,1.69,2.43l-.61.34a16,16,0,0,0-1.63-2.52Zm.06,4.78a12.25,12.25,0,0,1,1.86,3.26l-.59.3a13,13,0,0,0-1.81-3.33Zm7.32,10.62v-2.56h-7.79v2.56Zm-7.79,3h7.79V344h-7.79Zm4.26-8.74h4.73v-5.82h-4.73Zm3.71-4.57a31.19,31.19,0,0,1-2.33,3.39l-.52-.27a23.41,23.41,0,0,0,2.22-3.44Z" transform="translate(-1.13 -0.99)"/><path d="M508.58,328.09l0,4.24h5.18v.49c-.16,10.46-.32,13.59-1,14.5a1.34,1.34,0,0,1-1.24.58,21.77,21.77,0,0,1-2.65-.09,1.46,1.46,0,0,0-.21-.68c1.23.09,2.36.09,2.77.09a.69.69,0,0,0,.74-.29c.55-.7.77-4.05.95-13.95h-4.55c-.2,6.16-.95,12-4.16,15.26a4.4,4.4,0,0,0-.61-.34c3.17-3.12,3.94-8.92,4.12-14.92h-3.67v-.65h3.69c0-1.41,0-2.84,0-4.24Zm14.77,2.76v17h-.68v-1.58H516.8V348h-.68V330.85Zm-.68,14.72V331.51H516.8v14.06Z" transform="translate(-1.13 -0.99)"/><path d="M276.59,378.37h3.78V364.71H277.5v-.59a8.64,8.64,0,0,0,3-.95h.7v15.2h3.54v.74h-8.11Z" transform="translate(-1.13 -0.99)"/><path d="M555.94,1.17a24.62,24.62,0,0,1-1.22,2.47h15V4.3H554.33a24.26,24.26,0,0,1-3.74,4.91c-.13-.09-.42-.32-.61-.43A22.5,22.5,0,0,0,555.26,1Zm-2.54,11.3c.27-1.88.55-3.8.73-5.36h13.33s0,.36,0,.49l-.18,4.87h3.15v.66h-3.19c-.09,2.08-.23,3.64-.37,4.8h2.95v.66h-3a5.29,5.29,0,0,1-.73,2.37,1.61,1.61,0,0,1-1.34.55c-.58,0-1.72,0-2.8-.12a1.87,1.87,0,0,0-.18-.63c1.26.09,2.46.11,2.89.11s.64,0,.84-.29a4.31,4.31,0,0,0,.61-2l-13.27,0h-.45c.3-1.4.64-3.37.95-5.43H550v-.66Zm13.16.66H554c-.28,1.79-.55,3.49-.8,4.8h13C566.33,16.8,566.45,15.23,566.56,13.13ZM554.72,7.78l-.66,4.69H566.6l.19-4.69Zm2.56,5.91A21.92,21.92,0,0,1,562.19,17l-.41.56a22.48,22.48,0,0,0-4.94-3.37Zm.88-5.25a18.22,18.22,0,0,1,4.57,2.79l-.45.52a18.18,18.18,0,0,0-4.57-2.83Z" transform="translate(-1.13 -0.99)"/><path d="M588.65,1.26a17.26,17.26,0,0,1-1.69,2h6.95l.16,0,.43.31c-2.88,4.85-9.67,8.11-14.93,9.33a2.64,2.64,0,0,0-.38-.65,29.76,29.76,0,0,0,8.47-3.24,16.18,16.18,0,0,0-3.38-2.26l.46-.46a17.74,17.74,0,0,1,3.55,2.33,16.51,16.51,0,0,0,5.14-4.66h-7.15a23.93,23.93,0,0,1-5.67,3.85,2.78,2.78,0,0,0-.49-.48,19.63,19.63,0,0,0,7.74-6.16Zm3.65,7.68a18.81,18.81,0,0,1-1.61,1.88h6.95l.16-.05.41.32c-3.15,6.52-11.23,9.42-18.59,10.44a2.87,2.87,0,0,0-.32-.66A32.72,32.72,0,0,0,591,17.39a24,24,0,0,0-3.24-2.86l.55-.34A30.87,30.87,0,0,1,591.6,17a14.64,14.64,0,0,0,5.61-5.54H590a25.26,25.26,0,0,1-7.49,4.71,2.72,2.72,0,0,0-.48-.48,21.64,21.64,0,0,0,9.47-6.93Z" transform="translate(-1.13 -0.99)"/><path d="M626.76,10.71v.74h-20.5v-.74Z" transform="translate(-1.13 -0.99)"/><path d="M645.57,1.38l-.55.83c2.24,3.47,5.55,6.12,10,8.5a1.77,1.77,0,0,0-.5.52,27.34,27.34,0,0,1-9.83-8.5A28.38,28.38,0,0,1,635,11.18a3.48,3.48,0,0,0-.53-.47A27.16,27.16,0,0,0,645,1.1ZM645,7.13V21.51h-.68V7.13Z" transform="translate(-1.13 -0.99)"/><path class="cls-6" d="M679.84,14c0-3.9,2.49-6.3,5.14-6.3s4.5,2,4.5,5.51a6,6,0,0,1,0,.81H680.7c0,3.15,1.83,5.46,4.64,5.46a5.29,5.29,0,0,0,3.28-1.09l.36.7a6.4,6.4,0,0,1-3.69,1.14C682.28,20.22,679.84,17.88,679.84,14Zm8.85-.73c0-3.23-1.47-4.82-3.71-4.82s-4,1.81-4.28,4.82Z" transform="translate(-1.13 -0.99)"/><path class="cls-6" d="M692.7,18.59V1.94h.81V18.72c0,.5.18.75.5.75a1.85,1.85,0,0,0,.43,0l.16.71a2.73,2.73,0,0,1-.68.09C693.15,20.22,692.7,19.74,692.7,18.59Z" transform="translate(-1.13 -0.99)"/><path class="cls-6" d="M697.27,14c0-3.9,2.49-6.3,5.14-6.3s4.5,2,4.5,5.51a6,6,0,0,1,0,.81h-8.74c0,3.15,1.83,5.46,4.64,5.46a5.29,5.29,0,0,0,3.28-1.09l.37.7a6.46,6.46,0,0,1-3.7,1.14C699.71,20.22,697.27,17.88,697.27,14Zm8.85-.73c0-3.23-1.47-4.82-3.71-4.82s-4,1.81-4.28,4.82Z" transform="translate(-1.13 -0.99)"/><path class="cls-6" d="M710.29,8H711l.14,1.9h0a5.55,5.55,0,0,1,3.78-2.2,3,3,0,0,1,3.28,2.5c1.4-1.54,2.74-2.5,4.1-2.5,2.33,0,3.53,1.48,3.53,4.56v7.67h-.79V12.36c0-2.63-.91-3.92-2.83-3.92-1.18,0-2.36.79-3.76,2.36v9.12h-.79V12.36c0-2.63-.89-3.92-2.81-3.92-1.16,0-2.4.79-3.76,2.36v9.12h-.81Z" transform="translate(-1.13 -0.99)"/><path class="cls-6" d="M729.37,14c0-3.9,2.49-6.3,5.14-6.3s4.5,2,4.5,5.51a6,6,0,0,1,0,.81h-8.74c0,3.15,1.83,5.46,4.64,5.46a5.29,5.29,0,0,0,3.28-1.09l.37.7a6.45,6.45,0,0,1-3.69,1.14C731.81,20.22,729.37,17.88,729.37,14Zm8.85-.73c0-3.23-1.47-4.82-3.71-4.82s-4,1.81-4.28,4.82Z" transform="translate(-1.13 -0.99)"/><path class="cls-6" d="M742.23,8h.68l.13,1.9h.05c1.22-1.24,2.46-2.2,4.12-2.2,2.44,0,3.6,1.48,3.6,4.56v7.67H750V12.36c0-2.63-.83-3.92-2.87-3.92-1.47,0-2.56.79-4.08,2.36v9.12h-.81Z" transform="translate(-1.13 -0.99)"/><path class="cls-6" d="M755.65,16.75v-8h-1.9V8.1l1.9-.11.09-3.49h.7V8H760v.75h-3.54v8.12c0,1.54.34,2.61,2.09,2.61a3.93,3.93,0,0,0,1.51-.39l.28.68a7.07,7.07,0,0,1-1.86.46C756.24,20.22,755.65,18.83,755.65,16.75Z" transform="translate(-1.13 -0.99)"/><path d="M789,16.84l0,.64c-3.55.77-7.27,1.6-9.78,2.15l-.16-.68ZM790.52,5c-.07-1.24-.12-2.53-.14-3.87h.73c0,1.34,0,2.63.11,3.87h7.06V5.7h-7a45.17,45.17,0,0,0,1.45,9.51,23.88,23.88,0,0,0,3.83-7.36l.63.18A24.87,24.87,0,0,1,792.92,16c1,3.1,2.42,4.87,4.12,4.87.81,0,1.09-1.2,1.24-4.4a1.75,1.75,0,0,0,.64.32c-.18,3.53-.54,4.76-1.9,4.76-2,0-3.51-1.86-4.6-5a21.67,21.67,0,0,1-6.11,4.8c-.1-.14-.34-.41-.48-.57a19.7,19.7,0,0,0,6.34-5A47.22,47.22,0,0,1,790.54,5.7H779.22V5ZM788,8.28V14.9h-7.22V8.28Zm-6.54,6h5.86V9h-5.86ZM793.21,1.31a18,18,0,0,1,4.35,2.56l-.39.54a18.6,18.6,0,0,0-4.34-2.67Z" transform="translate(-1.13 -0.99)"/><path class="cls-6" d="M551.23,40.5h.68L552,42h.05a7,7,0,0,1,4.1-1.83c3.24,0,4.8,2.4,4.8,6.09,0,4.05-2.45,6.43-5.3,6.43A6.37,6.37,0,0,1,552,51.24v6.7h-.81Zm8.9,5.8c0-3-1.09-5.34-4-5.34-1.22,0-2.56.74-4.08,2.06v7.36a6.13,6.13,0,0,0,3.72,1.6C558.29,52,560.13,49.63,560.13,46.3Z" transform="translate(-1.13 -0.99)"/><path class="cls-6" d="M563.23,51.1l.52-.66A5.5,5.5,0,0,0,567.62,52c2,0,3-1.15,3-2.51,0-1.56-1.58-2.27-3-2.76-1.81-.66-3.76-1.34-3.76-3.4,0-1.65,1.29-3.1,3.76-3.1A5.33,5.33,0,0,1,571,41.43l-.48.61A4.53,4.53,0,0,0,567.6,41c-2,0-2.88,1.13-2.88,2.3,0,1.43,1.36,2,2.79,2.52,1.9.72,4,1.31,4,3.64,0,1.77-1.38,3.31-3.9,3.31A6.83,6.83,0,0,1,563.23,51.1Z" transform="translate(-1.13 -0.99)"/><path class="cls-6" d="M573.59,46.5c0-3.89,2.5-6.29,5.15-6.29s4.5,2,4.5,5.5a6.13,6.13,0,0,1,0,.82h-8.74c0,3.14,1.83,5.45,4.64,5.45a5.37,5.37,0,0,0,3.28-1.08l.36.7a6.48,6.48,0,0,1-3.69,1.13C576,52.73,573.59,50.4,573.59,46.5Zm8.86-.72c0-3.24-1.47-4.82-3.71-4.82s-4,1.81-4.28,4.82Z" transform="translate(-1.13 -0.99)"/><path class="cls-6" d="M586.41,48.18V40.5h.81v7.59c0,2.62.84,3.89,2.86,3.89,1.47,0,2.58-.79,4-2.56V40.5H595V52.44h-.71l-.09-2h0c-1.2,1.38-2.45,2.33-4.1,2.33C587.56,52.73,586.41,51.28,586.41,48.18Z" transform="translate(-1.13 -0.99)"/><path class="cls-6" d="M598.72,46.5c0-3.85,2.45-6.29,5.35-6.29a5.61,5.61,0,0,1,3.67,1.49l-.07-2.24v-5h.81v18h-.68l-.11-1.59h0a5.71,5.71,0,0,1-4,1.88C600.67,52.73,598.72,50.53,598.72,46.5Zm8.95,3.42V42.59A5.23,5.23,0,0,0,604,41c-2.51,0-4.44,2.46-4.44,5.54,0,3.26,1.5,5.48,4.15,5.48A5.68,5.68,0,0,0,607.67,49.92Z" transform="translate(-1.13 -0.99)"/><path class="cls-6" d="M612.26,46.5c0-4,2.45-6.29,5.3-6.29s5.3,2.28,5.3,6.29-2.45,6.23-5.3,6.23S612.26,50.44,612.26,46.5Zm9.76,0c0-3.28-1.92-5.54-4.46-5.54s-4.44,2.26-4.44,5.54S615,52,617.56,52,622,49.76,622,46.5Z" transform="translate(-1.13 -0.99)"/><path class="cls-6" d="M625.3,45.85h5.42v.79H625.3Z" transform="translate(-1.13 -0.99)"/><path class="cls-6" d="M633,46.5c0-3.89,2.49-6.29,5.14-6.29s4.51,2,4.51,5.5a4.92,4.92,0,0,1,0,.82h-8.74c0,3.14,1.83,5.45,4.64,5.45a5.4,5.4,0,0,0,3.29-1.08l.36.7a6.53,6.53,0,0,1-3.69,1.13C635.45,52.73,633,50.4,633,46.5Zm8.85-.72c0-3.24-1.47-4.82-3.71-4.82s-4,1.81-4.28,4.82Z" transform="translate(-1.13 -0.99)"/><path class="cls-6" d="M645.86,51.1V34.46h.81V51.24c0,.49.19.74.5.74a2.29,2.29,0,0,0,.43,0l.16.7a2.66,2.66,0,0,1-.68.09C646.31,52.73,645.86,52.25,645.86,51.1Z" transform="translate(-1.13 -0.99)"/><path class="cls-6" d="M650.43,46.5c0-3.89,2.49-6.29,5.14-6.29s4.51,2,4.51,5.5a4.92,4.92,0,0,1-.05.82h-8.74c0,3.14,1.84,5.45,4.64,5.45a5.4,5.4,0,0,0,3.29-1.08l.36.7a6.5,6.5,0,0,1-3.69,1.13C652.88,52.73,650.43,50.4,650.43,46.5Zm8.86-.72c0-3.24-1.48-4.82-3.72-4.82s-4,1.81-4.28,4.82Z" transform="translate(-1.13 -0.99)"/><path class="cls-6" d="M663.45,40.5h.68l.13,1.9h0a5.57,5.57,0,0,1,3.78-2.19,3,3,0,0,1,3.28,2.49c1.41-1.54,2.74-2.49,4.1-2.49,2.34,0,3.54,1.47,3.54,4.55v7.68h-.8V44.87c0-2.62-.9-3.91-2.83-3.91-1.17,0-2.35.79-3.76,2.35v9.13h-.79V44.87c0-2.62-.88-3.91-2.81-3.91-1.15,0-2.4.79-3.76,2.35v9.13h-.81Z" transform="translate(-1.13 -0.99)"/><path class="cls-6" d="M682.53,46.5c0-3.89,2.49-6.29,5.14-6.29s4.51,2,4.51,5.5a4.92,4.92,0,0,1,0,.82h-8.74c0,3.14,1.84,5.45,4.65,5.45a5.4,5.4,0,0,0,3.28-1.08l.36.7A6.5,6.5,0,0,1,688,52.73C685,52.73,682.53,50.4,682.53,46.5Zm8.86-.72c0-3.24-1.48-4.82-3.72-4.82s-4,1.81-4.28,4.82Z" transform="translate(-1.13 -0.99)"/><path class="cls-6" d="M695.55,40.5h.68l.13,1.9h0c1.22-1.24,2.47-2.19,4.12-2.19,2.45,0,3.6,1.47,3.6,4.55v7.68h-.81V44.87c0-2.62-.84-3.91-2.88-3.91-1.47,0-2.56.79-4.08,2.35v9.13h-.81Z" transform="translate(-1.13 -0.99)"/><path class="cls-6" d="M708.79,49.27v-8h-1.9v-.63l1.9-.12.09-3.48h.7V40.5h3.54v.75h-3.54v8.13c0,1.54.34,2.6,2.09,2.6a4.1,4.1,0,0,0,1.51-.38l.28.68a7,7,0,0,1-1.86.45C709.38,52.73,708.79,51.35,708.79,49.27Z" transform="translate(-1.13 -0.99)"/><path d="M722.15,53.59a4.38,4.38,0,0,0,2.78-4,1.47,1.47,0,0,1-.54.1,1.1,1.1,0,0,1-1.22-1.2,1.13,1.13,0,0,1,1.2-1.23c.93,0,1.42.84,1.42,2.11a5.07,5.07,0,0,1-3.35,4.78Z" transform="translate(-1.13 -0.99)"/><path d="M760.74,33.89l-.54.84c2.24,3.46,5.55,6.11,10,8.49a1.77,1.77,0,0,0-.5.52,27.23,27.23,0,0,1-9.83-8.49,28.29,28.29,0,0,1-9.74,8.44,3.39,3.39,0,0,0-.52-.47,27.14,27.14,0,0,0,10.58-9.6Zm-.54,5.75V54h-.68V39.64Z" transform="translate(-1.13 -0.99)"/><path d="M785.11,33.89A30.32,30.32,0,0,1,782.59,39V54h-.65V40a26.48,26.48,0,0,1-3.06,3.83,2.83,2.83,0,0,0-.5-.55,27.59,27.59,0,0,0,6.09-9.55Zm7.65,18.5a109.38,109.38,0,0,0,2.51-11.91l.73.16c-.64,3.55-1.66,8.53-2.54,11.75h5.48v.66h-14.2v-.66Zm5.09-14.33v.65h-12v-.65Zm-9.71,2.69a89.73,89.73,0,0,1,1.81,10l-.7.21a79.23,79.23,0,0,0-1.74-10Zm3.12-7.11a28,28,0,0,1,1.16,3.6l-.66.23a24.48,24.48,0,0,0-1.11-3.63Z" transform="translate(-1.13 -0.99)"/><path d="M553,81.4v-9h-2.78v-.66H553V66.34h.68v5.44h2.56v.66h-2.56v8.69l2.65-1,.11.66-6.16,2.4-.25-.68C550.89,82.22,551.93,81.83,553,81.4Zm11.55-12a22.57,22.57,0,0,0,2.15-3.35l.66.34c-.61,1-1.38,2.15-2.06,3H569v7.13H557.39V69.45ZM558,75.92h4.9V70.1H558Zm9.74,2.54v8h-.65V85.32h-7.79v1.09h-.68v-8Zm-8-12.18a11.35,11.35,0,0,1,1.7,2.42l-.61.34a16.26,16.26,0,0,0-1.63-2.51Zm.07,4.77a12.71,12.71,0,0,1,1.86,3.27l-.59.29a13,13,0,0,0-1.81-3.33Zm7.32,10.62V79.12h-7.79v2.55Zm-7.79,3h7.79V82.33h-7.79Zm4.25-8.74h4.74V70.1h-4.74Zm3.72-4.57a31.37,31.37,0,0,1-2.34,3.4l-.52-.28A22.62,22.62,0,0,0,566.67,71Z" transform="translate(-1.13 -0.99)"/><path d="M577.17,66.41l0,4.24h5.18v.5c-.15,10.46-.31,13.58-1,14.49a1.37,1.37,0,0,1-1.24.59,24.09,24.09,0,0,1-2.65-.09,1.49,1.49,0,0,0-.2-.68c1.22.09,2.35.09,2.76.09a.72.72,0,0,0,.75-.3c.54-.7.77-4,.95-14h-4.55c-.21,6.16-1,12-4.17,15.27a3.57,3.57,0,0,0-.61-.34c3.17-3.13,3.94-8.93,4.12-14.93h-3.67v-.65h3.69c0-1.41,0-2.83,0-4.24Zm14.77,2.77v17h-.68V84.55h-5.87v1.74h-.68V69.18Zm-.68,14.71V69.83h-5.87V83.89Z" transform="translate(-1.13 -0.99)"/><path d="M596.28,84.19h3.78V70.53h-2.88V70a8.83,8.83,0,0,0,3-1h.7v15.2h3.53v.75h-8.1Z" transform="translate(-1.13 -0.99)"/><line class="cls-4" x1="279.35" y1="166.96" x2="216.49" y2="104.1"/><polygon class="cls-5" points="214.21 108.67 210.79 98.4 221.05 101.83 214.21 108.67 214.21 108.67"/><line class="cls-4" x1="517.28" y1="166.96" x2="580.14" y2="104.1"/><polygon class="cls-5" points="582.42 108.67 585.84 98.4 575.58 101.83 582.42 108.67 582.42 108.67"/></svg>