<svg id="图层_1" data-name="图层 1" xmlns="http://www.w3.org/2000/svg" viewBox="0 0 412.66 127.08"><defs><style>.cls-1,.cls-2,.cls-3,.cls-6{fill:none;}.cls-1,.cls-2,.cls-3{stroke:#000;stroke-miterlimit:10;stroke-width:0.28px;}.cls-2{stroke-dasharray:5.67 5.67;}.cls-3{stroke-dasharray:5.93 5.93;}.cls-4{fill:gray;}.cls-5{fill:red;}.cls-6{stroke:red;stroke-miterlimit:8;stroke-width:0.28px;}</style></defs><title>CSS优先级计算规则</title><path d="M201.76,214c0-17.08,6.51-26.15,16.93-26.15s16.8,9.07,16.8,26.15-6.45,26.57-16.8,26.57S201.76,231.1,201.76,214Zm25.93,0c0-14.53-3.75-19.7-9-19.7s-9.07,5.17-9.07,19.7S213.38,234,218.69,234,227.69,228.54,227.69,214Z" transform="translate(-99.86 -177.02)"/><path d="M266.6,214c0-17.08,6.52-26.15,16.93-26.15s16.8,9.07,16.8,26.15-6.45,26.57-16.8,26.57S266.6,231.1,266.6,214Zm25.93,0c0-14.53-3.75-19.7-9-19.7s-9.07,5.17-9.07,19.7S278.22,234,283.53,234,292.53,228.54,292.53,214Z" transform="translate(-99.86 -177.02)"/><path d="M331.44,214c0-17.08,6.52-26.15,16.94-26.15s16.79,9.07,16.79,26.15-6.45,26.57-16.79,26.57S331.44,231.1,331.44,214Zm25.94,0c0-14.53-3.76-19.7-9-19.7s-9.07,5.17-9.07,19.7S343.06,234,348.38,234,357.38,228.54,357.38,214Z" transform="translate(-99.86 -177.02)"/><polyline class="cls-1" points="268.64 68.17 268.64 71.01 265.81 71.01"/><line class="cls-2" x1="260.14" y1="71.01" x2="104.23" y2="71.01"/><polyline class="cls-1" points="101.39 71.01 98.56 71.01 98.56 68.17"/><line class="cls-3" x1="98.56" y1="62.25" x2="98.56" y2="5.94"/><polyline class="cls-1" points="98.56 2.98 98.56 0.14 101.39 0.14"/><line class="cls-2" x1="107.06" y1="0.14" x2="262.97" y2="0.14"/><polyline class="cls-1" points="265.81 0.14 268.64 0.14 268.64 2.98"/><line class="cls-3" x1="268.64" y1="8.9" x2="268.64" y2="65.21"/><path class="cls-4" d="M103.83,199.17c-.21.49-.44,1-.69,1.42h9.16v.64h-9.53a15.27,15.27,0,0,1-2.3,3c-.14-.1-.43-.32-.61-.42a13.79,13.79,0,0,0,3.29-4.83Zm-1.8,7c.16-1.15.32-2.32.43-3.29h8.42s0,.29,0,.39l-.12,2.9h2v.63h-2c0,1.14-.11,2-.18,2.71h1.79v.62h-1.88a3.36,3.36,0,0,1-.42,1.44,1.15,1.15,0,0,1-.91.41c-.4,0-1.1,0-1.8-.06a1.42,1.42,0,0,0-.17-.58c.77.06,1.48.07,1.74.07s.4,0,.53-.2a2.44,2.44,0,0,0,.34-1.08h-8.41c.19-.86.39-2.06.58-3.32h-2v-.63Zm8,.62h-7.45c-.15,1-.29,1.94-.43,2.72h7.66C109.93,208.81,110,207.92,110.06,206.76Zm-7-3.26-.35,2.65h7.39l.11-2.65ZM104.7,207a12.85,12.85,0,0,1,2.92,1.93l-.4.5a13,13,0,0,0-2.93-2Zm.47-3.22a10.68,10.68,0,0,1,2.75,1.68l-.43.46a11.14,11.14,0,0,0-2.73-1.71Z" transform="translate(-99.86 -177.02)"/><path class="cls-4" d="M120.79,199.22a14.59,14.59,0,0,1-1,1.15h4.08l.14-.05.44.3c-1.8,3.08-6,5.06-9.47,5.84a2.48,2.48,0,0,0-.35-.64,19.14,19.14,0,0,0,5.1-1.81,11.29,11.29,0,0,0-1.94-1.35l.48-.38a12.29,12.29,0,0,1,2.06,1.37,9.92,9.92,0,0,0,3.07-2.66h-4.28a15.21,15.21,0,0,1-3.47,2.27,2,2,0,0,0-.48-.48,12.55,12.55,0,0,0,4.86-3.72Zm2.29,4.86a11,11,0,0,1-1,1.13h4l.14,0,.45.3c-2,4.14-7,5.88-11.73,6.49a3,3,0,0,0-.3-.65,20.79,20.79,0,0,0,7.1-2,14.65,14.65,0,0,0-1.89-1.64l.56-.34a17.88,17.88,0,0,1,2,1.63,8.75,8.75,0,0,0,3.29-3.15h-4.24a16.22,16.22,0,0,1-4.59,2.78,2.14,2.14,0,0,0-.45-.51,13.26,13.26,0,0,0,5.94-4.2Z" transform="translate(-99.86 -177.02)"/><path class="cls-4" d="M141.13,205v.75H128.24V205Z" transform="translate(-99.86 -177.02)"/><path class="cls-4" d="M149.57,199.35l-.37.56a16.91,16.91,0,0,0,6.16,5,1.75,1.75,0,0,0-.5.58,18.17,18.17,0,0,1-6-5,17.34,17.34,0,0,1-6,5,2.53,2.53,0,0,0-.51-.58,16.25,16.25,0,0,0,6.65-5.84Zm-.41,3.65V212h-.69V203Z" transform="translate(-99.86 -177.02)"/><path class="cls-5" d="M166.14,200.88a.65.65,0,1,1,.65.69A.63.63,0,0,1,166.14,200.88Zm.23,2.45h.82v7.57h-.82Z" transform="translate(-99.86 -177.02)"/><path class="cls-5" d="M169.39,207.13c0-2.44,1.55-4,3.34-4a3.29,3.29,0,0,1,2.24.93l0-1.38v-3.06h.83V210.9h-.69l-.09-1h0a3.49,3.49,0,0,1-2.44,1.15C170.62,211.08,169.39,209.68,169.39,207.13Zm5.54,2V204.8a3,3,0,0,0-2.13-.93c-1.43,0-2.54,1.4-2.54,3.26s.87,3.23,2.4,3.23A3.16,3.16,0,0,0,174.93,209.17Z" transform="translate(-99.86 -177.02)"/><path class="cls-4" d="M178,211.64a2.6,2.6,0,0,0,1.75-2.33,1,1,0,0,1-.29,0,.79.79,0,0,1-.88-.86.83.83,0,0,1,.88-.87c.66,0,1,.57,1,1.45a3.26,3.26,0,0,1-2.24,3.09Z" transform="translate(-99.86 -177.02)"/><path class="cls-4" d="M105.29,217.13a23.35,23.35,0,0,0,.53-2.42h-5.67V214h12.32v.67h-5.89c-.18.79-.39,1.7-.59,2.42h5v9h-.69v-1h-7.69v1h-.69v-9Zm5,3.67v-3h-7.69v3Zm-7.69,3.73h7.69v-3.09h-7.69Z" transform="translate(-99.86 -177.02)"/><path class="cls-4" d="M118.32,213.49a19.8,19.8,0,0,1-1.52,3.1v9.5h-.68v-8.43a15.35,15.35,0,0,1-1.7,2.11,3.94,3.94,0,0,0-.44-.62,16.93,16.93,0,0,0,3.7-5.86ZM123,224.86a61.56,61.56,0,0,0,1.49-7.3l.72.14c-.39,2.2-1,5.19-1.53,7.16h3.22v.66H118v-.66Zm3.26-8.92v.65h-7.61v-.65Zm-6,1.76a56.65,56.65,0,0,1,1.11,6.14l-.7.21a54.36,54.36,0,0,0-1-6.21Zm2-4.49a17.44,17.44,0,0,1,.72,2.24l-.68.21a16.68,16.68,0,0,0-.68-2.27Z" transform="translate(-99.86 -177.02)"/><path class="cls-4" d="M130,222.77V217.4h-1.66v-.65H130v-3.36h.67v3.36h1.53v.65h-1.53v5.12l1.56-.6.11.64c-1.38.55-2.79,1.11-3.9,1.53l-.23-.68C128.75,223.26,129.37,223,130,222.77Zm7.36-7.45a12.5,12.5,0,0,0,1.27-2.1l.7.28c-.39.6-.84,1.29-1.26,1.82h2.16v4.55h-7.39v-4.55Zm-3.92,4h2.84v-3.45h-2.84Zm6.07,1.61v5.13h-.66v-.68h-4.58v.68h-.66v-5.13Zm-5-7.62a8,8,0,0,1,1,1.54l-.61.31a9.27,9.27,0,0,0-1-1.6Zm0,3.07a7.49,7.49,0,0,1,1.11,2l-.48.22a8,8,0,0,0-1.07-2.06Zm4.33,6.56v-1.43h-4.58v1.43Zm-4.58,1.86h4.58v-1.29h-4.58Zm2.59-5.48h2.75v-3.45H136.9Zm2.24-2.71a17.45,17.45,0,0,1-1.39,2.08l-.41-.2a15.21,15.21,0,0,0,1.28-2.11Z" transform="translate(-99.86 -177.02)"/><path class="cls-4" d="M145.39,213.42l0,2.59h3.22v.41c-.1,6.45-.2,8.45-.65,9a1,1,0,0,1-.84.46,11.18,11.18,0,0,1-1.67,0,1.61,1.61,0,0,0-.2-.68c.72.06,1.39.06,1.64.06a.46.46,0,0,0,.47-.2c.33-.42.47-2.46.57-8.36h-2.55c-.13,3.85-.61,7.4-2.58,9.47a2.51,2.51,0,0,0-.57-.43c1.91-1.93,2.37-5.36,2.48-9h-2.15V216h2.17l0-2.59Zm9.2,1.67v10.76h-.68v-1h-3.3V226h-.67V215.09Zm-.68,9.13v-8.46h-3.3v8.46Z" transform="translate(-99.86 -177.02)"/><path class="cls-4" d="M157.21,224.35h2.35v-8.1h-1.83v-.55a5.51,5.51,0,0,0,2-.67h.67v9.32h2.15v.72h-5.33Z" transform="translate(-99.86 -177.02)"/><path class="cls-4" d="M387.3,192.09c-.21.48-.44.95-.7,1.42h9.16v.63h-9.52a15.06,15.06,0,0,1-2.3,3c-.14-.1-.44-.31-.61-.41a14.06,14.06,0,0,0,3.29-4.84Zm-1.8,7c.15-1.15.31-2.31.42-3.29h8.42s0,.3,0,.4l-.11,2.89h2v.64h-2c-.06,1.13-.12,2-.19,2.7h1.79V203h-1.87a3.41,3.41,0,0,1-.43,1.43,1.12,1.12,0,0,1-.9.41c-.4,0-1.11,0-1.8-.06a1.82,1.82,0,0,0-.17-.58c.76.06,1.47.07,1.74.07s.4,0,.52-.19a2.55,2.55,0,0,0,.34-1.08l-8,0h-.41c.18-.86.38-2.05.58-3.31h-2v-.64Zm8,.62h-7.44c-.16,1-.3,1.94-.44,2.72h7.67C393.39,201.73,393.46,200.83,393.52,199.67Zm-7-3.26-.36,2.65h7.39l.11-2.65Zm1.64,3.47a13.56,13.56,0,0,1,2.92,1.93l-.39.5a13.11,13.11,0,0,0-2.94-2Zm.47-3.21a10.67,10.67,0,0,1,2.75,1.67l-.42.47a11.11,11.11,0,0,0-2.74-1.72Z" transform="translate(-99.86 -177.02)"/><path class="cls-4" d="M404.25,192.13a11.55,11.55,0,0,1-1,1.15h4.09l.14,0,.44.29c-1.8,3.08-6,5.07-9.47,5.84a2.45,2.45,0,0,0-.36-.63,19.12,19.12,0,0,0,5.11-1.82,11.09,11.09,0,0,0-1.94-1.34l.48-.39a11.28,11.28,0,0,1,2,1.38,10.24,10.24,0,0,0,3.08-2.67h-4.28a15,15,0,0,1-3.48,2.27,2.19,2.19,0,0,0-.48-.48,12.46,12.46,0,0,0,4.86-3.71Zm2.3,4.86a12.42,12.42,0,0,1-1,1.14h4l.14,0,.46.3c-2,4.14-7,5.89-11.74,6.49a2.73,2.73,0,0,0-.3-.65,20.88,20.88,0,0,0,7.1-1.95,13.87,13.87,0,0,0-1.88-1.65l.55-.34a18,18,0,0,1,2,1.63,8.8,8.8,0,0,0,3.29-3.14h-4.24a16.27,16.27,0,0,1-4.6,2.77,2.12,2.12,0,0,0-.45-.51,13.26,13.26,0,0,0,5.94-4.19Z" transform="translate(-99.86 -177.02)"/><path class="cls-4" d="M424.59,197.9v.75H411.7v-.75Z" transform="translate(-99.86 -177.02)"/><path class="cls-4" d="M433,192.26l-.37.57a16.85,16.85,0,0,0,6.15,5,2.16,2.16,0,0,0-.5.58,18.11,18.11,0,0,1-6-5,17.6,17.6,0,0,1-6,5,2.15,2.15,0,0,0-.51-.58,16.26,16.26,0,0,0,6.65-5.84Zm-.41,3.66v8.94h-.7v-8.94Z" transform="translate(-99.86 -177.02)"/><path class="cls-5" d="M443.51,200c0-2.47,1.62-4,3.32-4s2.92,1.3,2.92,3.51a4.18,4.18,0,0,1-.05.61h-5.35c0,1.83,1.13,3.12,2.76,3.12a3.32,3.32,0,0,0,2-.65l.33.61a4.24,4.24,0,0,1-2.4.74C445.08,204,443.51,202.52,443.51,200Zm5.47-.52c0-1.83-.82-2.75-2.15-2.75a2.68,2.68,0,0,0-2.48,2.75Z" transform="translate(-99.86 -177.02)"/><path class="cls-5" d="M451.76,202.69V192.54h.82v10.24c0,.34.14.49.34.49a1.21,1.21,0,0,0,.27,0l.13.67a1.75,1.75,0,0,1-.56.09C452.08,204,451.76,203.57,451.76,202.69Z" transform="translate(-99.86 -177.02)"/><path class="cls-5" d="M454.91,200c0-2.47,1.61-4,3.31-4s2.92,1.3,2.92,3.51a4.17,4.17,0,0,1,0,.61h-5.36c0,1.83,1.14,3.12,2.77,3.12a3.29,3.29,0,0,0,2-.65l.33.61a4.24,4.24,0,0,1-2.4.74C456.48,204,454.91,202.52,454.91,200Zm5.47-.52c0-1.83-.83-2.75-2.16-2.75s-2.32,1-2.48,2.75Z" transform="translate(-99.86 -177.02)"/><path class="cls-5" d="M463.15,196.24h.68l.1,1.16h0a3.48,3.48,0,0,1,2.38-1.34,1.94,1.94,0,0,1,2.09,1.53,3.7,3.7,0,0,1,2.56-1.53c1.51,0,2.26,1,2.26,2.92v4.83h-.83v-4.72c0-1.56-.52-2.3-1.63-2.3a3.2,3.2,0,0,0-2.18,1.37v5.65h-.82v-4.72c0-1.56-.51-2.3-1.63-2.3a3.18,3.18,0,0,0-2.18,1.37v5.65h-.83Z" transform="translate(-99.86 -177.02)"/><path class="cls-5" d="M475.34,200c0-2.47,1.62-4,3.32-4s2.92,1.3,2.92,3.51a4.17,4.17,0,0,1,0,.61h-5.36c0,1.83,1.13,3.12,2.76,3.12a3.3,3.3,0,0,0,2-.65l.33.61a4.24,4.24,0,0,1-2.4.74C476.92,204,475.34,202.52,475.34,200Zm5.47-.52c0-1.83-.82-2.75-2.15-2.75a2.68,2.68,0,0,0-2.48,2.75Z" transform="translate(-99.86 -177.02)"/><path class="cls-5" d="M483.59,196.24h.68l.1,1.16h0a3.67,3.67,0,0,1,2.58-1.34c1.57,0,2.3,1,2.3,2.92v4.83h-.83v-4.72c0-1.56-.49-2.3-1.67-2.3-.86,0-1.49.46-2.37,1.37v5.65h-.82Z" transform="translate(-99.86 -177.02)"/><path class="cls-5" d="M492.17,201.67V197H491v-.62l1.19-.09.1-2.17h.7v2.17h2.17V197H493v4.78c0,1,.25,1.56,1.26,1.56a2.27,2.27,0,0,0,.92-.23l.2.65a4.17,4.17,0,0,1-1.26.29C492.62,204,492.17,203.06,492.17,201.67Z" transform="translate(-99.86 -177.02)"/><path class="cls-4" d="M506.11,201.77l.06.65L500,203.77l-.14-.7C501.39,202.76,503.79,202.27,506.11,201.77Zm.87-7.41c0-.77-.06-1.55-.07-2.36h.73c0,.81,0,1.6.06,2.36h4.37V195h-4.33a29.49,29.49,0,0,0,.84,5.57,15.15,15.15,0,0,0,2.17-4.35l.67.17a16.32,16.32,0,0,1-2.6,5c.6,1.76,1.38,2.78,2.28,2.78.47,0,.64-.76.73-2.71a2.32,2.32,0,0,0,.62.37c-.14,2.29-.44,3-1.39,3-1.18,0-2.1-1.08-2.76-2.85a13.53,13.53,0,0,1-3.49,2.79,6.39,6.39,0,0,0-.51-.55,12.05,12.05,0,0,0,3.74-3,29.51,29.51,0,0,1-1-6.25h-7v-.68Zm-1.42,2.15v4.21h-4.69v-4.21Zm-4,3.59h3.34v-3h-3.34Zm7.49-8a11,11,0,0,1,2.61,1.55l-.41.51a11.21,11.21,0,0,0-2.59-1.63Z" transform="translate(-99.86 -177.02)"/><path class="cls-5" d="M384.09,210.41h.69l.09.94h0a4.29,4.29,0,0,1,2.53-1.12c2,0,3,1.52,3,3.86,0,2.58-1.56,4.08-3.33,4.08a3.78,3.78,0,0,1-2.23-.92l0,1.39v2.7h-.83Zm5.49,3.69c0-1.83-.64-3.15-2.31-3.15a3.86,3.86,0,0,0-2.35,1.19v4.38a3.4,3.4,0,0,0,2.15.93C388.52,217.45,389.58,216.11,389.58,214.1Z" transform="translate(-99.86 -177.02)"/><path class="cls-5" d="M392,217.13l.45-.59a3.46,3.46,0,0,0,2.36.93c1.16,0,1.74-.63,1.74-1.41s-1-1.31-1.83-1.62c-1.1-.41-2.31-.86-2.31-2.17,0-1.1.88-2,2.48-2a3.48,3.48,0,0,1,2.2.81l-.43.57a2.8,2.8,0,0,0-1.78-.69c-1.12,0-1.65.63-1.65,1.31s.83,1.15,1.71,1.47c1.16.44,2.42.85,2.42,2.31,0,1.17-.91,2.16-2.58,2.16A4.45,4.45,0,0,1,392,217.13Z" transform="translate(-99.86 -177.02)"/><path class="cls-5" d="M398.92,214.21c0-2.46,1.61-4,3.32-4s2.92,1.3,2.92,3.52a4.3,4.3,0,0,1-.05.61h-5.36c.05,1.82,1.14,3.11,2.77,3.11a3.32,3.32,0,0,0,2-.65l.32.61a4.21,4.21,0,0,1-2.39.74C400.49,218.17,398.92,216.69,398.92,214.21Zm5.47-.52c0-1.83-.82-2.75-2.15-2.75a2.7,2.7,0,0,0-2.49,2.75Z" transform="translate(-99.86 -177.02)"/><path class="cls-5" d="M407.27,215.25v-4.84h.84v4.74c0,1.56.48,2.28,1.64,2.28.87,0,1.51-.45,2.36-1.47v-5.55h.83V218h-.7l-.08-1.24h0a3.39,3.39,0,0,1-2.57,1.43C408,218.17,407.27,217.21,407.27,215.25Z" transform="translate(-99.86 -177.02)"/><path class="cls-5" d="M415.36,214.21c0-2.43,1.56-4,3.34-4a3.32,3.32,0,0,1,2.24.92l0-1.37v-3.07h.84V218H421l-.08-1h0a3.51,3.51,0,0,1-2.44,1.15C416.59,218.17,415.36,216.77,415.36,214.21Zm5.54,2v-4.36a3,3,0,0,0-2.13-.94c-1.43,0-2.53,1.41-2.53,3.26s.86,3.24,2.39,3.24A3.14,3.14,0,0,0,420.9,216.25Z" transform="translate(-99.86 -177.02)"/><path class="cls-5" d="M424.17,214.21c0-2.52,1.58-4,3.41-4s3.42,1.46,3.42,4-1.59,4-3.42,4S424.17,216.72,424.17,214.21Zm6,0c0-1.94-1.08-3.26-2.57-3.26s-2.55,1.32-2.55,3.26,1.06,3.24,2.55,3.24S430.15,216.14,430.15,214.21Z" transform="translate(-99.86 -177.02)"/><path class="cls-5" d="M432.79,213.72h3.49v.71h-3.49Z" transform="translate(-99.86 -177.02)"/><path class="cls-5" d="M437.9,214.21c0-2.46,1.62-4,3.32-4s2.92,1.3,2.92,3.52a4.3,4.3,0,0,1-.05.61h-5.35c0,1.82,1.13,3.11,2.76,3.11a3.32,3.32,0,0,0,2-.65l.33.61a4.24,4.24,0,0,1-2.4.74C439.47,218.17,437.9,216.69,437.9,214.21Zm5.47-.52c0-1.83-.82-2.75-2.15-2.75a2.68,2.68,0,0,0-2.48,2.75Z" transform="translate(-99.86 -177.02)"/><path class="cls-5" d="M446.38,216.87V206.71h.82V217c0,.34.15.5.34.5a1.16,1.16,0,0,0,.27,0l.13.66a1.45,1.45,0,0,1-.55.09C446.71,218.17,446.38,217.74,446.38,216.87Z" transform="translate(-99.86 -177.02)"/><path class="cls-5" d="M449.76,214.21c0-2.46,1.62-4,3.32-4s2.92,1.3,2.92,3.52c0,.19,0,.41,0,.61H450.6c0,1.82,1.13,3.11,2.76,3.11a3.32,3.32,0,0,0,2-.65l.33.61a4.24,4.24,0,0,1-2.4.74C451.33,218.17,449.76,216.69,449.76,214.21Zm5.47-.52c0-1.83-.82-2.75-2.15-2.75a2.68,2.68,0,0,0-2.48,2.75Z" transform="translate(-99.86 -177.02)"/><path class="cls-5" d="M458.24,210.41h.68l.1,1.17h0a3.5,3.5,0,0,1,2.38-1.35,2,2,0,0,1,2.09,1.53,3.73,3.73,0,0,1,2.56-1.53c1.51,0,2.26,1,2.26,2.92V218h-.83v-4.72c0-1.56-.52-2.29-1.63-2.29a3.18,3.18,0,0,0-2.18,1.36V218h-.82v-4.72c0-1.56-.51-2.29-1.63-2.29a3.16,3.16,0,0,0-2.18,1.36V218h-.83Z" transform="translate(-99.86 -177.02)"/><path class="cls-5" d="M470.67,214.21c0-2.46,1.61-4,3.31-4s2.92,1.3,2.92,3.52a4.26,4.26,0,0,1,0,.61H471.5c.05,1.82,1.14,3.11,2.77,3.11a3.32,3.32,0,0,0,2-.65l.32.61a4.24,4.24,0,0,1-2.39.74C472.24,218.17,470.67,216.69,470.67,214.21Zm5.47-.52c0-1.83-.82-2.75-2.16-2.75s-2.32,1-2.48,2.75Z" transform="translate(-99.86 -177.02)"/><path class="cls-5" d="M479.15,210.41h.68l.1,1.17h0a3.69,3.69,0,0,1,2.58-1.35c1.57,0,2.29,1,2.29,2.92V218H484v-4.72c0-1.56-.5-2.29-1.67-2.29-.87,0-1.49.45-2.37,1.36V218h-.82Z" transform="translate(-99.86 -177.02)"/><path class="cls-5" d="M488,215.84v-4.72h-1.17v-.62l1.2-.09.09-2.16h.7v2.16H491v.71h-2.17v4.78c0,.95.25,1.56,1.26,1.56a2.27,2.27,0,0,0,.92-.23l.2.65a4.17,4.17,0,0,1-1.26.29C488.41,218.17,488,217.23,488,215.84Z" transform="translate(-99.86 -177.02)"/><path class="cls-4" d="M492.36,218.72a2.6,2.6,0,0,0,1.76-2.32,1,1,0,0,1-.3,0,.8.8,0,0,1-.88-.87.82.82,0,0,1,.88-.86c.66,0,1,.57,1,1.45a3.28,3.28,0,0,1-2.24,3.09Z" transform="translate(-99.86 -177.02)"/><path class="cls-4" d="M506.74,206.43l-.37.57a16.83,16.83,0,0,0,6.15,5,2.33,2.33,0,0,0-.5.58,18,18,0,0,1-6-5,17.49,17.49,0,0,1-6,5,2.31,2.31,0,0,0-.51-.58,16.19,16.19,0,0,0,6.65-5.84Zm-.41,3.66V219h-.7v-8.94Z" transform="translate(-99.86 -177.02)"/><path class="cls-4" d="M387.61,220.58a20.7,20.7,0,0,1-1.52,3.1v9.5h-.68v-8.44a14.87,14.87,0,0,1-1.7,2.12,3.59,3.59,0,0,0-.44-.63,16.89,16.89,0,0,0,3.7-5.85ZM392.3,232a62.15,62.15,0,0,0,1.49-7.31l.72.15c-.39,2.19-1,5.18-1.53,7.16h3.22v.66h-8.9V232Zm3.26-8.92v.65H388V223Zm-6,1.76a57,57,0,0,1,1.11,6.13l-.7.22a54,54,0,0,0-1-6.21Zm2-4.5a18,18,0,0,1,.72,2.24l-.68.22a15.37,15.37,0,0,0-.68-2.27Z" transform="translate(-99.86 -177.02)"/><path class="cls-4" d="M399.33,229.86v-5.37h-1.66v-.65h1.66v-3.36H400v3.36h1.53v.65H400v5.12l1.56-.6.11.64-3.9,1.53-.23-.68C398,230.34,398.67,230.12,399.33,229.86Zm7.36-7.46a12.42,12.42,0,0,0,1.27-2.09l.7.28a20.65,20.65,0,0,1-1.26,1.81h2.17V227h-7.4V222.4Zm-3.91,4h2.83V223h-2.83Zm6.06,1.62v5.13h-.66v-.68H403.6v.68H403V228Zm-5-7.63a8,8,0,0,1,1.05,1.55l-.61.31a8.9,8.9,0,0,0-1-1.6Zm0,3.08a7.35,7.35,0,0,1,1.11,2l-.48.22a8.2,8.2,0,0,0-1.07-2.07Zm4.33,6.56V228.6H403.6V230Zm-4.58,1.86h4.58V230.6H403.6Zm2.59-5.49h2.75V223h-2.75Zm2.24-2.7a18.3,18.3,0,0,1-1.39,2.08l-.41-.2a15.21,15.21,0,0,0,1.28-2.11Z" transform="translate(-99.86 -177.02)"/><path class="cls-4" d="M414.68,220.51l0,2.59h3.22v.41c-.1,6.45-.2,8.45-.65,9a1,1,0,0,1-.84.45,11,11,0,0,1-1.67,0,1.44,1.44,0,0,0-.2-.68c.72.06,1.39.06,1.65.06a.45.45,0,0,0,.46-.2c.33-.43.47-2.47.57-8.36h-2.55c-.13,3.85-.61,7.4-2.58,9.46a2.11,2.11,0,0,0-.57-.42c1.92-1.93,2.37-5.36,2.48-9h-2.15v-.67H414l0-2.59Zm9.2,1.67v10.76h-.68v-1h-3.3V233h-.67V222.18Zm-.68,9.13v-8.47h-3.3v8.47Z" transform="translate(-99.86 -177.02)"/><path class="cls-4" d="M426.5,231.43h2.35v-8.09H427v-.55a5.52,5.52,0,0,0,2-.67h.67v9.31h2.15v.73H426.5Z" transform="translate(-99.86 -177.02)"/><path class="cls-4" d="M231.39,263c-.21.49-.44.95-.69,1.42h9.16V265h-9.53a14.9,14.9,0,0,1-2.3,3c-.14-.09-.44-.31-.61-.41a13.79,13.79,0,0,0,3.29-4.83Zm-1.8,7c.16-1.14.31-2.31.43-3.28h8.42s0,.29,0,.39l-.11,2.89h2v.64h-2c-.05,1.14-.11,2-.18,2.71h1.78v.62H238a3.25,3.25,0,0,1-.42,1.43,1.13,1.13,0,0,1-.91.42c-.4,0-1.11,0-1.8-.06a1.42,1.42,0,0,0-.17-.58c.77.05,1.47.07,1.74.07s.4,0,.53-.2a2.5,2.5,0,0,0,.34-1.08h-8.41c.19-.87.39-2.06.58-3.32h-2v-.64Zm8,.63h-7.45c-.15,1-.29,1.94-.44,2.72h7.67C237.49,272.59,237.56,271.7,237.62,270.54Zm-7-3.26-.35,2.65h7.38l.12-2.65Zm1.65,3.47a12.85,12.85,0,0,1,2.92,1.93l-.4.49a13.36,13.36,0,0,0-2.93-2Zm.47-3.22a10.85,10.85,0,0,1,2.75,1.68l-.43.46a11,11,0,0,0-2.74-1.71Z" transform="translate(-99.86 -177.02)"/><path class="cls-4" d="M248.34,263a11.33,11.33,0,0,1-1,1.14h4.08l.14,0,.44.3c-1.8,3.08-6,5.06-9.47,5.84a2.48,2.48,0,0,0-.35-.64,19.14,19.14,0,0,0,5.1-1.81,10.76,10.76,0,0,0-1.94-1.35l.48-.38a12.29,12.29,0,0,1,2.06,1.37,10,10,0,0,0,3.07-2.66h-4.28A15.79,15.79,0,0,1,243.2,267a2.24,2.24,0,0,0-.48-.49,12.44,12.44,0,0,0,4.86-3.71Zm2.3,4.86a11,11,0,0,1-1,1.13h4l.14,0,.45.3c-2,4.14-7,5.88-11.74,6.49a2.53,2.53,0,0,0-.29-.65,20.79,20.79,0,0,0,7.1-2,14.65,14.65,0,0,0-1.89-1.64l.56-.34a17.88,17.88,0,0,1,2,1.63,8.83,8.83,0,0,0,3.29-3.15H249a16.22,16.22,0,0,1-4.59,2.78,2.14,2.14,0,0,0-.45-.51,13.34,13.34,0,0,0,5.94-4.2Z" transform="translate(-99.86 -177.02)"/><path class="cls-4" d="M268.68,268.77v.75H255.8v-.75Z" transform="translate(-99.86 -177.02)"/><path class="cls-4" d="M277.13,263.12l-.37.57a17,17,0,0,0,6.15,5,1.85,1.85,0,0,0-.49.58,18.17,18.17,0,0,1-6-5,17.34,17.34,0,0,1-6,5,2.8,2.8,0,0,0-.51-.58,16.25,16.25,0,0,0,6.65-5.84Zm-.41,3.66v9H276v-9Z" transform="translate(-99.86 -177.02)"/><path class="cls-5" d="M289.82,270.91c0-2.53,1.63-4,3.5-4a3.21,3.21,0,0,1,2.21.92l-.47.57a2.47,2.47,0,0,0-1.72-.76c-1.51,0-2.66,1.31-2.66,3.26s1.06,3.23,2.65,3.23a2.94,2.94,0,0,0,2-.84l.41.58a3.72,3.72,0,0,1-2.44,1C291.3,274.86,289.82,273.42,289.82,270.91Z" transform="translate(-99.86 -177.02)"/><path class="cls-5" d="M297.51,273.56V263.41h.82v10.23c0,.34.14.5.34.5a1.16,1.16,0,0,0,.27,0l.13.67a1.73,1.73,0,0,1-.55.08C297.84,274.86,297.51,274.44,297.51,273.56Z" transform="translate(-99.86 -177.02)"/><path class="cls-5" d="M300.76,272.76c0-1.66,1.49-2.46,4.8-2.83,0-1.12-.28-2.28-1.71-2.28a4.19,4.19,0,0,0-2.38.86l-.36-.61a5.3,5.3,0,0,1,2.84-1c1.81,0,2.45,1.29,2.45,3v4.79h-.68l-.09-1h-.05a4.23,4.23,0,0,1-2.63,1.15A2,2,0,0,1,300.76,272.76Zm4.8.23v-2.45c-3,.32-4,1-4,2.18s.69,1.43,1.54,1.43A3.68,3.68,0,0,0,305.56,273Z" transform="translate(-99.86 -177.02)"/><path class="cls-5" d="M308.11,273.83l.46-.6a3.42,3.42,0,0,0,2.35.94c1.16,0,1.74-.64,1.74-1.42s-1-1.3-1.83-1.62c-1.1-.41-2.31-.86-2.31-2.17,0-1.1.88-2,2.48-2a3.48,3.48,0,0,1,2.2.81l-.42.57a2.88,2.88,0,0,0-1.79-.68c-1.12,0-1.64.62-1.64,1.3s.82,1.15,1.7,1.48c1.16.44,2.42.85,2.42,2.31,0,1.16-.91,2.15-2.58,2.15A4.53,4.53,0,0,1,308.11,273.83Z" transform="translate(-99.86 -177.02)"/><path class="cls-5" d="M314.52,273.83l.45-.6a3.44,3.44,0,0,0,2.36.94c1.16,0,1.74-.64,1.74-1.42s-1-1.3-1.83-1.62c-1.11-.41-2.31-.86-2.31-2.17,0-1.1.88-2,2.48-2a3.5,3.5,0,0,1,2.2.81l-.43.57a2.87,2.87,0,0,0-1.78-.68c-1.12,0-1.65.62-1.65,1.3s.82,1.15,1.7,1.48c1.17.44,2.43.85,2.43,2.31,0,1.16-.91,2.15-2.58,2.15A4.48,4.48,0,0,1,314.52,273.83Z" transform="translate(-99.86 -177.02)"/><path class="cls-4" d="M333.2,272.64l.06.65-6.14,1.34-.14-.69Zm.87-7.42c0-.76-.06-1.54-.07-2.35h.73c0,.81,0,1.6.06,2.35h4.36v.68h-4.32a28.7,28.7,0,0,0,.84,5.57,14.89,14.89,0,0,0,2.17-4.35l.66.17a16.19,16.19,0,0,1-2.59,5c.59,1.76,1.37,2.78,2.28,2.78.47,0,.64-.75.72-2.71a2.13,2.13,0,0,0,.63.37c-.14,2.3-.44,3-1.39,3-1.18,0-2.1-1.08-2.77-2.85a13.32,13.32,0,0,1-3.48,2.79,6.39,6.39,0,0,0-.51-.55,12.2,12.2,0,0,0,3.74-3,29.4,29.4,0,0,1-1-6.25h-7.05v-.68Zm-1.42,2.16v4.21H328v-4.21Zm-4,3.58H332v-3h-3.35Zm7.5-8a11.18,11.18,0,0,1,2.61,1.55l-.41.51a11.08,11.08,0,0,0-2.6-1.63Z" transform="translate(-99.86 -177.02)"/><path class="cls-5" d="M228.19,281.28h.68l.1.94h0a4.2,4.2,0,0,1,2.52-1.12c2,0,3,1.51,3,3.85,0,2.58-1.55,4.08-3.33,4.08a3.67,3.67,0,0,1-2.22-.92v4.1h-.82Zm5.49,3.69c0-1.83-.64-3.15-2.32-3.15A3.81,3.81,0,0,0,229,283v4.38a3.48,3.48,0,0,0,2.16.92C232.61,288.31,233.68,287,233.68,285Z" transform="translate(-99.86 -177.02)"/><path class="cls-5" d="M236.45,288l.46-.6a3.42,3.42,0,0,0,2.35.94c1.16,0,1.74-.64,1.74-1.42s-1-1.3-1.83-1.61c-1.1-.42-2.31-.87-2.31-2.17,0-1.11.88-2,2.48-2a3.53,3.53,0,0,1,2.2.8l-.42.57a2.88,2.88,0,0,0-1.79-.68c-1.12,0-1.64.62-1.64,1.3,0,.83.82,1.15,1.7,1.48,1.16.44,2.42.85,2.42,2.31,0,1.16-.91,2.15-2.58,2.15A4.47,4.47,0,0,1,236.45,288Z" transform="translate(-99.86 -177.02)"/><path class="cls-5" d="M243.77,285.08c0-2.47,1.61-4,3.31-4s2.92,1.3,2.92,3.51a4.17,4.17,0,0,1,0,.61H244.6c.05,1.83,1.14,3.12,2.77,3.12a3.41,3.41,0,0,0,2-.65l.32.61a4.24,4.24,0,0,1-2.39.73C245.34,289,243.77,287.56,243.77,285.08Zm5.47-.53c0-1.82-.82-2.75-2.16-2.75s-2.32,1-2.48,2.75Z" transform="translate(-99.86 -177.02)"/><path class="cls-5" d="M252.5,286.11v-4.83h.83V286c0,1.56.48,2.29,1.65,2.29.86,0,1.5-.46,2.35-1.48v-5.54h.84v7.57h-.71l-.07-1.25h0a3.39,3.39,0,0,1-2.57,1.43C253.23,289,252.5,288.07,252.5,286.11Z" transform="translate(-99.86 -177.02)"/><path class="cls-5" d="M261,285.08c0-2.44,1.56-4,3.34-4a3.32,3.32,0,0,1,2.24.92l0-1.38v-3.06h.84v11.27h-.7l-.08-1h0a3.52,3.52,0,0,1-2.44,1.14C262.19,289,261,287.63,261,285.08Zm5.54,2v-4.37a3,3,0,0,0-2.13-.93c-1.43,0-2.53,1.4-2.53,3.26s.86,3.23,2.39,3.23A3.16,3.16,0,0,0,266.5,287.12Z" transform="translate(-99.86 -177.02)"/><path class="cls-5" d="M270.14,285.08c0-2.52,1.59-4,3.42-4s3.41,1.46,3.41,4-1.58,3.95-3.41,3.95S270.14,287.59,270.14,285.08Zm6,0c0-1.94-1.07-3.26-2.56-3.26s-2.55,1.32-2.55,3.26,1.06,3.23,2.55,3.23S276.12,287,276.12,285.08Z" transform="translate(-99.86 -177.02)"/><path class="cls-5" d="M279.14,284.58h3.49v.71h-3.49Z" transform="translate(-99.86 -177.02)"/><path class="cls-5" d="M284.63,285.08c0-2.52,1.63-4,3.5-4a3.17,3.17,0,0,1,2.21.92l-.47.56a2.47,2.47,0,0,0-1.71-.76c-1.52,0-2.67,1.32-2.67,3.26s1.06,3.23,2.65,3.23a2.94,2.94,0,0,0,2-.84l.41.59a3.76,3.76,0,0,1-2.44,1C286.12,289,284.63,287.59,284.63,285.08Z" transform="translate(-99.86 -177.02)"/><path class="cls-5" d="M292.93,287.73V277.58h.82v10.24c0,.34.15.49.34.49a1.16,1.16,0,0,0,.27,0l.13.67a1.73,1.73,0,0,1-.55.08C293.26,289,292.93,288.61,292.93,287.73Z" transform="translate(-99.86 -177.02)"/><path class="cls-5" d="M296.79,286.94c0-1.66,1.49-2.47,4.8-2.84,0-1.12-.28-2.28-1.71-2.28a4.25,4.25,0,0,0-2.38.86l-.36-.61a5.3,5.3,0,0,1,2.84-1c1.81,0,2.45,1.29,2.45,3v4.79h-.68l-.09-1h-.05A4.27,4.27,0,0,1,299,289,2,2,0,0,1,296.79,286.94Zm4.8.22v-2.45c-3,.33-4,1-4,2.18a1.35,1.35,0,0,0,1.54,1.44A3.7,3.7,0,0,0,301.59,287.16Z" transform="translate(-99.86 -177.02)"/><path class="cls-5" d="M304.75,288l.46-.6a3.42,3.42,0,0,0,2.35.94c1.16,0,1.74-.64,1.74-1.42s-1-1.3-1.83-1.61c-1.1-.42-2.31-.87-2.31-2.17,0-1.11.88-2,2.48-2a3.53,3.53,0,0,1,2.2.8l-.42.57a2.88,2.88,0,0,0-1.79-.68c-1.12,0-1.64.62-1.64,1.3,0,.83.82,1.15,1.7,1.48,1.16.44,2.42.85,2.42,2.31,0,1.16-.91,2.15-2.58,2.15A4.47,4.47,0,0,1,304.75,288Z" transform="translate(-99.86 -177.02)"/><path class="cls-5" d="M311.77,288l.45-.6a3.44,3.44,0,0,0,2.36.94c1.16,0,1.74-.64,1.74-1.42s-1-1.3-1.83-1.61c-1.11-.42-2.31-.87-2.31-2.17,0-1.11.88-2,2.48-2a3.55,3.55,0,0,1,2.2.8l-.43.57a2.87,2.87,0,0,0-1.78-.68c-1.12,0-1.65.62-1.65,1.3,0,.83.82,1.15,1.7,1.48,1.17.44,2.43.85,2.43,2.31,0,1.16-.91,2.15-2.58,2.15A4.42,4.42,0,0,1,311.77,288Z" transform="translate(-99.86 -177.02)"/><path class="cls-4" d="M319.07,289.59a2.61,2.61,0,0,0,1.76-2.33,1,1,0,0,1-.3,0,.79.79,0,0,1-.88-.86.82.82,0,0,1,.88-.86c.66,0,1,.56,1,1.44a3.26,3.26,0,0,1-2.24,3.09Z" transform="translate(-99.86 -177.02)"/><path class="cls-4" d="M333.46,277v5.4h6v.68h-6v6.78h-.73v-6.78h-5.91v-.68h5.91V277Z" transform="translate(-99.86 -177.02)"/><path class="cls-4" d="M231.71,291.44a21.32,21.32,0,0,1-1.52,3.11V304h-.68v-8.43a16.13,16.13,0,0,1-1.7,2.11,4.73,4.73,0,0,0-.44-.62,17,17,0,0,0,3.7-5.86Zm4.69,11.37a65.85,65.85,0,0,0,1.49-7.3l.72.14c-.4,2.2-1,5.19-1.53,7.16h3.22v.67h-8.91v-.67Zm3.26-8.92v.66h-7.61v-.66Zm-6,1.76a56.79,56.79,0,0,1,1.1,6.14l-.69.21a52.78,52.78,0,0,0-1-6.21Zm1.95-4.49a16.43,16.43,0,0,1,.72,2.24l-.68.21a15.73,15.73,0,0,0-.68-2.27Z" transform="translate(-99.86 -177.02)"/><path class="cls-4" d="M243.43,300.73v-5.38h-1.66v-.65h1.66v-3.36h.66v3.36h1.53v.65h-1.53v5.12l1.56-.59.12.63c-1.38.56-2.8,1.11-3.9,1.53l-.23-.68C242.14,301.21,242.76,301,243.43,300.73Zm7.35-7.46a12.57,12.57,0,0,0,1.28-2.1l.69.29a20,20,0,0,1-1.26,1.81h2.17v4.55h-7.4v-4.55Zm-3.91,4h2.84v-3.45h-2.84Zm6.07,1.61V304h-.67v-.69h-4.58V304H247v-5.14Zm-5-7.62a7.73,7.73,0,0,1,1,1.54l-.61.31a9.17,9.17,0,0,0-1-1.6Zm0,3.07a7.59,7.59,0,0,1,1.1,2l-.48.23a8.31,8.31,0,0,0-1.06-2.07Zm4.32,6.57v-1.44h-4.58v1.44Zm-4.58,1.85h4.58v-1.29h-4.58Zm2.6-5.48H253v-3.45h-2.75Zm2.24-2.71a20.26,20.26,0,0,1-1.39,2.08l-.41-.19a14.86,14.86,0,0,0,1.27-2.12Z" transform="translate(-99.86 -177.02)"/><path class="cls-4" d="M258.78,291.37l0,2.59H262v.42c-.1,6.45-.2,8.45-.66,9a1,1,0,0,1-.83.45,12.57,12.57,0,0,1-1.68,0,1.51,1.51,0,0,0-.19-.68c.72.05,1.39.05,1.64.05a.45.45,0,0,0,.47-.19c.32-.43.47-2.47.57-8.37h-2.56c-.12,3.86-.61,7.4-2.58,9.47a2.25,2.25,0,0,0-.56-.43c1.91-1.92,2.36-5.35,2.48-9h-2.16V294h2.17l0-2.59ZM268,293V303.8h-.68v-1H264v1.07h-.66V293Zm-.68,9.13v-8.46H264v8.46Z" transform="translate(-99.86 -177.02)"/><path class="cls-4" d="M270.6,302.3H273v-8.09h-1.83v-.56a5.46,5.46,0,0,0,2-.66h.67v9.31h2.16V303H270.6Z" transform="translate(-99.86 -177.02)"/><line class="cls-6" x1="104.23" y1="35.57" x2="88.46" y2="35.57"/><polygon class="cls-5" points="89.28 32.75 84.39 35.58 89.28 38.4 89.28 32.75"/><line class="cls-6" x1="183.6" y1="59.67" x2="183.6" y2="81.11"/><polygon class="cls-5" points="180.77 80.29 183.6 85.18 186.43 80.29 180.77 80.29"/><line class="cls-6" x1="262.97" y1="35.57" x2="278.74" y2="35.57"/><polygon class="cls-5" points="277.92 38.4 282.81 35.58 277.92 32.75 277.92 38.4"/></svg>