<svg id="图层_1" data-name="图层 1" xmlns="http://www.w3.org/2000/svg" viewBox="0 0 800.71 237.19"><defs><style>.cls-1{font-size:28.01px;font-family:Calibri, Calibri;}.cls-2{letter-spacing:0em;}.cls-3{letter-spacing:0.01em;}.cls-4{letter-spacing:0em;}.cls-5{letter-spacing:0em;}.cls-6{letter-spacing:0em;}.cls-7{letter-spacing:-0.01em;}.cls-8{letter-spacing:0em;}.cls-9{letter-spacing:-0.01em;}.cls-10{letter-spacing:0em;}.cls-11{letter-spacing:0.02em;}.cls-12,.cls-14,.cls-28{fill:none;stroke-miterlimit:8;}.cls-12{stroke:red;}.cls-12,.cls-14{stroke-width:0.48px;}.cls-13,.cls-23,.cls-25{fill:red;}.cls-13{fill-rule:evenodd;}.cls-14{stroke:#00b0f0;}.cls-15,.cls-23,.cls-25{font-size:23.03px;font-family:SourceHanSansCN-ExtraLight-GBpc-EUC-H, Source Han Sans CN;}.cls-16{letter-spacing:0.06em;}.cls-17{letter-spacing:0.05em;}.cls-18{letter-spacing:0.62em;}.cls-19{letter-spacing:0.26em;}.cls-20{letter-spacing:0.25em;}.cls-21{letter-spacing:0.2em;}.cls-22{letter-spacing:0.19em;}.cls-24{letter-spacing:1.5em;}.cls-25{letter-spacing:0.41em;}.cls-26{letter-spacing:0em;}.cls-27{letter-spacing:0.4em;}.cls-28{stroke:#000;stroke-width:1.42px;stroke-dasharray:8.5 8.5;}</style></defs><title>CSS基本语法结构</title><text class="cls-1" transform="translate(192.09 36.15)"><tspan class="cls-2">p</tspan><tspan class="cls-3" x="14.74" y="0"> </tspan><tspan x="21.27" y="0">{</tspan></text><text class="cls-1" transform="translate(217.67 69.77)"><tspan class="cls-2">b</tspan><tspan x="14.74" y="0">a</tspan><tspan class="cls-4" x="28.16" y="0">c</tspan><tspan class="cls-5" x="39.94" y="0">k</tspan><tspan class="cls-6" x="52.65" y="0">g</tspan><tspan class="cls-7" x="65.89" y="0">r</tspan><tspan x="75.23" y="0">o</tspan><tspan class="cls-2" x="90" y="0">un</tspan><tspan class="cls-8" x="119.48" y="0">d</tspan></text><text class="cls-1" transform="translate(351.91 69.77)">-</text><text class="cls-1" transform="translate(360.51 69.77)"><tspan class="cls-9">c</tspan><tspan x="11.59" y="0">o</tspan><tspan class="cls-10" x="26.36" y="0">l</tspan><tspan x="32.73" y="0">or</tspan></text><text class="cls-1" transform="translate(417.64 69.77)">:<tspan class="cls-11" x="7.49" y="0"> </tspan><tspan class="cls-7" x="14.39" y="0">r</tspan><tspan class="cls-6" x="23.73" y="0">e</tspan><tspan class="cls-2" x="37.72" y="0">d</tspan><tspan x="52.46" y="0">;</tspan></text><text class="cls-1" transform="translate(192.09 103.37)">}</text><line class="cls-12" x1="275.54" y1="133.87" x2="314.15" y2="95.27"/><polygon class="cls-13" points="316.35 99.67 319.65 89.77 309.75 93.07 316.35 99.67 316.35 99.67"/><path class="cls-14" d="M408.67,76.14c0,2.47-.34,4.48-.75,4.48H321.19c-.41,0-.74,2-.74,4.48,0-2.47-.34-4.48-.75-4.48H233c-.41,0-.74-2-.74-4.48"/><path class="cls-14" d="M469.16,76.14c0,2.47-.33,4.48-.75,4.48H452.26c-.41,0-.74,2-.74,4.48,0-2.47-.34-4.48-.75-4.48H434.62c-.41,0-.75-2-.75-4.48"/><text class="cls-15" transform="matrix(0.95, 0, -0.32, 0.95, 11.93, 38.91)"><tspan class="cls-16">元</tspan><tspan class="cls-17" x="24.39" y="0">素</tspan><tspan class="cls-16" x="48.59" y="0">选</tspan><tspan class="cls-17" x="72.97" y="0">择</tspan><tspan x="97.17" y="0">器</tspan></text><line class="cls-12" x1="495.71" y1="133.87" x2="457.11" y2="95.27"/><polygon class="cls-13" points="454.91 99.67 451.61 89.77 461.51 93.07 454.91 99.67 454.91 99.67"/><text class="cls-15" transform="matrix(0.95, 0, -0.32, 0.95, 247.01, 160.29)"><tspan class="cls-18">属</tspan><tspan x="37.37" y="0">性</tspan></text><line class="cls-12" x1="377.86" y1="126.45" x2="416.98" y2="79.5"/><polygon class="cls-13" points="419.57 83.69 421.96 73.53 412.4 77.71 419.57 83.69 419.57 83.69"/><line class="cls-12" x1="136.82" y1="31.33" x2="173.14" y2="31.33"/><polygon class="cls-13" points="171.59 26.66 180.92 31.33 171.59 36 171.59 26.66 171.59 26.66"/><text class="cls-15" transform="matrix(0.95, 0, -0.32, 0.95, 458.54, 161.97)"><tspan class="cls-19">属</tspan><tspan class="cls-20" x="28.92" y="0">性</tspan><tspan x="57.64" y="0">值</tspan></text><text class="cls-15" transform="matrix(0.95, 0, -0.32, 0.95, 25.96, 102.7)"><tspan class="cls-21">样式</tspan><tspan class="cls-22" x="55.08" y="0">用</tspan><tspan x="82.44" y="0">大</tspan></text><text class="cls-15" transform="matrix(0.95, 0, -0.32, 0.95, 25.97, 128.86)"><tspan class="cls-21">括号</tspan><tspan class="cls-22" x="55.08" y="0">包</tspan><tspan x="82.44" y="0">裹</tspan></text><line class="cls-12" x1="136.82" y1="95" x2="173.14" y2="95"/><polygon class="cls-13" points="171.59 90.33 180.92 95 171.59 99.66 171.59 90.33 171.59 90.33"/><text class="cls-23" transform="matrix(0.95, 0, -0.32, 0.95, 346.24, 161.97)"><tspan class="cls-19">冒</tspan><tspan x="28.92" y="0">号</tspan></text><text class="cls-15" transform="matrix(0.95, 0, -0.32, 0.95, 400.94, 161.97)">分</text><text class="cls-15" transform="matrix(0.95, 0, -0.32, 0.95, 346.24, 188.11)"><tspan class="cls-19">隔</tspan><tspan class="cls-20" x="28.92" y="0">属</tspan><tspan x="57.64" y="0">性</tspan></text><text class="cls-15" transform="matrix(0.95, 0, -0.32, 0.95, 346.24, 214.25)"><tspan class="cls-24">和</tspan><tspan x="57.66" y="0">值</tspan></text><text class="cls-15" transform="matrix(0.95, 0, -0.32, 0.95, 539.24, 69.79)"><tspan class="cls-16">每</tspan><tspan class="cls-17" x="24.39" y="0">条</tspan><tspan class="cls-16" x="48.59" y="0">样</tspan><tspan class="cls-17" x="72.97" y="0">式</tspan><tspan x="97.17" y="0">以</tspan></text><text class="cls-25" transform="matrix(0.95, 0, -0.32, 0.95, 539.23, 95.94)">分<tspan class="cls-26" x="32.47" y="0">号</tspan></text><text class="cls-15" transform="matrix(0.95, 0, -0.32, 0.95, 600.84, 95.94)"><tspan class="cls-27">结</tspan><tspan x="32.26" y="0">束</tspan></text><line class="cls-12" x1="528.01" y1="62.14" x2="491.69" y2="62.14"/><polygon class="cls-13" points="493.25 57.47 483.91 62.14 493.25 66.8 493.25 57.47 493.25 57.47"/><rect class="cls-28" x="0.71" y="0.71" width="661.51" height="220.5" rx="36.75" ry="36.75"/><line class="cls-12" x1="706.32" y1="135.51" x2="670" y2="135.51"/><polygon class="cls-13" points="671.55 130.84 662.22 135.51 671.55 140.18 671.55 130.84 671.55 130.84"/><text class="cls-15" transform="matrix(0.95, 0, -0.32, 0.95, 680.27, 102.52)"><tspan class="cls-16">这</tspan><tspan class="cls-17" x="24.39" y="0">个</tspan><tspan class="cls-16" x="48.59" y="0">整</tspan><tspan class="cls-17" x="72.97" y="0">体</tspan><tspan x="97.17" y="0">便</tspan></text><text class="cls-15" transform="matrix(0.95, 0, -0.32, 0.95, 680.27, 128.67)"><tspan class="cls-16">是</tspan><tspan class="cls-17" x="24.39" y="0">一</tspan><tspan class="cls-16" x="48.59" y="0">条</tspan><tspan class="cls-17" x="72.97" y="0">规</tspan><tspan x="97.17" y="0">则</tspan></text></svg>