<svg id="图层_1" data-name="图层 1" xmlns="http://www.w3.org/2000/svg" viewBox="0 0 798.12 211.87"><defs><style>.cls-1,.cls-3,.cls-5{fill:none;stroke-miterlimit:8;}.cls-1{stroke:red;}.cls-1,.cls-3{stroke-width:0.48px;}.cls-2,.cls-4{fill:red;}.cls-2{fill-rule:evenodd;}.cls-3{stroke:#00b0f0;}.cls-5{stroke:#000;stroke-width:0.28px;stroke-dasharray:8.5 8.5;}</style></defs><title>CSS基本语法结构</title><path d="M184.14,23.66v1.67a6,6,0,0,1,1.76-1.49,4.61,4.61,0,0,1,2.22-.51,5,5,0,0,1,2.51.64,4.5,4.5,0,0,1,1.78,1.76,4.94,4.94,0,0,1,.62,2.38,4.62,4.62,0,0,1-1.41,3.39,5,5,0,0,1-7.48-.6v5.53h2.23a.76.76,0,0,1,.48.13.42.42,0,0,1,.14.33.45.45,0,0,1-.14.33.71.71,0,0,1-.48.13H182a.72.72,0,0,1-.47-.12.46.46,0,0,1-.14-.34.42.42,0,0,1,.14-.33.71.71,0,0,1,.47-.13h1.24V24.59H182a.66.66,0,0,1-.47-.13.46.46,0,0,1-.14-.34.45.45,0,0,1,.14-.33.71.71,0,0,1,.47-.13Zm8,4.45A3.69,3.69,0,0,0,191,25.39a4.08,4.08,0,0,0-5.65,0,3.76,3.76,0,0,0,0,5.43A3.91,3.91,0,0,0,188.14,32,3.86,3.86,0,0,0,191,30.84,3.66,3.66,0,0,0,192.1,28.11Z"/><path d="M214,27.69a2.1,2.1,0,0,1,1,1.95v3.93a1.46,1.46,0,0,0,.36,1,1.31,1.31,0,0,0,.9.45.84.84,0,0,1,.45.14.42.42,0,0,1,.14.32.46.46,0,0,1-.14.34.64.64,0,0,1-.42.12,2,2,0,0,1-1.44-.54,2.48,2.48,0,0,1-.78-1.84V29.64a1.47,1.47,0,0,0-.36-1,1.31,1.31,0,0,0-.92-.45.69.69,0,0,1-.42-.16.51.51,0,0,1,0-.66.75.75,0,0,1,.42-.16,1.3,1.3,0,0,0,.93-.45,1.51,1.51,0,0,0,.35-1V21.8a2.38,2.38,0,0,1,.66-1.71,2.12,2.12,0,0,1,1.57-.68.58.58,0,0,1,.41.13.46.46,0,0,1,0,.66.76.76,0,0,1-.45.14,1.32,1.32,0,0,0-.9.46,1.44,1.44,0,0,0-.36,1v3.94a2.36,2.36,0,0,1-.22,1.11A2.56,2.56,0,0,1,214,27.69Z"/><path d="M211,46.28v6.09a4.92,4.92,0,0,1,4-2.16,4.61,4.61,0,0,1,3.44,1.46,4.89,4.89,0,0,1,1.44,3.58,5,5,0,0,1-1.45,3.63A4.65,4.65,0,0,1,215,60.37a4.84,4.84,0,0,1-4-2.17V60h-2.16a.68.68,0,0,1-.47-.14.42.42,0,0,1-.14-.32.46.46,0,0,1,.14-.34.74.74,0,0,1,.47-.12h1.24V47.21h-1.24a.68.68,0,0,1-.47-.13.46.46,0,0,1-.14-.34.45.45,0,0,1,.14-.33.73.73,0,0,1,.47-.13Zm8,9a4,4,0,0,0-1.19-2.94,3.82,3.82,0,0,0-5.58,0,4.24,4.24,0,0,0,0,5.89,3.82,3.82,0,0,0,5.58,0A4.07,4.07,0,0,0,219,55.29Z"/><path d="M230.56,60V58.68a6.52,6.52,0,0,1-4.28,1.69,3.71,3.71,0,0,1-2.58-.84,2.65,2.65,0,0,1-.93-2.05A2.93,2.93,0,0,1,224,55.15a5.56,5.56,0,0,1,3.57-1,11.4,11.4,0,0,1,1.38.08c.5,0,1,.14,1.61.25V53a1.68,1.68,0,0,0-.7-1.32,3.35,3.35,0,0,0-2.1-.55,10.42,10.42,0,0,0-3,.62,2.21,2.21,0,0,1-.45.11.41.41,0,0,1-.3-.13.48.48,0,0,1-.12-.33.36.36,0,0,1,.11-.29,3.67,3.67,0,0,1,1.23-.45,10.77,10.77,0,0,1,2.58-.46,3.9,3.9,0,0,1,2.71.86,2.53,2.53,0,0,1,1,1.94v6.08h1.22a.73.73,0,0,1,.48.12.43.43,0,0,1,.15.34.39.39,0,0,1-.15.32.67.67,0,0,1-.48.14Zm0-4.58a9.49,9.49,0,0,0-1.37-.27,12.3,12.3,0,0,0-1.52-.09,5,5,0,0,0-3.13.87,1.88,1.88,0,0,0-.85,1.54,1.81,1.81,0,0,0,.65,1.4,2.82,2.82,0,0,0,1.9.57,5.14,5.14,0,0,0,2.21-.48,8.09,8.09,0,0,0,2.11-1.51Z"/><path d="M245.19,51.47v-.31a.67.67,0,0,1,.13-.48.42.42,0,0,1,.33-.14.42.42,0,0,1,.34.14.73.73,0,0,1,.13.48v2.08a.76.76,0,0,1-.14.48.42.42,0,0,1-.33.14.39.39,0,0,1-.31-.13.58.58,0,0,1-.15-.42,2.18,2.18,0,0,0-1-1.47,4.27,4.27,0,0,0-2.58-.7,3.77,3.77,0,0,0-3.1,1.28,4.44,4.44,0,0,0-1.06,2.93,3.93,3.93,0,0,0,1.17,2.94,4.09,4.09,0,0,0,3,1.16,6.35,6.35,0,0,0,2.19-.4,5.46,5.46,0,0,0,2-1.26.64.64,0,0,1,.41-.22.41.41,0,0,1,.43.43c0,.32-.36.71-1.1,1.2a7.08,7.08,0,0,1-4,1.17A5,5,0,0,1,237.93,59a4.84,4.84,0,0,1-1.42-3.59,5,5,0,0,1,5.14-5.15A5.19,5.19,0,0,1,245.19,51.47Z"/><path d="M252.93,55.92V60h-2.15a.66.66,0,0,1-.47-.14.39.39,0,0,1-.15-.32.43.43,0,0,1,.15-.34.72.72,0,0,1,.47-.12H252V47.21h-1.23a.66.66,0,0,1-.47-.13.43.43,0,0,1-.15-.34.43.43,0,0,1,.15-.33.71.71,0,0,1,.47-.13h2.15v8.47l3.9-3.28h-.47a.69.69,0,0,1-.47-.14.42.42,0,0,1-.14-.32.44.44,0,0,1,.14-.34.69.69,0,0,1,.47-.13h2.95a.71.71,0,0,1,.48.13.44.44,0,0,1,.14.34.42.42,0,0,1-.14.32.71.71,0,0,1-.48.14h-1.06l-3.59,3,4.54,4.63h1.06a.77.77,0,0,1,.48.12.46.46,0,0,1,.14.34.42.42,0,0,1-.14.32.71.71,0,0,1-.48.14h-3a.68.68,0,0,1-.47-.14.42.42,0,0,1-.14-.32.46.46,0,0,1,.14-.34.74.74,0,0,1,.47-.12h.65L254,55Z"/><path d="M271.32,52.22V50.54h2.16a.68.68,0,0,1,.47.13.44.44,0,0,1,.14.34.42.42,0,0,1-.14.32.68.68,0,0,1-.47.14h-1.24v9.17a3.4,3.4,0,0,1-.39,1.64,3.68,3.68,0,0,1-.88,1,4.63,4.63,0,0,1-1.11.74,3.59,3.59,0,0,1-1.35.22h-2.6a.73.73,0,0,1-.47-.13.42.42,0,0,1-.14-.33.46.46,0,0,1,.14-.34.68.68,0,0,1,.47-.13h2.64a2.65,2.65,0,0,0,1.46-.42,3.1,3.1,0,0,0,1.07-1.21,2.54,2.54,0,0,0,.24-1.17V57.75a4.51,4.51,0,0,1-3.8,2,4.42,4.42,0,0,1-3.27-1.41,4.85,4.85,0,0,1,0-6.76,4.41,4.41,0,0,1,3.27-1.4A4.52,4.52,0,0,1,271.32,52.22Zm0,2.77a3.75,3.75,0,0,0-1.11-2.74,3.61,3.61,0,0,0-2.65-1.11,3.55,3.55,0,0,0-2.64,1.12,3.92,3.92,0,0,0,0,5.47,3.58,3.58,0,0,0,2.64,1.12,3.62,3.62,0,0,0,2.65-1.12A3.75,3.75,0,0,0,271.32,55Z"/><path d="M280.57,50.54v2.31a15.28,15.28,0,0,1,2.69-2.08,3.56,3.56,0,0,1,1.64-.46,2.42,2.42,0,0,1,1.53.55c.47.37.71.65.71.83a.48.48,0,0,1-.49.49.48.48,0,0,1-.18,0,1.85,1.85,0,0,1-.29-.25,2.63,2.63,0,0,0-.66-.52,1.21,1.21,0,0,0-.56-.15,3.14,3.14,0,0,0-1.45.49,22,22,0,0,0-2.94,2.35v5h4.07a.73.73,0,0,1,.48.12.43.43,0,0,1,.15.34.39.39,0,0,1-.15.32.67.67,0,0,1-.48.14h-7.2a.71.71,0,0,1-.47-.13.41.41,0,0,1,0-.63.67.67,0,0,1,.48-.13h2.22V51.47H278a.68.68,0,0,1-.47-.14.44.44,0,0,1-.14-.34.39.39,0,0,1,.14-.32.66.66,0,0,1,.47-.13Z"/><path d="M300.25,55.29a4.84,4.84,0,0,1-1.51,3.59,5.15,5.15,0,0,1-7.26,0,5,5,0,0,1,0-7.17,5.18,5.18,0,0,1,7.26,0A4.88,4.88,0,0,1,300.25,55.29Zm-.93,0a4,4,0,0,0-1.23-2.94,4.09,4.09,0,0,0-3-1.21,4,4,0,0,0-3,1.22,4.1,4.1,0,0,0,0,5.86,4.05,4.05,0,0,0,3,1.23,4.1,4.1,0,0,0,3-1.22A4,4,0,0,0,299.32,55.29Z"/><path d="M311.7,60V58.66a6,6,0,0,1-4.07,1.71,2.71,2.71,0,0,1-2.05-.74,3.18,3.18,0,0,1-.9-2.24V51.47h-1.24a.66.66,0,0,1-.47-.14.41.41,0,0,1-.14-.34.39.39,0,0,1,.14-.32.66.66,0,0,1,.47-.13h2.15v6.85a2,2,0,0,0,.57,1.48,2,2,0,0,0,1.42.58,5.52,5.52,0,0,0,4.12-2.06V51.47H310a.66.66,0,0,1-.47-.14.44.44,0,0,1-.14-.34.42.42,0,0,1,.14-.32.66.66,0,0,1,.47-.13h2.61v8.55h.78a.72.72,0,0,1,.47.12.46.46,0,0,1,.14.34.42.42,0,0,1-.14.32.66.66,0,0,1-.47.14Z"/><path d="M319,50.54v1.38a6.78,6.78,0,0,1,1.74-1.34,4,4,0,0,1,1.75-.37,4,4,0,0,1,1.91.45,3.07,3.07,0,0,1,1.11,1.08,2.77,2.77,0,0,1,.5,1.56v5.79h.78a.74.74,0,0,1,.47.12.46.46,0,0,1,.14.34.42.42,0,0,1-.14.32.68.68,0,0,1-.47.14h-2.46a.67.67,0,0,1-.48-.14.39.39,0,0,1-.15-.32.43.43,0,0,1,.15-.34.73.73,0,0,1,.48-.12h.76V53.46a2.17,2.17,0,0,0-.71-1.65,2.64,2.64,0,0,0-1.9-.67,3.29,3.29,0,0,0-1.58.36,8.82,8.82,0,0,0-1.9,1.82v5.77h1a.72.72,0,0,1,.47.12.42.42,0,0,1,.14.34.39.39,0,0,1-.14.32.66.66,0,0,1-.47.14h-3a.69.69,0,0,1-.47-.14.42.42,0,0,1-.14-.32.46.46,0,0,1,.14-.34.76.76,0,0,1,.47-.12h1V51.47h-.77a.66.66,0,0,1-.47-.14.42.42,0,0,1-.15-.34.39.39,0,0,1,.15-.32.66.66,0,0,1,.47-.13Z"/><path d="M339.93,46.28V59.09h1.22a.78.78,0,0,1,.49.12.46.46,0,0,1,.14.34.42.42,0,0,1-.14.32.72.72,0,0,1-.49.14H339V58.18a4.84,4.84,0,0,1-4.06,2.19,4.65,4.65,0,0,1-2.39-.67,4.73,4.73,0,0,1-1.8-1.88,5.18,5.18,0,0,1,0-5.06,4.77,4.77,0,0,1,4.2-2.55A4.91,4.91,0,0,1,339,52.39V47.21h-1.22a.72.72,0,0,1-.49-.13.46.46,0,0,1-.14-.34.45.45,0,0,1,.14-.33.78.78,0,0,1,.49-.13Zm-.93,9a4,4,0,0,0-1.18-2.95,3.9,3.9,0,0,0-5.63,0,4.28,4.28,0,0,0,0,5.9,3.88,3.88,0,0,0,5.63,0A4.06,4.06,0,0,0,339,55.29Z"/><path d="M353.53,53v1.31h-9.37V53Z"/><path d="M366.12,51.47v-.31a.67.67,0,0,1,.13-.48.46.46,0,0,1,.66,0,.67.67,0,0,1,.14.48v2.08a.83.83,0,0,1-.14.48.44.44,0,0,1-.33.14.42.42,0,0,1-.32-.13.63.63,0,0,1-.14-.42,2.16,2.16,0,0,0-1-1.47,4.21,4.21,0,0,0-2.57-.7,3.8,3.8,0,0,0-3.11,1.28,4.49,4.49,0,0,0-1.06,2.93,4,4,0,0,0,1.17,2.94,4.13,4.13,0,0,0,3,1.16,6.3,6.3,0,0,0,2.18-.4,5.49,5.49,0,0,0,2-1.26.62.62,0,0,1,.4-.22.45.45,0,0,1,.32.12.45.45,0,0,1,.12.31c0,.32-.37.71-1.1,1.2a7.08,7.08,0,0,1-4,1.17A5,5,0,0,1,358.86,59a4.84,4.84,0,0,1-1.43-3.59,5,5,0,0,1,5.14-5.15A5.19,5.19,0,0,1,366.12,51.47Z"/><path d="M380.86,55.29a4.84,4.84,0,0,1-1.51,3.59,5.15,5.15,0,0,1-7.26,0,5,5,0,0,1,0-7.17,5.18,5.18,0,0,1,7.26,0A4.88,4.88,0,0,1,380.86,55.29Zm-.93,0a4,4,0,0,0-1.23-2.94,4.09,4.09,0,0,0-3-1.21,4,4,0,0,0-3,1.22,4.1,4.1,0,0,0,0,5.86,4.05,4.05,0,0,0,3,1.23,4.1,4.1,0,0,0,3-1.22A4,4,0,0,0,379.93,55.29Z"/><path d="M389.63,46.28V59.09h3.61a.77.77,0,0,1,.48.12.46.46,0,0,1,.14.34.42.42,0,0,1-.14.32.71.71,0,0,1-.48.14H385.1a.66.66,0,0,1-.47-.14.39.39,0,0,1-.14-.32.42.42,0,0,1,.14-.34.72.72,0,0,1,.47-.12h3.61V47.21h-2.65a.66.66,0,0,1-.47-.13.43.43,0,0,1-.15-.34.45.45,0,0,1,.14-.33.76.76,0,0,1,.48-.13Z"/><path d="M407.74,55.29a4.88,4.88,0,0,1-1.51,3.59,5.15,5.15,0,0,1-7.26,0,5,5,0,0,1,0-7.17,5.14,5.14,0,0,1,8.77,3.59Zm-.93,0a4,4,0,0,0-1.23-2.94,4.09,4.09,0,0,0-3-1.21,4,4,0,0,0-3,1.22,4.1,4.1,0,0,0,0,5.86,4.05,4.05,0,0,0,3,1.23,4.1,4.1,0,0,0,3-1.22A4,4,0,0,0,406.81,55.29Z"/><path d="M414.94,50.54v2.31a15.28,15.28,0,0,1,2.69-2.08,3.56,3.56,0,0,1,1.64-.46,2.42,2.42,0,0,1,1.53.55c.47.37.7.65.7.83a.48.48,0,0,1-.13.35.5.5,0,0,1-.35.14.48.48,0,0,1-.18,0,1.47,1.47,0,0,1-.29-.25,2.65,2.65,0,0,0-.67-.52,1.17,1.17,0,0,0-.55-.15,3.1,3.1,0,0,0-1.45.49,20.76,20.76,0,0,0-2.94,2.35v5H419a.75.75,0,0,1,.48.12.46.46,0,0,1,.14.34.42.42,0,0,1-.14.32A.69.69,0,0,1,419,60H411.8a.73.73,0,0,1-.47-.13.42.42,0,0,1-.14-.32.4.4,0,0,1,.14-.31.66.66,0,0,1,.47-.13H414V51.47h-1.69a.66.66,0,0,1-.47-.14.47.47,0,0,1,0-.66.67.67,0,0,1,.48-.13Z"/><path d="M429.28,50.54h.39a1.48,1.48,0,0,1,1.05,2.54,1.46,1.46,0,0,1-1.05.43h-.39a1.49,1.49,0,0,1-1-2.55A1.49,1.49,0,0,1,429.28,50.54Zm0,6.83h.39a1.49,1.49,0,0,1,1.49,1.48,1.44,1.44,0,0,1-.44,1.06,1.49,1.49,0,0,1-1.05.42h-.39a1.49,1.49,0,0,1-1.49-1.47,1.41,1.41,0,0,1,.44-1.06A1.46,1.46,0,0,1,429.28,57.37Z"/><path d="M455.24,50.54v2.31a15.28,15.28,0,0,1,2.69-2.08,3.56,3.56,0,0,1,1.64-.46,2.42,2.42,0,0,1,1.53.55c.47.37.7.65.7.83a.48.48,0,0,1-.13.35.48.48,0,0,1-.35.14.48.48,0,0,1-.18,0,1.85,1.85,0,0,1-.29-.25,2.63,2.63,0,0,0-.66-.52,1.21,1.21,0,0,0-.56-.15,3.1,3.1,0,0,0-1.45.49,21.36,21.36,0,0,0-2.94,2.35v5h4.07a.73.73,0,0,1,.48.12.42.42,0,0,1,.14.34.39.39,0,0,1-.14.32.67.67,0,0,1-.48.14h-7.2a.71.71,0,0,1-.47-.13.41.41,0,0,1,0-.63.67.67,0,0,1,.48-.13h2.22V51.47h-1.7a.66.66,0,0,1-.47-.14.47.47,0,0,1,0-.66.69.69,0,0,1,.48-.13Z"/><path d="M474.75,55.49h-9.36a4.47,4.47,0,0,0,1.49,2.87,4.6,4.6,0,0,0,3.1,1.09,7.69,7.69,0,0,0,2.16-.34,5.58,5.58,0,0,0,1.83-.9.61.61,0,0,1,.37-.16.41.41,0,0,1,.3.13.46.46,0,0,1,.13.33.55.55,0,0,1-.17.36,5,5,0,0,1-1.87,1,8.08,8.08,0,0,1-2.75.48A5.43,5.43,0,0,1,466,58.82a5.06,5.06,0,0,1-1.58-3.75,4.64,4.64,0,0,1,1.48-3.43,5.05,5.05,0,0,1,3.67-1.43,5,5,0,0,1,3.71,1.47A5.09,5.09,0,0,1,474.75,55.49Zm-.93-.93a4,4,0,0,0-1.44-2.47,4.52,4.52,0,0,0-5.53,0,4,4,0,0,0-1.45,2.48Z"/><path d="M487.72,46.28V59.09h1.22a.78.78,0,0,1,.49.12.46.46,0,0,1,.14.34.42.42,0,0,1-.14.32.72.72,0,0,1-.49.14h-2.15V58.18a4.84,4.84,0,0,1-4.06,2.19,4.65,4.65,0,0,1-2.39-.67,4.73,4.73,0,0,1-1.8-1.88,5.18,5.18,0,0,1,0-5.06,4.77,4.77,0,0,1,4.2-2.55,4.91,4.91,0,0,1,4.05,2.18V47.21h-1.22a.72.72,0,0,1-.49-.13.46.46,0,0,1-.14-.34.45.45,0,0,1,.14-.33.78.78,0,0,1,.49-.13Zm-.93,9a4,4,0,0,0-1.18-2.95,3.9,3.9,0,0,0-5.63,0,4.28,4.28,0,0,0,0,5.9,3.88,3.88,0,0,0,5.63,0A4.06,4.06,0,0,0,486.79,55.29Z"/><path d="M494.85,56.7h2.89l-3.09,5.08a2.27,2.27,0,0,1-.37.47.58.58,0,0,1-.32.1.62.62,0,0,1-.44-.17.5.5,0,0,1-.17-.39,1.28,1.28,0,0,1,.06-.34Zm1.6-6.16h.41A1.47,1.47,0,0,1,498.33,52a1.49,1.49,0,0,1-1.47,1.5h-.41a1.4,1.4,0,0,1-1-.44,1.47,1.47,0,0,1,0-2.11A1.44,1.44,0,0,1,496.45,50.54Z"/><path d="M188.15,81.43a2.43,2.43,0,0,1-.75-.78,2.58,2.58,0,0,1-.25-1.16V75.55a1.48,1.48,0,0,0-.36-1,1.26,1.26,0,0,0-.9-.44.76.76,0,0,1-.44-.14.43.43,0,0,1-.15-.33.42.42,0,0,1,.14-.33.56.56,0,0,1,.41-.13,2,2,0,0,1,1.44.55,2.45,2.45,0,0,1,.78,1.84v3.94a1.43,1.43,0,0,0,.37,1,1.33,1.33,0,0,0,.92.45.69.69,0,0,1,.42.16.41.41,0,0,1,.13.32.42.42,0,0,1-.13.34.75.75,0,0,1-.42.16,1.3,1.3,0,0,0-.93.45,1.47,1.47,0,0,0-.36,1v3.94a2.38,2.38,0,0,1-.66,1.71,2.1,2.1,0,0,1-1.56.68.56.56,0,0,1-.41-.13.46.46,0,0,1-.14-.34.49.49,0,0,1,.13-.33.93.93,0,0,1,.46-.13,1.32,1.32,0,0,0,.91-.46,1.53,1.53,0,0,0,.35-1V83.39a2.36,2.36,0,0,1,.22-1.11A2.53,2.53,0,0,1,188.15,81.43Z"/><line class="cls-1" x1="271.21" y1="123.98" x2="308.25" y2="86.94"/><polygon class="cls-2" points="310.36 91.16 313.53 81.66 304.03 84.83 310.36 91.16 310.36 91.16"/><path class="cls-3" d="M399,68.76c0,2.32-.32,4.21-.7,4.21H315c-.39,0-.7,1.88-.7,4.21,0-2.33-.32-4.21-.71-4.21H230.35c-.39,0-.71-1.89-.71-4.21"/><path class="cls-3" d="M487.45,68.76c0,2.32-.31,4.21-.7,4.21H471.22c-.38,0-.7,1.88-.7,4.21,0-2.33-.31-4.21-.7-4.21H454.29c-.38,0-.7-1.89-.7-4.21"/><path d="M41.75,25.67l-.21.63H35.23l-2.86,8.57c-.23.67-.06.82.9.82h3.54c1,0,1.35-.59,2.55-4a1.42,1.42,0,0,0,.52.34c-1.24,3.42-1.75,4.3-3.28,4.3H33.08c-1.4,0-1.72-.25-1.32-1.45l2.86-8.57H29.86c-1.94,4.67-4.31,8.51-9.59,10.35a1.27,1.27,0,0,0-.29-.42c5.16-1.74,7.43-5.55,9.25-9.93H23.32l.21-.63Zm.38-6.06-.2.61H27.1l.21-.61Z"/><path d="M48,32.77a35.07,35.07,0,0,1-6.58,3.59,1.54,1.54,0,0,0-.39-.42,31.37,31.37,0,0,0,6.48-3.4Zm-1.6-4.63a5.36,5.36,0,0,0,1.45-.4,34.13,34.13,0,0,0,4.71-2.37H44.63l.2-.6h8.74l.64-1.91H47.77l.21-.63h6.44L55,20.37H47.39l.2-.61h7.65l.66-2h.63l-.66,2h7.91l-.21.61h-7.9l-.62,1.86h6.52l-.21.63H54.84l-.64,1.91h8.85l-.2.6H52.62l.44.38A33.6,33.6,0,0,1,48.29,28l5.47-.32c1-.42,2-.86,2.9-1.32l.29.51A77.82,77.82,0,0,1,46.14,31.1l11.36-.63A16.58,16.58,0,0,0,56,29.19l.56-.38A12,12,0,0,1,59.74,32l-.62.46A7.65,7.65,0,0,0,58,31l-5.79.34-1.44,4.29a1,1,0,0,1-.86.84,15.58,15.58,0,0,1-3,.13,1.69,1.69,0,0,0-.06-.63c1.47,0,2.44,0,2.76,0s.43-.1.51-.36l1.42-4.25c-6.92.38-7.61.46-8.08.59a3,3,0,0,0,0-.74,14.88,14.88,0,0,0,2.93-.73c.88-.27,3.11-1,5.69-2.1a45.54,45.54,0,0,0-5.8.46A2.76,2.76,0,0,0,46.39,28.14Zm8.45,4.47a18.58,18.58,0,0,1,4.21,3.14l-.63.46a18.26,18.26,0,0,0-4.2-3.2Z"/><path d="M66.24,33.68c.6,0,.87.54,1.69,1.15,1.06.73,2.73.88,5,.88,2.69,0,5.85-.13,8-.27a2.73,2.73,0,0,0-.44.69c-1.76.1-5.73.21-7.77.21-2.39,0-4.16-.17-5.22-1-.64-.48-1.05-1.09-1.51-1.09-.79,0-2.21.92-3.88,2.22L61.85,36a13.71,13.71,0,0,1,3.73-2.18L68,26.42H65.2l.2-.61h3.46ZM76.92,18.56A28.08,28.08,0,0,1,75.22,21h3.31l1-3.14h.65l-1,3.14h5.31l-.21.61H79l-1.23,3.69h6.18l-.2.63H79.07l-2,6c-.16.46-.07.52.64.52h2.48c.67,0,.88-.31,1.74-2.79a1,1,0,0,0,.51.3c-.92,2.51-1.31,3.12-2.4,3.12H77.49c-1.13,0-1.38-.19-1.06-1.15l2-6h-3c-1.65,3.73-3.55,6.16-7.5,7.44a1.4,1.4,0,0,0-.26-.46c3.83-1.17,5.62-3.52,7.13-7H70.77l.21-.63H77.1l1.23-3.69H74.72a22.87,22.87,0,0,1-2.1,2.23,1.91,1.91,0,0,0-.48-.32,22.32,22.32,0,0,0,4.21-5.09Zm-8.41.07a10.17,10.17,0,0,1,2.25,3.5l-.62.35a10.88,10.88,0,0,0-2.2-3.54Z"/><path d="M92.48,17.83,91,22.29h2.74l-.21.63H90.79l-1.66,5L92,27l-.11.63-3,1-2.32,7a1.11,1.11,0,0,1-.86.88,10.3,10.3,0,0,1-2.43.13,2.69,2.69,0,0,0,0-.63c1,0,1.94,0,2.17,0a.52.52,0,0,0,.53-.38l2.25-6.77-3.36,1.09-.06-.63,3.65-1.15,1.73-5.18H87l.21-.63h3.15l1.49-4.46Zm6.28,8.84-.68,2.06h4.21l-.21.63H97.87l-1,2.89h5.89l-.2.61H96.7l-1.3,3.9h-.63l1.3-3.9h-5.7l.2-.61h5.7l1-2.89H92.65l.21-.63h4.59l.68-2.06Zm6.64-7.46.16,0,.31.25a21.27,21.27,0,0,1-5.94,4.68,12.37,12.37,0,0,0,5,2.37,4.31,4.31,0,0,0-.6.54,12.49,12.49,0,0,1-5-2.58A32.06,32.06,0,0,1,92.51,27a1.47,1.47,0,0,0-.2-.54,30.45,30.45,0,0,0,6.61-2.42,7.81,7.81,0,0,1-2.3-4.21H95.17l.21-.63Zm-8.13.63a7.73,7.73,0,0,0,2.26,3.9,20.75,20.75,0,0,0,5.26-3.9Z"/><path d="M116.86,24.18a18.67,18.67,0,0,1-2.48,2.47h11l-.21.63h-6.54a10.61,10.61,0,0,0,5.69,3.5,3.54,3.54,0,0,0-.62.53,12.75,12.75,0,0,1-1.32-.51l-1.93,5.79h-.63l.21-.61h-5l-.24.71h-.61l2.11-6.3h5.19a9.65,9.65,0,0,1-3.64-3.11h-4.27a28.55,28.55,0,0,1-5.08,3.11h4.74l-2.07,6.2h-.63l.2-.61H106l-.24.71h-.62L107.05,31c-.58.23-1.17.44-1.79.65a1.38,1.38,0,0,0-.27-.44,22.52,22.52,0,0,0,2.28-.85,26.69,26.69,0,0,0,5.5-3.11h-6.08l.21-.63h6.69a16.11,16.11,0,0,0,2.62-2.6ZM111,35.37,112.43,31h-4.74l-1.46,4.38Zm6.17-16.54-1.76,5.27h-6l1.76-5.27Zm-6.94,4.64H115l1.34-4h-4.76Zm10.06,11.9L121.72,31h-5l-1.46,4.38Zm6.14-16.54-1.75,5.27H118.4l1.75-5.27Zm-7.18,4.64h5l1.34-4h-5Zm.53,1.11a8.32,8.32,0,0,1,2.55,1.53l-.52.5A8.5,8.5,0,0,0,119.24,25Z"/><line class="cls-1" x1="512.93" y1="123.98" x2="475.89" y2="86.94"/><polygon class="cls-2" points="473.78 91.16 470.61 81.66 480.11 84.83 473.78 91.16 473.78 91.16"/><path d="M273.15,132l-1.26,3.79H257.46l-.76,2.29c-1.15,3.45-3,8.25-6.32,11.67a1.49,1.49,0,0,0-.41-.33c3.24-3.38,5-8,6.1-11.34l2-6.08Zm-8.3,13.33a24.08,24.08,0,0,1,1.7,2.89l-.57.34c-.14-.34-.36-.76-.61-1.22l-8.76.38.18-.65,4.59-.15.71-2.12h-5.77L254.61,150H254l1.92-5.74h6.39l.55-1.64H257.3l1.08-3.23h5.53l.52-1.55c-2,.11-4.09.19-6,.21a1.39,1.39,0,0,0,0-.54,103,103,0,0,0,11.56-.78l.33.53c-1.43.2-3.3.39-5.3.54l-.53,1.59h5.66l-1.07,3.23h-5.66l-.55,1.64h6.54l-1.6,4.8a1,1,0,0,1-.76.77,15.93,15.93,0,0,1-2.8.11,4,4,0,0,0,0-.57c1.26,0,2.2,0,2.53,0s.39-.1.46-.33l1.4-4.2H262.7l-.7,2.1,3.06-.13-.73-1.19Zm-7.18-10.15h13.81l.86-2.58H258.52Zm.47,6.75h4.91l.66-2h-4.9Zm5.52,0h5l.66-2h-5.05Z"/><path d="M277.43,135.1a26.88,26.88,0,0,1-2.93,5.38l-.54-.18a27,27,0,0,0,2.92-5.31Zm3.49-4-6.28,18.84H274l6.28-18.84Zm2.78,17.46,2.09-6.29H281l.2-.6H286l1.77-5.29h-3.82a28.87,28.87,0,0,1-3,3.65,4,4,0,0,0-.48-.31A33,33,0,0,0,286,132l.59.12c-.68,1.22-1.44,2.41-2.19,3.54H288l1.54-4.61h.65l-1.54,4.61h5.27l-.21.63H288.4l-1.76,5.29h4.78l-.2.6h-4.78l-2.09,6.29H290l-.2.61H277.08l.2-.61Zm-2.58-14.17a14.15,14.15,0,0,1,.43,3.63l-.66.33a16.45,16.45,0,0,0-.35-3.73Z"/><line class="cls-1" x1="384.44" y1="115.24" x2="421.98" y2="70.19"/><polygon class="cls-2" points="424.46 74.21 426.76 64.46 417.58 68.47 424.46 74.21 424.46 74.21"/><line class="cls-1" x1="135.23" y1="27.73" x2="170.08" y2="27.73"/><polygon class="cls-2" points="168.59 23.25 177.55 27.73 168.59 32.21 168.59 23.25 168.59 23.25"/><path d="M501.88,132l-1.26,3.79H486.19l-.76,2.29c-1.15,3.45-3,8.25-6.32,11.67a1.4,1.4,0,0,0-.42-.33c3.25-3.38,5-8,6.11-11.34l2-6.08Zm-8.3,13.33a24.08,24.08,0,0,1,1.7,2.89l-.57.34c-.14-.34-.36-.76-.61-1.22l-8.76.38.18-.65,4.59-.15.71-2.12h-5.77L483.34,150h-.63l1.92-5.74H491l.55-1.64H486l1.08-3.23h5.53l.52-1.55c-2,.11-4.09.19-6,.21a1.39,1.39,0,0,0,0-.54,103.2,103.2,0,0,0,11.56-.78l.33.53c-1.43.2-3.3.39-5.3.54l-.53,1.59h5.66l-1.07,3.23h-5.66l-.55,1.64h6.54l-1.6,4.8a1,1,0,0,1-.76.77,15.93,15.93,0,0,1-2.8.11c0-.15,0-.38,0-.57,1.26,0,2.2,0,2.53,0s.39-.1.46-.33l1.4-4.2h-5.93l-.7,2.1,3.06-.13-.73-1.19Zm-7.19-10.15h13.82l.86-2.58H487.25Zm.48,6.75h4.91l.66-2h-4.91Zm5.52,0h5.05l.66-2h-5.05Z"/><path d="M506.16,135.1a27.39,27.39,0,0,1-2.93,5.38l-.54-.18a27,27,0,0,0,2.92-5.31Zm3.49-4-6.28,18.84h-.63L509,131.05Zm2.78,17.46,2.09-6.29h-4.84l.2-.6h4.84l1.76-5.29h-3.81a28.87,28.87,0,0,1-3,3.65,4,4,0,0,0-.48-.31,33,33,0,0,0,5.48-7.63l.59.12c-.68,1.22-1.44,2.41-2.19,3.54h3.58l1.54-4.61h.65l-1.54,4.61h5.27l-.21.63h-5.27l-1.76,5.29h4.78l-.2.6h-4.78l-2.1,6.29h5.62l-.2.61H505.81l.2-.61Zm-2.58-14.17a14.15,14.15,0,0,1,.43,3.63l-.66.33a16.45,16.45,0,0,0-.35-3.73Z"/><path d="M532.55,131.22a52.26,52.26,0,0,1-4,5L524,150h-.61l4.26-12.77a36.31,36.31,0,0,1-3.48,3.21,2,2,0,0,0-.29-.5,41.51,41.51,0,0,0,8.14-8.85Zm6.83-.06-1.22,2.28h6l-.21.63H537.8c-.49.92-1,1.78-1.43,2.47h5.43l-4,12H540l-.2.61h-14l.2-.61h2.21l4-12h3.58c.43-.67.92-1.55,1.41-2.47h-5.49l.21-.63h5.62c.45-.86.89-1.72,1.22-2.41Zm-2.18,17.35.76-2.28h-8.38l-.77,2.28Zm-7.42-2.89h8.39l.81-2.43h-8.39Zm1-3h8.39l.8-2.41H531.6Zm9.39-3,.8-2.39H532.6l-.8,2.39Z"/><path d="M42.41,57.93,41,62.13h2.45l-.2.6H40.81l-.32,1c.23.63.93,3.18,1.08,3.81l-.65.57c-.08-.69-.48-2.39-.75-3.42l-4,12.12h-.6l4.06-12.2A42.1,42.1,0,0,1,34.07,72a1.06,1.06,0,0,0-.33-.48,41.5,41.5,0,0,0,6.34-8.83H37.25l.2-.6h3l1.4-4.2Zm13.35.3c-1.09,1.25-2.47,2.74-3.62,3.85h3l-.2.61H49.8l-1.25,3.75H53l-.2.61h-4.4l-1.29,3.86h5.62l-.21.63H46.85l-1.76,5.28h-.63l1.77-5.28h-6l.21-.63h6l1.29-3.86H43.4l.2-.61h4.32l1.25-3.75h-5l.21-.61h7.06a44.66,44.66,0,0,0,3.8-4.15Zm-8.42-.15a12.2,12.2,0,0,1,.9,3.31l-.65.34a12.39,12.39,0,0,0-.86-3.4Z"/><path d="M62.22,74.43l2.37-7.13H60.23l.21-.63H69.9l-.21.63H65.22l-2.32,7,5.48-1.21-.13.58c-4,.92-8.31,1.91-11.18,2.54L57,75.58ZM74.37,58c-.48,1.44-.89,2.85-1.24,4.17h6.64l-.2.61H72.94C70.81,71,71,76.25,73.71,76.25c.71,0,1.35-1.17,2.49-4.15a1.54,1.54,0,0,0,.49.3c-1.28,3.33-2,4.48-3.23,4.48-3.23,0-3.25-5.87-1.12-14.06H61.06l.2-.61H72.5c.34-1.34.76-2.73,1.22-4.17Zm2.2.19A12.5,12.5,0,0,1,79,61l-.59.46A12.89,12.89,0,0,0,76,58.62Z"/><path d="M103.21,59.48l-5.33,16a1.42,1.42,0,0,1-1.16,1.13,29.27,29.27,0,0,1-3.8.08,3,3,0,0,0-.06-.63c1.74,0,3.22,0,3.65,0a.69.69,0,0,0,.75-.56l1.8-5.41H92.19L90,76.69h-.63l2.2-6.58H85.31a17.8,17.8,0,0,1-4.87,6.81,1.07,1.07,0,0,0-.32-.44c3.25-2.68,4.73-6.37,5.71-9.32l2.56-7.68ZM86.44,67.16c-.24.73-.53,1.53-.87,2.34h6.19l1.48-4.44h-6.1Zm.91-2.73h6.1l1.44-4.32h-6.1Zm6.52.63L92.39,69.5h6.88l1.48-4.44Zm1.65-5-1.44,4.32H101l1.44-4.32Z"/><path d="M120.36,58a51.91,51.91,0,0,1-2.57,6.38H127l-.21.6H118.3c-.19,5.18,1.38,9.48,4.92,11.3a7.27,7.27,0,0,0-.67.55c-3.53-2-5.13-6.44-4.87-11.85h-.19a24.19,24.19,0,0,1-12.83,11.87,1.81,1.81,0,0,0-.32-.46A23.42,23.42,0,0,0,116.84,65h-8.31l.21-.6h8.42A45.39,45.39,0,0,0,119.73,58Z"/><path d="M42.13,83,40.64,87.5h2.75l-.21.63H40.43l-1.75,5.26,3.22-.92-.09.57-3.35,1-2.25,6.75a1.27,1.27,0,0,1-.92.95,18,18,0,0,1-2.55.08,2.06,2.06,0,0,0-.07-.59c1.14,0,2.09,0,2.37,0a.51.51,0,0,0,.53-.42l2.19-6.56-3.23,1-.06-.63,3.51-1,1.82-5.47H36.87l.21-.63H40L41.5,83ZM47,94.36l1.44-4.3H43.16l.2-.61h5.29l1.47-4.4c-1.7.29-3.45.52-5,.71a1.68,1.68,0,0,0-.07-.5,67.51,67.51,0,0,0,10.7-2l.39.48A44.12,44.12,0,0,1,50.78,85l-1.5,4.5h5.95l-.2.61h-6l-1.43,4.3h4.59l-2.48,7.46h-.61l.28-.86H40.89l-.31.94H40l2.51-7.54Zm2.62,6L51.42,95H42.89l-1.8,5.38Z"/><path d="M75,91.44l-.2.61H62.31c-.66,1-1.46,2.18-2.15,3.1h11a4.15,4.15,0,0,1-.18.4c-1.87,3.8-2.93,5.35-3.93,6a2.59,2.59,0,0,1-1.46.35c-.6,0-2,0-3.43-.12a1.34,1.34,0,0,0,0-.63,33.64,33.64,0,0,0,3.52.19,1.76,1.76,0,0,0,1-.19c.86-.53,1.83-2,3.51-5.39l-10.81,0H59c.79-1,1.81-2.47,2.64-3.69H56.94l.2-.61ZM74.9,84l-1.65,5H60.59l1.65-5ZM61.42,88.36h11.4l1.25-3.73H62.66Z"/><path d="M86.59,83.08A30.94,30.94,0,0,1,84.11,86H96.37s-.1.32-.15.44c-2.73,7.38-3.76,9.79-4.58,10.48a1.87,1.87,0,0,1-1.31.48,20.22,20.22,0,0,1-2.43-.08,1.41,1.41,0,0,0,0-.61c1.08.09,2.13.09,2.48.09a1.06,1.06,0,0,0,.81-.23c.7-.57,1.76-3,4.31-10h-12a32.35,32.35,0,0,1-5.21,4.23,4.18,4.18,0,0,0-.43-.39,31.64,31.64,0,0,0,8.19-7.49Zm3.14,6.33-1.9,5.7H80.19l-1.4,4.22c-.38,1.13,0,1.48,2.27,1.48h9.35c1.85,0,2.34-.54,3.31-3a1.26,1.26,0,0,0,.56.29c-1.09,2.56-1.71,3.29-4.18,3.29H81c-2.73,0-3.44-.38-2.85-2.14l3.3-9.89ZM80.4,94.5h7L88.91,90h-7Z"/><path d="M99.56,101.3a2.13,2.13,0,0,0,1-1.26l.71-2.12a49.73,49.73,0,0,1-5,1.57A2.79,2.79,0,0,0,96,99c4.28-1.07,8.41-2.6,10.83-4.38l.64.23-.3.19a6.26,6.26,0,0,0,1.57,3,35.28,35.28,0,0,0,3.87-2l.43.35a37.28,37.28,0,0,1-4,2,10.89,10.89,0,0,0,5.39,2.66,3.32,3.32,0,0,0-.61.57c-3.66-.91-6.52-3-7.25-6.12A28.47,28.47,0,0,1,102,97.65l-1.07,3.2,4.83-1.34a3.4,3.4,0,0,0-.11.51c-5,1.46-5.52,1.65-5.89,1.88A3,3,0,0,0,99.56,101.3Zm16.79-14.87L114.83,91h-6.39l-.39,1.16h8.41l-.2.6H109a29.27,29.27,0,0,1,6.41,2.79l-.52.5a30.84,30.84,0,0,0-7.1-3.06l-.51,1.53h-.63l.59-1.76A32.92,32.92,0,0,1,97.88,96a2,2,0,0,0-.33-.52,33.07,33.07,0,0,0,8.71-2.67H99l.21-.6h8.19l.39-1.16H101.5L103,86.43ZM110.45,83a7.45,7.45,0,0,1,.55,1.74h8.28l-.21.63H101.13l.21-.63h9a9.46,9.46,0,0,0-.45-1.48Zm-8.14,7.45H108l.46-1.39h-5.7Zm.66-2h5.7l.45-1.34h-5.7Zm5.67,2h5.76l.47-1.39H109.1Zm.66-2h5.77l.45-1.34h-5.77Z"/><line class="cls-1" x1="135.23" y1="80.4" x2="170.08" y2="80.4"/><polygon class="cls-2" points="168.59 75.92 177.55 80.41 168.59 84.88 168.59 75.92 168.59 75.92"/><path class="cls-4" d="M371.26,135.84,368,145.67h-.61l.35-1H356.63l-.37,1.12h-.61l3.3-9.9ZM356.84,144h11.09l.71-2.14H357.55Zm.91-2.75h11.09l.7-2.1H358.45Zm17.66-13.35-2.2,6.6h-.63l2-6H360.43l-2,6.05h-.61L360,127.9Zm-5.66,10.63.69-2.08H359.35l-.69,2.08Zm1.77-5.43-.2.6H360.37l.21-.6Zm.92-2.71-.21.63h-11l.21-.63Z"/><path class="cls-4" d="M395.31,135.32l-.21.61H382.63c-.66,1-1.46,2.18-2.15,3.1h11s-.11.27-.18.4c-1.87,3.79-2.93,5.34-3.92,6a2.64,2.64,0,0,1-1.46.36c-.61,0-2,0-3.44-.13a1.34,1.34,0,0,0,0-.63,33.76,33.76,0,0,0,3.52.19,1.76,1.76,0,0,0,1-.19c.86-.52,1.83-2,3.51-5.38l-10.81,0h-.38c.79-1,1.81-2.48,2.64-3.69h-4.72l.2-.61Zm-.09-7.42-1.65,4.94H380.91l1.65-4.94Zm-13.48,4.34h11.41l1.24-3.73H383Z"/><path d="M414,135.07s-.11.31-.16.42c-2.57,6.58-3.66,8.9-4.67,9.66a2.12,2.12,0,0,1-1.5.46c-.67,0-2,0-3.41-.13a1.34,1.34,0,0,0,0-.63c1.52.15,3,.17,3.48.17a1.6,1.6,0,0,0,1-.23c.81-.61,2-2.89,4.38-9.12h-7c-2,4.3-4.75,8.35-10.62,10.17a2.67,2.67,0,0,0-.23-.44c5.75-1.72,8.35-5.68,10.2-9.73h-4.7l.21-.6Zm-6.57-7.42a32.54,32.54,0,0,1-8.8,8.23,2.66,2.66,0,0,0-.41-.42,29.24,29.24,0,0,0,8.64-8Zm9.61,7.54a4.74,4.74,0,0,0-.67.51c-1.63-1.62-3.07-5-3.47-8l.62-.23C413.85,130.41,415.35,133.7,417,135.19Z"/><path d="M363.86,152.86l.14-.05.3.3c-1.22,1.65-2.75,3.67-4.12,5.39a5.25,5.25,0,0,1,.61,4.77,3.76,3.76,0,0,1-1.43,2.14,2.63,2.63,0,0,1-1.09.32,8.65,8.65,0,0,1-1.44,0,1.31,1.31,0,0,0-.05-.61,9.84,9.84,0,0,0,1.52,0,2.12,2.12,0,0,0,.83-.21,3.11,3.11,0,0,0,1.05-1.66,5.11,5.11,0,0,0-.76-4.69c1.45-1.76,2.89-3.65,3.95-5.12h-3.74l-5.78,17.36h-.63l6-18Zm10.31,8-3,9.08a1.05,1.05,0,0,1-.73.8,11.7,11.7,0,0,1-2.24.1,2.52,2.52,0,0,0-.05-.59c1,0,1.73,0,2,0s.33-.06.41-.29l2.82-8.47h-9.83l-3.12,9.37h-.61l3.33-10Zm-2.72,1.39c-.87,1-2,2.07-2.88,2.91h2.51l-.2.61h-3.63l-1.55,4.65h-.61l1.56-4.65h-3.38l.2-.61h4.43A43.8,43.8,0,0,0,371,162Zm3.61-6.94-1.32,4h-9l1.32-4Zm-9.47,6.58a9,9,0,0,1,1,2.81L366,165a10.44,10.44,0,0,0-1-2.87Zm11.51-8.8-.2.61H365.32l.21-.61Zm-11.56,5.55h7.8l.91-2.72h-7.8Z"/><path d="M396.66,153l-1.27,3.8H381L380.2,159c-1.15,3.46-3,8.26-6.32,11.68a1.36,1.36,0,0,0-.41-.34c3.24-3.37,5-8,6.11-11.34l2-6.08Zm-8.31,13.33a22.19,22.19,0,0,1,1.7,2.9l-.57.33c-.14-.33-.36-.75-.6-1.21l-8.77.37.18-.65,4.6-.14.7-2.12h-5.76l-1.71,5.13h-.63l1.91-5.74h6.4l.54-1.63h-5.53l1.07-3.23h5.54l.51-1.55c-2,.1-4.08.18-6,.21a1.45,1.45,0,0,0,0-.55,101.1,101.1,0,0,0,11.56-.77l.32.52c-1.43.21-3.29.4-5.29.54l-.53,1.6h5.66l-1.08,3.23H387l-.55,1.63H393l-1.6,4.8a1,1,0,0,1-.77.78,17.51,17.51,0,0,1-2.8.1,4,4,0,0,0,0-.57c1.26,0,2.21,0,2.53,0s.39-.11.47-.34l1.39-4.19H386.2l-.7,2.09,3.06-.12-.73-1.2Zm-7.18-10.14H395l.86-2.58H382Zm.47,6.75h4.91l.66-2h-4.9Zm5.52,0h5l.66-2h-5.05Z"/><path d="M401.1,156a27.41,27.41,0,0,1-2.92,5.39l-.55-.19a27,27,0,0,0,2.92-5.3Zm3.49-4-6.28,18.84h-.63L404,152Zm2.78,17.46,2.09-6.29h-4.84l.2-.61h4.85l1.76-5.28h-3.82a28.71,28.71,0,0,1-3,3.65,4,4,0,0,0-.48-.32,32.75,32.75,0,0,0,5.48-7.63l.59.13c-.68,1.21-1.43,2.41-2.19,3.54h3.59l1.53-4.61h.65l-1.53,4.61h5.26l-.21.63h-5.26l-1.77,5.28h4.79l-.21.61h-4.78L408,169.44h5.62l-.21.6H400.75l.2-.6Zm-2.58-14.17a14,14,0,0,1,.43,3.62l-.66.34a15.34,15.34,0,0,0-.35-3.73Z"/><path d="M367.55,177.78a30.43,30.43,0,0,1-4.25,1l-1.47,4.4h4.28l-.2.61h-4.28l-.24.72c.43.71,2,3.79,2.32,4.54l-.65.51c-.29-.82-1.35-3.13-1.94-4.26l-3.52,10.57H357L360.62,185a42.57,42.57,0,0,1-7.05,7.38,2.33,2.33,0,0,0-.26-.55,38.13,38.13,0,0,0,7.56-8h-4.31l.2-.61h4.46l1.44-4.29c-1.41.25-2.83.44-4.14.58a2.41,2.41,0,0,0,0-.52,49.38,49.38,0,0,0,8.75-1.7ZM375.6,179l-5.31,16h-.61l.55-1.65h-6l-.61,1.8H363l5.36-16.1Zm-5.17,13.69,4.36-13.08h-6l-4.36,13.08Z"/><path d="M385.23,177.23a50.65,50.65,0,0,1-4,5L376.66,196h-.61l4.25-12.77a36.31,36.31,0,0,1-3.48,3.21,1.85,1.85,0,0,0-.29-.5,41.55,41.55,0,0,0,8.15-8.85Zm6.84-.06-1.23,2.28h6l-.21.63h-6.18c-.5.92-1,1.78-1.44,2.47h5.43l-4,12h2.15l-.2.61h-14l.2-.61h2.2l4-12h3.59c.43-.67.91-1.55,1.41-2.47h-5.5l.21-.63h5.62c.46-.86.89-1.72,1.23-2.41Zm-2.18,17.35.76-2.28h-8.39l-.76,2.28Zm-7.43-2.89h8.39l.81-2.43h-8.39Zm1-3h8.38l.81-2.41h-8.39Zm9.39-3,.8-2.39h-8.39l-.8,2.39Z"/><path d="M559.38,41.82c.84-1.74,1.68-3.52,2.33-5h12.35l-.18.46-1.67,4.51h2.92l-.2.61h-3c-.73,1.93-1.34,3.37-1.82,4.44h2.73l-.2.61h-2.79a7.38,7.38,0,0,1-1.41,2.2,2,2,0,0,1-1.4.5c-.55,0-1.59,0-2.57-.1a1.31,1.31,0,0,0,0-.59c1.15.09,2.25.11,2.65.11a1.12,1.12,0,0,0,.87-.28,5.92,5.92,0,0,0,1.18-1.84l-12.28,0h-.42c.7-1.3,1.63-3.13,2.56-5H556l.2-.61Zm5.84-10.46c-.6.78-1.23,1.55-1.9,2.29H577.2l-.2.6H562.76a36.71,36.71,0,0,1-5,4.55c-.1-.08-.3-.29-.43-.4a34,34,0,0,0,7.28-7.21Zm6.14,11.07H559.68c-.8,1.65-1.58,3.23-2.21,4.44h12C570,45.82,570.61,44.38,571.36,42.43Zm-9.31-5L560,41.82h11.62l1.61-4.34Zm.54,5.47a12.55,12.55,0,0,1,3.54,3l-.55.52a13.09,13.09,0,0,0-3.53-3.12ZM565,38.09a10.46,10.46,0,0,1,3.37,2.58l-.57.48a10.81,10.81,0,0,0-3.37-2.62Z"/><path d="M582.67,45.09a35.74,35.74,0,0,1-5.86,4.25,2.23,2.23,0,0,0-.29-.44,33.59,33.59,0,0,0,5.72-4.08Zm6.16-13.69a28.48,28.48,0,0,1-2.22,2.06h7.55l.14-.05.31.28a21.09,21.09,0,0,1-6,4.32,19.05,19.05,0,0,0,8.07,2.82,3.17,3.17,0,0,0-.59.57,18.81,18.81,0,0,1-8.19-3,39.72,39.72,0,0,1-10.26,3.1,1.1,1.1,0,0,0-.11-.58,38.63,38.63,0,0,0,9.9-2.87A7.94,7.94,0,0,1,585,34.69a30,30,0,0,1-5,2.9,1,1,0,0,0-.34-.42,27,27,0,0,0,8.53-5.89Zm-1.2,8.81L586.72,43h6.71l-.21.63h-6.71l-1.88,5.64a1,1,0,0,1-.69.75,9,9,0,0,1-2.05.11,1.85,1.85,0,0,0-.06-.57c.85,0,1.58,0,1.8,0s.29-.06.36-.27l1.89-5.66h-7l.21-.63h7l.91-2.74Zm-1.79-6.15-.22.17a7.43,7.43,0,0,0,2.54,3.44,21,21,0,0,0,5.36-3.61Zm3.21,10.69a18,18,0,0,1,2.83,4.15l-.63.4a17.69,17.69,0,0,0-2.79-4.21Z"/><path d="M605.9,31.3l-1.39,4.19H607l-.2.61H604.3l-.32,1c.23.63.93,3.19,1.08,3.82l-.65.56c-.08-.69-.48-2.39-.75-3.41l-4,12.11H599l4.06-12.2a41.26,41.26,0,0,1-5.53,7.46,1.16,1.16,0,0,0-.32-.48,41.67,41.67,0,0,0,6.34-8.82h-2.83l.2-.61h3l1.4-4.19Zm13.35.29c-1.09,1.26-2.47,2.75-3.62,3.86h3l-.2.61h-5.14L612,39.81h4.4l-.2.6h-4.4l-1.29,3.86h5.62l-.21.63h-5.62l-1.76,5.28H608l1.76-5.28h-6l.21-.63h6l1.29-3.86h-4.32l.2-.6h4.32l1.25-3.75h-5l.21-.61h7.06a44.41,44.41,0,0,0,3.79-4.15Zm-8.43-.15a12,12,0,0,1,.91,3.32l-.65.33a12.24,12.24,0,0,0-.86-3.39Z"/><path d="M622.83,47.79l2.38-7.12h-4.36l.21-.63h9.45l-.21.63h-4.46l-2.32,7L629,46.41l-.14.59c-4,.92-8.3,1.9-11.18,2.53l-.07-.58ZM635,31.4c-.49,1.45-.89,2.85-1.25,4.17h6.65l-.2.61h-6.63c-2.14,8.18-1.92,13.44.76,13.44.72,0,1.36-1.18,2.5-4.15a1.42,1.42,0,0,0,.49.29c-1.28,3.33-2,4.49-3.24,4.49-3.23,0-3.24-5.87-1.12-14.07H621.67l.21-.61h11.23c.35-1.34.77-2.72,1.23-4.17Zm2.2.19a12.8,12.8,0,0,1,2.41,2.77l-.6.46A12.15,12.15,0,0,0,636.61,32Z"/><path d="M640.64,47.14a2.65,2.65,0,0,0,1.46-1.42l4.2-12.6h.6l-4.41,13.25,6.57-2.48c0,.13,0,.4,0,.53-7,2.66-7.69,2.93-8.25,3.31A5.08,5.08,0,0,0,640.64,47.14ZM660,32.07c-2.06,5.16-3.94,9-6.39,12A22.52,22.52,0,0,1,657,49.78l-.67.38a21.56,21.56,0,0,0-3.19-5.59,20.78,20.78,0,0,1-8.74,5.78,1.52,1.52,0,0,0-.27-.52c8.1-2.79,11.35-8,15.2-17.8Zm-8.65,1a19.83,19.83,0,0,1,1.66,5l-.64.29a17.94,17.94,0,0,0-1.63-5Z"/><path class="cls-4" d="M572.76,64.55s-.11.31-.16.42c-2.57,6.58-3.66,8.9-4.67,9.66a2.09,2.09,0,0,1-1.5.46c-.67,0-2,0-3.41-.13a1.3,1.3,0,0,0,0-.62c1.52.14,3,.16,3.48.16a1.58,1.58,0,0,0,1-.23c.82-.61,2-2.89,4.39-9.12h-7c-2,4.3-4.75,8.35-10.62,10.17a2.67,2.67,0,0,0-.23-.44c5.75-1.72,8.35-5.68,10.2-9.73h-4.69l.2-.6Zm-6.56-7.42a32.92,32.92,0,0,1-8.81,8.24A2.23,2.23,0,0,0,557,65a29.51,29.51,0,0,0,8.63-8Zm9.6,7.54a4.74,4.74,0,0,0-.67.51c-1.62-1.62-3.07-5-3.47-8l.62-.23C572.61,59.89,574.11,63.18,575.8,64.67Z"/><path class="cls-4" d="M596.19,64.8l-.2.61H583.52c-.66,1-1.46,2.18-2.15,3.1h11l-.18.4c-1.87,3.79-2.93,5.34-3.93,6a2.59,2.59,0,0,1-1.46.36c-.6,0-2,0-3.43-.13a1.34,1.34,0,0,0,0-.63,33.64,33.64,0,0,0,3.52.19,1.76,1.76,0,0,0,1-.19c.86-.52,1.83-2,3.51-5.38l-10.81,0h-.38c.79-1,1.81-2.48,2.64-3.69h-4.72l.2-.61Zm-.08-7.42-1.65,4.95H581.8l1.65-4.95Zm-13.48,4.34H594L595.28,58H583.87Z"/><path d="M603.67,71.55l-.15.56c-2.76.61-5.6,1.2-7.64,1.66l.07-.65C597.87,72.76,600.77,72.14,603.67,71.55ZM599,64a4.53,4.53,0,0,0,1.54-1.3,53.78,53.78,0,0,0,5-6l.54.27a62.53,62.53,0,0,1-5.91,6.85l4-.4c.73-.73,1.49-1.5,2.16-2.26l.52.32a84.35,84.35,0,0,1-7.85,7.18l6.08-1a5.08,5.08,0,0,0-.14.56c-6.37,1.12-7,1.24-7.42,1.45a3.75,3.75,0,0,0,0-.67,6.57,6.57,0,0,0,2-1.38c.62-.49,2.24-1.89,4-3.57a28.05,28.05,0,0,0-4.47.65A5.3,5.3,0,0,0,599,64Zm16.5,3.65L613,75.17h-.61l.28-.81h-7.85l-.3.9h-.6l2.54-7.63Zm-2.65,6.12,1.84-5.51h-7.85L605,73.75ZM615,56.37l-1,3.06h5.14l-.21.61h-5.13l-1.41,4.21h4.91l-.21.63H606.75l.21-.63h4.76l1.4-4.21h-5.26l.2-.61h5.26l1-3.06Z"/><path d="M629.65,62.45l1-2.93h-8.45l.21-.63h8.45l.82-2.48h.63l-.82,2.48H640l-.21.63h-8.57l-1,2.93h7l-1.77,5.33H629a12.33,12.33,0,0,0,6.87,6.09,4.15,4.15,0,0,0-.6.51,13.4,13.4,0,0,1-6.85-6.21L626,75.26h-.63l2.34-7a34.33,34.33,0,0,1-10.67,6.12,1.58,1.58,0,0,0-.28-.51,32.28,32.28,0,0,0,10.73-6.07H621l1.77-5.33Zm-7.87,4.7h6.31l1.36-4.09h-6.31Zm6.94,0h6.35l1.36-4.09h-6.35Z"/><line class="cls-1" x1="542.14" y1="53.71" x2="507.28" y2="53.71"/><polygon class="cls-2" points="508.77 49.23 499.81 53.71 508.77 58.19 508.77 49.23 508.77 49.23"/><rect class="cls-5" x="0.14" y="0.14" width="677.04" height="211.59" rx="35.26" ry="35.26"/><line class="cls-1" x1="762.36" y1="135.59" x2="685.18" y2="135.59"/><polygon class="cls-2" points="686.68 131.11 677.72 135.59 686.68 140.06 686.68 131.11 686.68 131.11"/><path d="M693.86,99.37c.46.13.75.57,1.47,1,1,.71,2.75.82,5,.82,2.66,0,5.9-.11,8.12-.3a3.39,3.39,0,0,0-.48.76c-1.84.1-5.77.21-7.87.21-2.37,0-4.14-.17-5.25-.93-.62-.46-1.06-1-1.5-1-.75,0-2.12.88-3.72,2.09l-.29-.56a11.57,11.57,0,0,1,3.87-2.12l2.43-7.29H692.6l.21-.61h3.68Zm5.87-9.87c1.41,1.25,2.94,2.74,4.33,4.23a26.75,26.75,0,0,0,5.22-6.08H699.19l.21-.63h13.52l-.21.63H710a28.61,28.61,0,0,1-5.55,6.46,52.63,52.63,0,0,1,3.66,4.36l-.71.5a40.51,40.51,0,0,0-3.53-4.38A28,28,0,0,1,695.61,99a2.42,2.42,0,0,0-.25-.58,25.13,25.13,0,0,0,8.13-4.26,55.25,55.25,0,0,0-4.38-4.3Zm-3.61-5a9.14,9.14,0,0,1,2,3.18l-.6.36a10.65,10.65,0,0,0-2-3.25Zm10.19-1.09a14.53,14.53,0,0,1,.75,3l-.68.28a11.63,11.63,0,0,0-.72-3.06Z"/><path d="M726.67,83.71l-.77.78c1,3.2,3.25,5.66,6.63,7.86a2.58,2.58,0,0,0-.62.48c-3.28-2.24-5.4-4.7-6.48-7.86a42.41,42.41,0,0,1-11.62,7.82,2.07,2.07,0,0,0-.34-.44,40.42,40.42,0,0,0,12.75-8.89ZM724.39,89,720,102.35h-.63L723.76,89Z"/><path d="M737.46,97.29l-1.28,3.84h4.68l1.75-5.26h-7.55l.21-.63h15.92l-.21.63h-7.74l-.75,2.24h6.67l-.2.61h-6.67l-.8,2.41h9.16l-.2.61H731.56l.2-.61h3.79l1.28-3.84Zm3.69-10.12.48-1.43h-4.51l.21-.62h4.5l.56-1.66h.6l-.55,1.66h4.34l-.21.62h-4.34l-.47,1.43h3.56l-1.1,3.29h-3.56l-1.36,4.09h-.61l1.14-3.42a20.9,20.9,0,0,1-5.49,3.33,1.7,1.7,0,0,0-.29-.46,18.33,18.33,0,0,0,5.88-3.54H736.3l1.1-3.29Zm-4,2.68h3.13l.68-2h-3.12Zm3.8,1.05a8.65,8.65,0,0,1,2.56,1.95l-.5.48a10.83,10.83,0,0,0-2.55-2Zm-.07-1.05h2.94l.68-2h-2.93Zm10-6.26A26.41,26.41,0,0,1,749.19,86h6.43l-.21.63h-1.3a17.9,17.9,0,0,1-4.3,4.8,6.79,6.79,0,0,0,3.13,2.68,3.78,3.78,0,0,0-.59.52,7.48,7.48,0,0,1-3.1-2.78,21.68,21.68,0,0,1-5.42,2.72,2,2,0,0,0-.26-.52A19.16,19.16,0,0,0,749,91.43a9.45,9.45,0,0,1-1-4,18.39,18.39,0,0,1-2.27,2.12,1.89,1.89,0,0,0-.4-.4,20.14,20.14,0,0,0,5-5.68Zm-2.32,3.18a9,9,0,0,0,1,4.24,16.6,16.6,0,0,0,3.9-4.36h-4.8Z"/><path d="M764.09,83.69a51.49,51.49,0,0,1-3.68,4.82l-4.6,13.79h-.61l4.23-12.7a35.94,35.94,0,0,1-3.4,3.29,1.84,1.84,0,0,0-.31-.5,41.48,41.48,0,0,0,7.83-8.85Zm1.43,13.77,2.87-8.63h-.1a37.42,37.42,0,0,1-9.77,9.87.9.9,0,0,0-.3-.48c3-1.78,6.83-5.6,9.48-9.39h-5.83l.21-.63h6.52l1.57-4.7h.61l-1.57,4.7H776l-.21.63h-6c0,3.79,1.19,7.56,3.14,9.3a5.09,5.09,0,0,0-.69.51c-1.92-1.91-3.06-5.85-3.1-9.81H769l-2.88,8.63h4l-.21.63h-4l-1.39,4.17h-.6l1.39-4.17h-4.16l.21-.63Z"/><path d="M785.22,83.69a51.58,51.58,0,0,1-3.69,4.82l-4.59,13.79h-.61l4.23-12.7a37.18,37.18,0,0,1-3.4,3.29,1.84,1.84,0,0,0-.31-.5,41.48,41.48,0,0,0,7.83-8.85Zm5.2,4,.76-2.29h-6.31l.21-.63h13l-.21.63h-6.12L791,87.72h5.16l-2.48,7.46h-5.25A10.52,10.52,0,0,1,785,99.56a18.08,18.08,0,0,0,7.73,2.12,3,3,0,0,0-.57.56,18.09,18.09,0,0,1-7.74-2.26,19.32,19.32,0,0,1-6.08,2.47,1.22,1.22,0,0,0-.16-.52,18.36,18.36,0,0,0,5.8-2.27,5.77,5.77,0,0,1-2.34-3.48l.62-.21a5.42,5.42,0,0,0,2.3,3.29,9.85,9.85,0,0,0,3.25-4.08h-5.39l2.48-7.46Zm-7.15,6.85h4.82c.2-.48.37-1,.53-1.47l.46-1.36h-4.87Zm1.15-3.46h4.87l.93-2.79h-4.87Zm4.82,2c-.17.5-.33,1-.54,1.49h4.59l.94-2.83h-4.55Zm.65-2h4.55l.93-2.79h-4.55Z"/><path d="M696.55,119.68a23.76,23.76,0,0,1-1.3,2.21,4,4,0,0,0,3.54,4.1l2.44-7.31h-9.06l.2-.61h18.52l-.21.61h-8.83l-1,3.1h7.42l-.2.61h-7.42l-1.24,3.71a19.91,19.91,0,0,0,3.16.21h5.83a3.06,3.06,0,0,0-.5.63h-5.52c-4.69,0-7.18-.8-7.66-4.24a17,17,0,0,1-5.17,4.74,1.69,1.69,0,0,0-.35-.44,17.14,17.14,0,0,0,6.78-7.4Zm14.57-10.12-2.19,6.56H695.47l2.19-6.56Zm-14.83,6h12.22l.79-2.39H697.08Zm1-3h12.23l.78-2.35H698.07Z"/><path d="M732.34,117.42l-.23.69h-19l.23-.69Z"/><path d="M739.1,122.33a36.34,36.34,0,0,1-5.86,4.25,2,2,0,0,0-.29-.44,33.12,33.12,0,0,0,5.72-4.09Zm6.16-13.69a25.14,25.14,0,0,1-2.22,2h7.55l.14,0,.31.27a20.9,20.9,0,0,1-6,4.32,18.92,18.92,0,0,0,8.07,2.83,2.85,2.85,0,0,0-.58.57,18.93,18.93,0,0,1-8.2-3,39.77,39.77,0,0,1-10.25,3.1,1.27,1.27,0,0,0-.12-.59,37.91,37.91,0,0,0,9.91-2.87,7.79,7.79,0,0,1-2.44-3.31,30.25,30.25,0,0,1-5,2.89,1.29,1.29,0,0,0-.35-.42,26.64,26.64,0,0,0,8.53-5.89Zm-1.2,8.8-.91,2.75h6.71l-.21.63h-6.71l-1.88,5.63a1,1,0,0,1-.69.76,9.83,9.83,0,0,1-2,.1,1.81,1.81,0,0,0-.06-.56c.85,0,1.58,0,1.8,0s.29-.06.36-.27l1.89-5.66h-7l.21-.63h7l.91-2.75Zm-1.78-6.14-.23.17a7.58,7.58,0,0,0,2.55,3.44A21.37,21.37,0,0,0,750,111.3Zm3.2,10.69a18,18,0,0,1,2.83,4.15l-.63.4a17.49,17.49,0,0,0-2.79-4.21Z"/><path d="M762.59,108.76l-1.17,3.52h3.21l-.21.63h-3.21l-.92,2.77-.5,1.45h3.48l-.21.63h-3.51c-.23.62-.5,1.25-.8,1.9.52.9,1.84,3.55,2.14,4.22l-.66.52a43,43,0,0,0-1.81-4.07,16.75,16.75,0,0,1-6,6.88,1.38,1.38,0,0,0-.28-.48c3.81-2.31,5.64-5.91,6.79-9h-3.76l.21-.63h3.78l.49-1.43.93-2.79h-3.29l.21-.63h3.29l1.17-3.52Zm7.85,3.78-1.58,4.73c-1.15,3.44-3.32,7.45-9.57,10.15a1,1,0,0,0-.24-.48c6.1-2.64,8.11-6.4,9.2-9.67l1.58-4.73Zm4.61-2.9-3.71,11.13h-.61l3.51-10.52h-6.75L764,120.77h-.63l3.71-11.13Zm-6.33,10.51-1.85,5.55c-.2.59,0,.71.57.71h2c.81,0,1.09-.52,2.28-3.77a.9.9,0,0,0,.5.31c-1.23,3.34-1.59,4-3,4h-2c-1,0-1.38-.27-1-1.26l1.87-5.59Z"/><path d="M784.16,112.1l-1.94,5.84a14.85,14.85,0,0,1-8.57,9.52.78.78,0,0,0-.29-.44,14.05,14.05,0,0,0,8.25-9.1l1.95-5.82Zm4.65-2.29-4.18,12.52H784l4-11.91h-7.06l-4,11.91h-.61l4.17-12.52ZM780.88,123a17.29,17.29,0,0,1,2.52,3.34l-.6.52a18.33,18.33,0,0,0-2.49-3.46ZM796.8,108.6,791,126.14a1.42,1.42,0,0,1-1.09,1.07,25.59,25.59,0,0,1-3.43.1,2.65,2.65,0,0,0-.09-.6c1.6,0,2.88,0,3.25,0a.71.71,0,0,0,.75-.55l5.85-17.56Zm-4.48,1.8-4.07,12.2h-.63l4.07-12.2Z"/></svg>