<svg id="图层_1" data-name="图层 1" xmlns="http://www.w3.org/2000/svg" viewBox="0 0 378.67 89.44"><defs><style>.cls-1{fill:gray;}.cls-2{fill:red;}.cls-3,.cls-4{fill:none;stroke-miterlimit:8;stroke-width:0.28px;}.cls-3{stroke:red;}.cls-4{stroke:#00b0f0;}</style></defs><title>标签属性</title><path d="M94.2,214l6.28-3.5a.52.52,0,0,1,.23-.09.27.27,0,0,1,.2.09.29.29,0,0,1,.09.21q0,.17-.24.3l-5.38,3,5.38,3c.15.09.23.19.23.3a.29.29,0,0,1-.09.21.25.25,0,0,1-.2.09.52.52,0,0,1-.23-.09Z" transform="translate(-94.07 -177.82)"/><path d="M108,218v-.83a4.15,4.15,0,0,1-2.71,1.06,2.3,2.3,0,0,1-1.63-.53,1.64,1.64,0,0,1-.59-1.29,1.87,1.87,0,0,1,.77-1.48,3.53,3.53,0,0,1,2.27-.63c.26,0,.56,0,.87.05s.65.09,1,.17v-.94a1.06,1.06,0,0,0-.45-.84,2.11,2.11,0,0,0-1.33-.35,6.55,6.55,0,0,0-1.9.4l-.28.07a.23.23,0,0,1-.19-.09.25.25,0,0,1-.08-.21.23.23,0,0,1,.07-.18,2.21,2.21,0,0,1,.78-.29,7.08,7.08,0,0,1,1.63-.29,2.47,2.47,0,0,1,1.72.55,1.6,1.6,0,0,1,.61,1.23v3.84h.78a.47.47,0,0,1,.3.08.29.29,0,0,1,.09.21.26.26,0,0,1-.09.21.42.42,0,0,1-.3.08Zm0-2.89a5.83,5.83,0,0,0-.87-.17,7.27,7.27,0,0,0-1-.06,3.21,3.21,0,0,0-2,.55,1.2,1.2,0,0,0-.54,1,1.13,1.13,0,0,0,.41.88,1.79,1.79,0,0,0,1.2.36,3.26,3.26,0,0,0,1.4-.3,5,5,0,0,0,1.34-1Z" transform="translate(-94.07 -177.82)"/><path d="M121.37,209.3v3.58a3.79,3.79,0,0,1,1.06-.85,2.65,2.65,0,0,1,1.14-.25,2.55,2.55,0,0,1,1.16.24,2.06,2.06,0,0,1,.79.74,1.9,1.9,0,0,1,.32,1v3.6h.65a.47.47,0,0,1,.3.08.28.28,0,0,1,.08.21.25.25,0,0,1-.08.21.42.42,0,0,1-.3.08H124.6a.43.43,0,0,1-.31-.08.26.26,0,0,1-.09-.21.29.29,0,0,1,.09-.21.48.48,0,0,1,.31-.08h.65v-3.56a1.35,1.35,0,0,0-.46-1.05,1.78,1.78,0,0,0-1.26-.43,1.89,1.89,0,0,0-1.09.32,7.6,7.6,0,0,0-1.07,1v3.68H122a.47.47,0,0,1,.3.08.29.29,0,0,1,.09.21.26.26,0,0,1-.09.21.42.42,0,0,1-.3.08h-1.9a.4.4,0,0,1-.29-.08.26.26,0,0,1-.09-.21.29.29,0,0,1,.09-.21.46.46,0,0,1,.29-.08h.66v-7.51H120a.41.41,0,0,1-.3-.09.26.26,0,0,1-.09-.21.29.29,0,0,1,.09-.21.47.47,0,0,1,.3-.08Z" transform="translate(-94.07 -177.82)"/><path d="M131.1,212v1.47a10.19,10.19,0,0,1,1.69-1.32,2.26,2.26,0,0,1,1.05-.29,1.5,1.5,0,0,1,1,.35c.3.23.45.4.45.52a.28.28,0,0,1-.09.22.29.29,0,0,1-.22.09.2.2,0,0,1-.11,0,.48.48,0,0,1-.18-.15,2,2,0,0,0-.43-.33.76.76,0,0,0-.35-.09,2,2,0,0,0-.92.3,13.93,13.93,0,0,0-1.85,1.49v3.18h2.57a.47.47,0,0,1,.3.08.29.29,0,0,1,.09.21.26.26,0,0,1-.09.21.42.42,0,0,1-.3.08h-4.56a.47.47,0,0,1-.3-.07.29.29,0,0,1-.09-.21.27.27,0,0,1,.09-.2.47.47,0,0,1,.3-.08h1.4v-4.84h-1.07a.47.47,0,0,1-.3-.08.29.29,0,0,1-.09-.22.29.29,0,0,1,.09-.21.47.47,0,0,1,.3-.08Z" transform="translate(-94.07 -177.82)"/><path d="M143.44,215.13h-5.92a2.79,2.79,0,0,0,.94,1.81,2.9,2.9,0,0,0,2,.69,4.86,4.86,0,0,0,1.37-.21,3.8,3.8,0,0,0,1.16-.57.38.38,0,0,1,.23-.1.24.24,0,0,1,.19.08.29.29,0,0,1,.09.21.31.31,0,0,1-.11.22,3.08,3.08,0,0,1-1.18.65,5.24,5.24,0,0,1-1.75.3,3.4,3.4,0,0,1-2.49-1,3.17,3.17,0,0,1-1-2.37,2.89,2.89,0,0,1,.94-2.17,3.22,3.22,0,0,1,2.32-.91,3.18,3.18,0,0,1,2.35.93A3.26,3.26,0,0,1,143.44,215.13Zm-.59-.59a2.51,2.51,0,0,0-.91-1.57,2.85,2.85,0,0,0-3.5,0,2.58,2.58,0,0,0-.92,1.57Z" transform="translate(-94.07 -177.82)"/><path d="M148.42,212.58v4.82H151a.47.47,0,0,1,.3.08.29.29,0,0,1,.09.21.26.26,0,0,1-.09.21.42.42,0,0,1-.3.08h-4.55a.4.4,0,0,1-.29-.08.26.26,0,0,1-.09-.21.29.29,0,0,1,.09-.21.46.46,0,0,1,.29-.08h1.41v-4.82h-1.26a.47.47,0,0,1-.3-.08.29.29,0,0,1-.09-.22.29.29,0,0,1,.09-.21.47.47,0,0,1,.3-.08h1.26v-.88a1.68,1.68,0,0,1,.59-1.27,2.28,2.28,0,0,1,1.58-.54,11.11,11.11,0,0,1,1.76.15,1,1,0,0,1,.43.13.32.32,0,0,1,.07.2.3.3,0,0,1-.08.21.34.34,0,0,1-.23.08l-.18,0a11.64,11.64,0,0,0-1.77-.16,1.68,1.68,0,0,0-1.17.37,1.13,1.13,0,0,0-.41.85V212h2.72a.47.47,0,0,1,.3.08.29.29,0,0,1,.09.22.29.29,0,0,1-.09.21.47.47,0,0,1-.3.08Z" transform="translate(-94.07 -177.82)"/><path d="M160.48,213.17h-6.34a.42.42,0,0,1-.3-.08.27.27,0,0,1-.09-.21.26.26,0,0,1,.09-.21.42.42,0,0,1,.3-.08h6.34a.42.42,0,0,1,.3.08.27.27,0,0,1,.09.21.26.26,0,0,1-.09.21A.42.42,0,0,1,160.48,213.17Zm0,2.09h-6.34a.47.47,0,0,1-.3-.08.27.27,0,0,1-.09-.21.26.26,0,0,1,.09-.21.42.42,0,0,1,.3-.08h6.34a.42.42,0,0,1,.3.08.26.26,0,0,1,.09.21.27.27,0,0,1-.09.21A.47.47,0,0,1,160.48,215.26Z" transform="translate(-94.07 -177.82)"/><path d="M163.4,209.44h1.84l-.48,3.37a.64.64,0,0,1-.16.37.38.38,0,0,1-.28.11.39.39,0,0,1-.28-.11.58.58,0,0,1-.15-.37Zm3,0h1.84l-.48,3.37a.64.64,0,0,1-.16.37.37.37,0,0,1-.27.11.4.4,0,0,1-.29-.11.58.58,0,0,1-.15-.37Z" transform="translate(-94.07 -177.82)"/><path d="M172.4,209.3v3.58a3.68,3.68,0,0,1,1.07-.85,2.65,2.65,0,0,1,1.14-.25,2.54,2.54,0,0,1,1.15.24,2.06,2.06,0,0,1,.79.74,1.9,1.9,0,0,1,.32,1v3.6h.65a.47.47,0,0,1,.3.08.29.29,0,0,1,.09.21.26.26,0,0,1-.09.21.42.42,0,0,1-.3.08h-1.89a.4.4,0,0,1-.3-.08.27.27,0,0,1-.1-.21.3.3,0,0,1,.1-.21.45.45,0,0,1,.3-.08h.65v-3.56a1.38,1.38,0,0,0-.45-1.05,2,2,0,0,0-2.35-.11,7,7,0,0,0-1.08,1v3.68h.66a.47.47,0,0,1,.3.08.29.29,0,0,1,.09.21.26.26,0,0,1-.09.21.42.42,0,0,1-.3.08h-1.89a.42.42,0,0,1-.3-.08.26.26,0,0,1-.09-.21.29.29,0,0,1,.09-.21.47.47,0,0,1,.3-.08h.65v-7.51H171a.41.41,0,0,1-.3-.09.26.26,0,0,1-.09-.21.29.29,0,0,1,.09-.21.47.47,0,0,1,.3-.08Z" transform="translate(-94.07 -177.82)"/><path d="M181.63,212h3.16a.46.46,0,0,1,.29.08.29.29,0,0,1,.09.22.29.29,0,0,1-.09.21.46.46,0,0,1-.29.08h-3.16v3.87a1,1,0,0,0,.4.84,1.8,1.8,0,0,0,1.19.34,5.42,5.42,0,0,0,1.27-.17,4.24,4.24,0,0,0,1.07-.4.45.45,0,0,1,.23-.09.27.27,0,0,1,.19.08.29.29,0,0,1,.09.21.26.26,0,0,1-.09.19,3,3,0,0,1-1.08.5,5.76,5.76,0,0,1-1.64.26,2.58,2.58,0,0,1-1.62-.47,1.57,1.57,0,0,1-.6-1.29v-3.87H180a.47.47,0,0,1-.3-.08.29.29,0,0,1-.09-.22.29.29,0,0,1,.09-.21.47.47,0,0,1,.3-.08H181v-1.72a.46.46,0,0,1,.08-.29.29.29,0,0,1,.21-.09.29.29,0,0,1,.22.09.46.46,0,0,1,.08.29Z" transform="translate(-94.07 -177.82)"/><path d="M190.14,212h3.15a.47.47,0,0,1,.3.08.29.29,0,0,1,.09.22.29.29,0,0,1-.09.21.47.47,0,0,1-.3.08h-3.15v3.87a1,1,0,0,0,.4.84,1.8,1.8,0,0,0,1.19.34,5.49,5.49,0,0,0,1.27-.17,4.39,4.39,0,0,0,1.07-.4.42.42,0,0,1,.22-.09.3.3,0,0,1,.2.08.32.32,0,0,1,.08.21.26.26,0,0,1-.09.19,3,3,0,0,1-1.08.5,5.7,5.7,0,0,1-1.63.26,2.58,2.58,0,0,1-1.62-.47,1.57,1.57,0,0,1-.6-1.29v-3.87h-1.08a.46.46,0,0,1-.29-.08.29.29,0,0,1-.09-.22.29.29,0,0,1,.09-.21.46.46,0,0,1,.29-.08h1.08v-1.72a.4.4,0,0,1,.08-.29.29.29,0,0,1,.42,0,.4.4,0,0,1,.09.29Z" transform="translate(-94.07 -177.82)"/><path d="M197.64,212v1.06a3.76,3.76,0,0,1,1.12-1,2.92,2.92,0,0,1,1.4-.32,3.25,3.25,0,0,1,1.59.41,2.78,2.78,0,0,1,1.12,1.11,3,3,0,0,1,.4,1.51,2.9,2.9,0,0,1-.9,2.14,3,3,0,0,1-2.2.89,3,3,0,0,1-2.53-1.27v3.5h1.42a.46.46,0,0,1,.29.08.29.29,0,0,1,.09.22.25.25,0,0,1-.09.2.4.4,0,0,1-.29.09h-2.78a.47.47,0,0,1-.3-.08.29.29,0,0,1-.09-.21.29.29,0,0,1,.09-.22.47.47,0,0,1,.3-.08h.78v-7.49h-.78a.47.47,0,0,1-.3-.08.29.29,0,0,1-.09-.22.29.29,0,0,1,.09-.21.47.47,0,0,1,.3-.08Zm5,2.82a2.31,2.31,0,0,0-.73-1.72,2.57,2.57,0,0,0-3.57,0,2.37,2.37,0,0,0,0,3.44,2.45,2.45,0,0,0,1.79.72,2.48,2.48,0,0,0,1.78-.71A2.34,2.34,0,0,0,202.68,214.81Z" transform="translate(-94.07 -177.82)"/><path d="M210.26,212.37a.46.46,0,0,1,.08-.29.29.29,0,0,1,.21-.09.29.29,0,0,1,.22.09.48.48,0,0,1,.08.31v1a.47.47,0,0,1-.08.3.29.29,0,0,1-.22.09.3.3,0,0,1-.2-.08.39.39,0,0,1-.09-.25.93.93,0,0,0-.43-.68,2.61,2.61,0,0,0-1.5-.39,2.5,2.5,0,0,0-1.52.4.82.82,0,0,0-.4.66.79.79,0,0,0,.48.69,3.56,3.56,0,0,0,1.26.3,8.63,8.63,0,0,1,1.68.3,2.08,2.08,0,0,1,1,.67,1.49,1.49,0,0,1,.33.93,1.67,1.67,0,0,1-.71,1.31,3.25,3.25,0,0,1-2.09.58,3.51,3.51,0,0,1-2.26-.7,1,1,0,0,1,0,.31.35.35,0,0,1-.1.12.29.29,0,0,1-.16,0,.25.25,0,0,1-.21-.09.44.44,0,0,1-.08-.29v-1.2a.47.47,0,0,1,.08-.3.26.26,0,0,1,.21-.09.29.29,0,0,1,.21.09.3.3,0,0,1,.09.23.84.84,0,0,0,.16.53,1.72,1.72,0,0,0,.77.55,3.3,3.3,0,0,0,1.3.22,2.75,2.75,0,0,0,1.68-.42,1.17,1.17,0,0,0,.56-.89,1,1,0,0,0-.56-.87,4.35,4.35,0,0,0-1.65-.43,7.11,7.11,0,0,1-1.56-.3,1.59,1.59,0,0,1-.73-.53,1.26,1.26,0,0,1-.26-.78,1.34,1.34,0,0,1,.73-1.19,3.37,3.37,0,0,1,1.75-.44A3.11,3.11,0,0,1,210.26,212.37Z" transform="translate(-94.07 -177.82)"/><path d="M216.72,212H217a.94.94,0,0,1,.94.94.88.88,0,0,1-.28.67.9.9,0,0,1-.66.27h-.25a.91.91,0,0,1-.66-.27.94.94,0,0,1,0-1.34A.93.93,0,0,1,216.72,212Zm0,4.33H217a.94.94,0,0,1,.67.27.9.9,0,0,1,.27.66.88.88,0,0,1-.28.67.9.9,0,0,1-.66.27h-.25a.93.93,0,0,1-.66-1.6A.93.93,0,0,1,216.72,216.32Z" transform="translate(-94.07 -177.82)"/><path d="M228,208.88l-4.68,10a.34.34,0,0,1-.3.25.24.24,0,0,1-.2-.08.26.26,0,0,1-.09-.19.53.53,0,0,1,.07-.23l4.67-10a.47.47,0,0,1,.15-.21.28.28,0,0,1,.16,0,.29.29,0,0,1,.21.09.29.29,0,0,1,.08.19A.56.56,0,0,1,228,208.88Z" transform="translate(-94.07 -177.82)"/><path d="M236.47,208.88l-4.68,10c-.08.17-.18.25-.3.25a.28.28,0,0,1-.21-.08.26.26,0,0,1-.09-.19.71.71,0,0,1,.07-.23l4.68-10a.47.47,0,0,1,.14-.21.31.31,0,0,1,.17,0,.27.27,0,0,1,.2.09.26.26,0,0,1,.09.19A.79.79,0,0,1,236.47,208.88Z" transform="translate(-94.07 -177.82)"/><path d="M244.36,218h-.71l-1.29-3.74L241.09,218h-.72l-1.2-5.4h-.29a.46.46,0,0,1-.29-.08.29.29,0,0,1-.09-.22.29.29,0,0,1,.09-.21.46.46,0,0,1,.29-.08h1.6a.47.47,0,0,1,.3.08.29.29,0,0,1,.09.22.29.29,0,0,1-.09.21.47.47,0,0,1-.3.08h-.74l1,4.61,1.24-3.68h.69l1.28,3.68,1-4.61h-.74a.47.47,0,0,1-.3-.08.29.29,0,0,1-.09-.22.29.29,0,0,1,.09-.21.47.47,0,0,1,.3-.08h1.59a.48.48,0,0,1,.31.08.29.29,0,0,1,.09.22.29.29,0,0,1-.09.21.48.48,0,0,1-.31.08h-.27Z" transform="translate(-94.07 -177.82)"/><path d="M252.87,218h-.72l-1.28-3.74L249.6,218h-.72l-1.21-5.4h-.28a.47.47,0,0,1-.3-.08.29.29,0,0,1-.09-.22.29.29,0,0,1,.09-.21.47.47,0,0,1,.3-.08H249a.47.47,0,0,1,.3.08.29.29,0,0,1,.09.22.29.29,0,0,1-.09.21.47.47,0,0,1-.3.08h-.74l1,4.61,1.24-3.68h.69l1.27,3.68,1-4.61h-.73a.47.47,0,0,1-.3-.08.3.3,0,0,1-.1-.22.29.29,0,0,1,.09-.21.5.5,0,0,1,.31-.08h1.59a.47.47,0,0,1,.3.08.29.29,0,0,1,.09.22.29.29,0,0,1-.09.21.47.47,0,0,1-.3.08h-.28Z" transform="translate(-94.07 -177.82)"/><path d="M261.38,218h-.72l-1.28-3.74L258.1,218h-.72l-1.2-5.4h-.29a.46.46,0,0,1-.29-.08.29.29,0,0,1-.09-.22.29.29,0,0,1,.09-.21.46.46,0,0,1,.29-.08h1.6a.47.47,0,0,1,.3.08.29.29,0,0,1,.09.22.29.29,0,0,1-.09.21.47.47,0,0,1-.3.08h-.74l1,4.61,1.24-3.68h.69l1.28,3.68,1-4.61h-.74a.49.49,0,0,1-.3-.08.29.29,0,0,1-.09-.22.29.29,0,0,1,.09-.21.47.47,0,0,1,.3-.08h1.6a.47.47,0,0,1,.3.08.29.29,0,0,1,.09.22.29.29,0,0,1-.09.21.47.47,0,0,1-.3.08h-.28Z" transform="translate(-94.07 -177.82)"/><path d="M267.76,216.32H268a.93.93,0,0,1,.66.27.93.93,0,0,1,0,1.33.93.93,0,0,1-.66.27h-.25a.94.94,0,0,1-.67-.27.91.91,0,0,1-.28-.66.88.88,0,0,1,.29-.67A.9.9,0,0,1,267.76,216.32Z" transform="translate(-94.07 -177.82)"/><path d="M278.3,212.37a.4.4,0,0,1,.09-.29.25.25,0,0,1,.2-.09.29.29,0,0,1,.22.09.48.48,0,0,1,.08.31v1a.47.47,0,0,1-.08.3.29.29,0,0,1-.22.09.27.27,0,0,1-.19-.08.34.34,0,0,1-.1-.25.91.91,0,0,0-.43-.68,2.57,2.57,0,0,0-1.5-.39,2.47,2.47,0,0,0-1.51.4.8.8,0,0,0-.41.66.79.79,0,0,0,.48.69,3.56,3.56,0,0,0,1.26.3,8.63,8.63,0,0,1,1.68.3,2.08,2.08,0,0,1,1,.67,1.49,1.49,0,0,1,.33.93,1.67,1.67,0,0,1-.71,1.31,3.23,3.23,0,0,1-2.09.58,3.51,3.51,0,0,1-2.26-.7,1.76,1.76,0,0,1,0,.31.53.53,0,0,1-.1.12.33.33,0,0,1-.17,0,.22.22,0,0,1-.2-.09.39.39,0,0,1-.09-.29v-1.2a.47.47,0,0,1,.08-.3.27.27,0,0,1,.21-.09.26.26,0,0,1,.21.09.3.3,0,0,1,.09.23.84.84,0,0,0,.16.53,1.72,1.72,0,0,0,.77.55,3.33,3.33,0,0,0,1.3.22,2.78,2.78,0,0,0,1.69-.42,1.15,1.15,0,0,0,.55-.89,1,1,0,0,0-.56-.87,4.35,4.35,0,0,0-1.65-.43,6.86,6.86,0,0,1-1.55-.3,1.57,1.57,0,0,1-.74-.53,1.32,1.32,0,0,1,.47-2,3.39,3.39,0,0,1,1.75-.44A3.09,3.09,0,0,1,278.3,212.37Z" transform="translate(-94.07 -177.82)"/><path d="M287.31,212.58v-.19a.43.43,0,0,1,.09-.31.25.25,0,0,1,.2-.09.29.29,0,0,1,.22.09.48.48,0,0,1,.08.31v1.31a.45.45,0,0,1-.08.3.27.27,0,0,1-.22.1.27.27,0,0,1-.19-.08.42.42,0,0,1-.1-.27,1.35,1.35,0,0,0-.64-.94,2.76,2.76,0,0,0-1.63-.44,2.41,2.41,0,0,0-2,.81,2.82,2.82,0,0,0-.67,1.86,2.52,2.52,0,0,0,.74,1.86,2.59,2.59,0,0,0,1.92.73,4,4,0,0,0,1.38-.25,3.37,3.37,0,0,0,1.27-.8.4.4,0,0,1,.25-.14.27.27,0,0,1,.28.28c0,.2-.23.45-.7.75a4.42,4.42,0,0,1-2.51.74,3.16,3.16,0,0,1-2.31-.89,3.09,3.09,0,0,1-.9-2.28,3.2,3.2,0,0,1,.92-2.33,3.15,3.15,0,0,1,2.33-.93A3.27,3.27,0,0,1,287.31,212.58Z" transform="translate(-94.07 -177.82)"/><path d="M295.38,218v-.85a3.76,3.76,0,0,1-2.57,1.08,1.72,1.72,0,0,1-1.3-.46,2,2,0,0,1-.57-1.42v-3.75h-.78a.47.47,0,0,1-.3-.08.29.29,0,0,1-.09-.22.29.29,0,0,1,.09-.21.47.47,0,0,1,.3-.08h1.36v4.34a1.26,1.26,0,0,0,.36.93,1.19,1.19,0,0,0,.9.37,3.46,3.46,0,0,0,2.6-1.3v-3.75h-1.07a.47.47,0,0,1-.3-.08.29.29,0,0,1-.09-.22.29.29,0,0,1,.09-.21.47.47,0,0,1,.3-.08H296v5.41h.5a.46.46,0,0,1,.29.08.29.29,0,0,1,.09.21.26.26,0,0,1-.09.21.4.4,0,0,1-.29.08Z" transform="translate(-94.07 -177.82)"/><path d="M300.71,212h3.15a.47.47,0,0,1,.3.08.29.29,0,0,1,.09.22.29.29,0,0,1-.09.21.47.47,0,0,1-.3.08h-3.15v3.87a1,1,0,0,0,.4.84,1.8,1.8,0,0,0,1.19.34,5.49,5.49,0,0,0,1.27-.17,4.39,4.39,0,0,0,1.07-.4.42.42,0,0,1,.22-.09.3.3,0,0,1,.2.08.32.32,0,0,1,.08.21.26.26,0,0,1-.09.19,3,3,0,0,1-1.08.5,5.65,5.65,0,0,1-1.63.26,2.58,2.58,0,0,1-1.62-.47,1.57,1.57,0,0,1-.6-1.29v-3.87H299a.46.46,0,0,1-.29-.08.29.29,0,0,1-.09-.22.29.29,0,0,1,.09-.21A.46.46,0,0,1,299,212h1.08v-1.72a.4.4,0,0,1,.08-.29.29.29,0,0,1,.42,0,.4.4,0,0,1,.09.29Z" transform="translate(-94.07 -177.82)"/><path d="M310.28,216.32h.25a.94.94,0,0,1,.67.27.9.9,0,0,1,.27.66.88.88,0,0,1-.28.67.9.9,0,0,1-.66.27h-.25a.9.9,0,0,1-.66-.27.87.87,0,0,1-.28-.66.91.91,0,0,1,.28-.67A.93.93,0,0,1,310.28,216.32Z" transform="translate(-94.07 -177.82)"/><path d="M322.05,215.13h-5.92a2.8,2.8,0,0,0,.95,1.81,2.86,2.86,0,0,0,2,.69,4.79,4.79,0,0,0,1.36-.21,3.69,3.69,0,0,0,1.16-.57.4.4,0,0,1,.23-.1.26.26,0,0,1,.2.08.32.32,0,0,1,.08.21.31.31,0,0,1-.11.22,3,3,0,0,1-1.18.65,5.22,5.22,0,0,1-1.74.3,3.41,3.41,0,0,1-2.5-1,3.21,3.21,0,0,1-1-2.37,2.93,2.93,0,0,1,.94-2.17,3.24,3.24,0,0,1,2.32-.91,3.16,3.16,0,0,1,2.35.93A3.26,3.26,0,0,1,322.05,215.13Zm-.58-.59a2.6,2.6,0,0,0-.91-1.57,2.7,2.7,0,0,0-1.76-.6,2.67,2.67,0,0,0-1.75.6,2.52,2.52,0,0,0-.91,1.57Z" transform="translate(-94.07 -177.82)"/><path d="M330.26,209.3v8.1H331a.47.47,0,0,1,.3.08.29.29,0,0,1,.09.21.26.26,0,0,1-.09.21.42.42,0,0,1-.3.08h-1.37v-1.15a3,3,0,0,1-2.56,1.38,3,3,0,0,1-1.52-.42,2.91,2.91,0,0,1-1.14-1.19,3.26,3.26,0,0,1,0-3.2,3,3,0,0,1,1.14-1.19,2.92,2.92,0,0,1,1.52-.43,3.11,3.11,0,0,1,2.56,1.39v-3.28h-.77a.46.46,0,0,1-.31-.09.29.29,0,0,1-.09-.21.33.33,0,0,1,.09-.21.52.52,0,0,1,.31-.08Zm-.59,5.7a2.56,2.56,0,0,0-.74-1.87,2.48,2.48,0,0,0-3.57,0,2.73,2.73,0,0,0,0,3.74,2.48,2.48,0,0,0,3.57,0A2.56,2.56,0,0,0,329.67,215Z" transform="translate(-94.07 -177.82)"/><path d="M337.91,218v-.85a3.76,3.76,0,0,1-2.57,1.08,1.72,1.72,0,0,1-1.3-.46,2,2,0,0,1-.57-1.42v-3.75h-.79a.46.46,0,0,1-.29-.08.29.29,0,0,1-.09-.22.29.29,0,0,1,.09-.21.46.46,0,0,1,.29-.08h1.37v4.34a1.26,1.26,0,0,0,.36.93,1.19,1.19,0,0,0,.9.37,3.48,3.48,0,0,0,2.6-1.3v-3.75h-1.07a.47.47,0,0,1-.3-.08.29.29,0,0,1-.09-.22.29.29,0,0,1,.09-.21.47.47,0,0,1,.3-.08h1.65v5.41H339a.47.47,0,0,1,.3.08.29.29,0,0,1,.09.21.26.26,0,0,1-.09.21.42.42,0,0,1-.3.08Z" transform="translate(-94.07 -177.82)"/><path d="M344.3,216.32h.25a.94.94,0,0,1,.67.27.91.91,0,0,1,.28.66.88.88,0,0,1-.29.67.9.9,0,0,1-.66.27h-.25a.93.93,0,0,1-.66-.27.93.93,0,0,1,0-1.33A.93.93,0,0,1,344.3,216.32Z" transform="translate(-94.07 -177.82)"/><path d="M355.36,212.58v-.19a.43.43,0,0,1,.08-.31.27.27,0,0,1,.21-.09.26.26,0,0,1,.21.09.43.43,0,0,1,.09.31v1.31a.51.51,0,0,1-.09.3.24.24,0,0,1-.21.1.28.28,0,0,1-.2-.08.48.48,0,0,1-.09-.27,1.4,1.4,0,0,0-.65-.94,2.74,2.74,0,0,0-1.63-.44,2.42,2.42,0,0,0-2,.81,2.87,2.87,0,0,0-.67,1.86,2.52,2.52,0,0,0,.74,1.86,2.62,2.62,0,0,0,1.92.73,4,4,0,0,0,1.38-.25,3.37,3.37,0,0,0,1.27-.8.42.42,0,0,1,.26-.14.26.26,0,0,1,.19.08.24.24,0,0,1,.08.2c0,.2-.23.45-.7.75a4.4,4.4,0,0,1-2.51.74,3.19,3.19,0,0,1-2.31-.89,3.09,3.09,0,0,1-.9-2.28,3.17,3.17,0,0,1,.93-2.33,3.13,3.13,0,0,1,2.32-.93A3.31,3.31,0,0,1,355.36,212.58Z" transform="translate(-94.07 -177.82)"/><path d="M359.56,212v.88a4.13,4.13,0,0,1,1.1-.85,2.48,2.48,0,0,1,1.11-.24,2.6,2.6,0,0,1,1.21.29,2.08,2.08,0,0,1,.7.69,1.77,1.77,0,0,1,.31,1v3.66h.5a.46.46,0,0,1,.29.08.29.29,0,0,1,.09.21.26.26,0,0,1-.09.21.4.4,0,0,1-.29.08h-1.56a.44.44,0,0,1-.31-.08.26.26,0,0,1-.09-.21.29.29,0,0,1,.09-.21.5.5,0,0,1,.31-.08h.48v-3.56a1.37,1.37,0,0,0-.45-1,1.65,1.65,0,0,0-1.2-.43,2.11,2.11,0,0,0-1,.23,5.42,5.42,0,0,0-1.2,1.16v3.64h.65a.47.47,0,0,1,.3.08.29.29,0,0,1,.09.21.26.26,0,0,1-.09.21.42.42,0,0,1-.3.08h-1.89a.42.42,0,0,1-.3-.08.26.26,0,0,1-.09-.21.29.29,0,0,1,.09-.21.47.47,0,0,1,.3-.08H359v-4.82h-.49a.47.47,0,0,1-.3-.08.29.29,0,0,1-.09-.22.29.29,0,0,1,.09-.21.47.47,0,0,1,.3-.08Z" transform="translate(-94.07 -177.82)"/><path d="M367.53,209.44h1.84l-.48,3.37a.64.64,0,0,1-.16.37.41.41,0,0,1-.56,0,.64.64,0,0,1-.16-.37Zm3,0h1.84l-.48,3.37a.64.64,0,0,1-.16.37.37.37,0,0,1-.27.11.4.4,0,0,1-.29-.11.58.58,0,0,1-.15-.37Z" transform="translate(-94.07 -177.82)"/><path d="M382,214l-6.28,3.5a.52.52,0,0,1-.23.09.25.25,0,0,1-.2-.09.29.29,0,0,1-.09-.21c0-.11.08-.21.23-.3l5.39-3-5.38-3c-.16-.09-.23-.19-.23-.3a.28.28,0,0,1,.08-.21.29.29,0,0,1,.21-.09.57.57,0,0,1,.23.09Z" transform="translate(-94.07 -177.82)"/><path d="M396.14,214.91c.1.08.14.15.14.21s-.07.1-.2.1h-5.9v1.3c0,.77,0,1.37.05,2v.09c0,.15-.05.22-.34.39a.67.67,0,0,1-.3.13c-.09,0-.11-.09-.11-.28v-.2c0-.51,0-1.25,0-2.11v-1.28H384.4a2.87,2.87,0,0,0-.95.16l-.4-.53c.36,0,.71.06,1,.06h5.43V213.8c0-.51,0-.82,0-1.32l1,.47c.1.06.15.09.15.13s0,.08-.44.41v1.42h4.47l.55-.8Zm-7.8-8.35c.13.07.19.13.19.17s-.06.07-.19.08-.37.1-.62.42-.5.59-.74.87v3c0,.69,0,1.21,0,1.65v.09c0,.2,0,.3-.32.44a.82.82,0,0,1-.31.11c-.1,0-.12-.07-.12-.27v-.21c.06-.81.06-1,.06-1.84v-2.23a25.79,25.79,0,0,1-2.61,2.44l-.16-.16a22.48,22.48,0,0,0,3.93-5.1Zm7.39,3.29c0,1.6.11,1.66.51,1.93.05,0,.08.07.08.11a.11.11,0,0,1,0,.08c-.45.95-1.23.95-3.14.95-2.34,0-2.54-.1-2.54-1.27v-1.33a25.67,25.67,0,0,1-3.09,1.16l-.14-.14c1.1-.49,2.21-1,3.23-1.56v-2.17c0-.4,0-1.12,0-1.69l1.1.55c.09.05.12.07.12.1s0,.06-.12.12l-.39.24v2.49a18.48,18.48,0,0,0,3.34-2.28l.77.78a.29.29,0,0,1,.08.14s0,0-.07,0l-.31,0a1,1,0,0,0-.51.17c-1.33.75-2.38,1.3-3.3,1.75v1.61c0,.63,0,.75,2.05.75s2.06,0,2.2-2.51Z" transform="translate(-94.07 -177.82)"/><path d="M410.54,208.25c.08.08.13.14.13.17s-.06.05-.16.05h-6.24v1.86h3.82l.44-.67.92.61c.1.06.14.1.14.14s0,.1-.14.17l-.46.32v6.53c0,.85-.12,1.16-1.07,1.55l-.13,0c-.06,0-.09,0-.1-.14-.09-.43-.38-.7-1.89-1.09l0-.2a11.34,11.34,0,0,0,1.95.28c.53,0,.56-.18.56-.48v-6.75h-8.58v5c0,1.08,0,2.14.06,2.78v.11c0,.19-.05.24-.34.37a.74.74,0,0,1-.29.08c-.1,0-.11-.07-.11-.28v-.17c0-.84,0-2.11,0-2.92v-3.91c0-.58,0-1.55-.05-2.07l.85.68h3.7v-1.86h-5a3.45,3.45,0,0,0-.95.14l-.4-.51c.34,0,.71.06,1,.06h5.33v-1c0-.55,0-.89-.05-1.39l1.14.53c.1,0,.15.08.15.11s0,.07-.11.11l-.47.27v1.39h4.61l.65-.91Zm-2.91,7.2a.32.32,0,0,1,.1.15c0,.05,0,.06-.14.06h-3.37c0,1.57,0,1.9,0,2.49v.09c0,.2,0,.26-.34.37a.71.71,0,0,1-.28.08c-.1,0-.13-.08-.13-.29v-.13c0-.74,0-1.84,0-2.61h-2.25a2.87,2.87,0,0,0-.86.14l-.36-.51c.31,0,.64.06.94.06h2.53v-1.63h-1.85a2.65,2.65,0,0,0-.87.14l-.35-.51c.31,0,.64.06.93.06h2.71c.44-.76,1-1.85,1.29-2.49l.88.47c.08.05.13.09.13.12s-.05.05-.13.08c-.47.14-.55.21-1.9,1.82H406l.48-.68.82.8a.36.36,0,0,1,.1.14s-.06.05-.15.05h-3v1.63h2.12l.51-.71Zm-6.12-4.35c.64.24,1.69.69,1.69,1.33,0,.3-.19.58-.39.58s-.2,0-.35-.5a3.27,3.27,0,0,0-1-1.29Z" transform="translate(-94.07 -177.82)"/><path d="M417,214.81l-3.6,1.67a4.64,4.64,0,0,0-1.12.71.2.2,0,0,1-.11.07s-.07,0-.11-.07l-.49-.71,2.29-.79V212h-.78a2.83,2.83,0,0,0-.9.14l-.38-.51c.34,0,.68.06,1,.06h1.07v-3.6h-.83a3,3,0,0,0-.95.15l-.39-.52c.35,0,.71,0,1,0h2.71l.51-.69.79.74a.26.26,0,0,1,.12.18c0,.06-.06.09-.16.09h-2.2v3.6h.88l.48-.67.74.72c.09.07.12.13.12.17s-.05.09-.16.09h-2.06v3.49l2.44-.85Zm7.47,3.3a.28.28,0,0,1,.1.17c0,.06-.05.1-.17.1h-7.62a2.87,2.87,0,0,0-.95.16l-.4-.53c.35,0,.71.06,1,.06h3.59v-2.51h-1.63a2.87,2.87,0,0,0-.95.16l-.4-.53c.36,0,.71.06,1,.06h1.94V213h-2c0,.31,0,.37-.3.54a.73.73,0,0,1-.25.11c-.07,0-.1-.07-.1-.2v-.07c0-.59,0-1.19,0-1.91V208.2c0-.55,0-1.06,0-1.5l.81.57h4.32l.42-.65.88.61c.09.05.12.08.12.12s0,.09-.1.13l-.4.27v3.52c0,.56,0,1.2.07,1.68,0,0,0,.07,0,.1,0,.3-.6.55-.63.55s-.1,0-.1-.59h-2.08v2.24h1.86l.56-.81.9.82a.29.29,0,0,1,.11.19c0,.07-.07.11-.2.11h-3.23v2.51h2.35l.54-.79Zm-4.42-8v-2.57h-2v2.57Zm0,2.55v-2.24h-2v2.24Zm2.72-2.55v-2.57h-2.08v2.57Zm0,2.55v-2.24h-2.08v2.24Z" transform="translate(-94.07 -177.82)"/><path d="M438.56,217.19a.51.51,0,0,1,.15.23s-.07.05-.18.05H427.22a3.1,3.1,0,0,0-1,.15l-.4-.51c.34,0,.71,0,1,0H432v-9h-3.84a3.45,3.45,0,0,0-.95.14l-.39-.51c.34,0,.7.06,1,.06h8.31l.62-.85.84.84c.12.12.18.19.18.25s-.08.07-.27.07h-4.83v9H437l.66-.91Z" transform="translate(-94.07 -177.82)"/><path d="M440.07,214l6.28-3.5a.57.57,0,0,1,.23-.09.29.29,0,0,1,.21.09.32.32,0,0,1,.08.21c0,.11-.08.21-.23.3l-5.39,3,5.38,3q.24.13.24.3a.29.29,0,0,1-.09.21.28.28,0,0,1-.2.09.52.52,0,0,1-.23-.09Z" transform="translate(-94.07 -177.82)"/><path d="M454.76,208.88l-4.68,10a.34.34,0,0,1-.3.25.24.24,0,0,1-.2-.08.26.26,0,0,1-.09-.19.53.53,0,0,1,.07-.23l4.67-10a.47.47,0,0,1,.15-.21.28.28,0,0,1,.16,0,.29.29,0,0,1,.21.09.29.29,0,0,1,.08.19A.56.56,0,0,1,454.76,208.88Z" transform="translate(-94.07 -177.82)"/><path d="M462.33,218v-.83a4.15,4.15,0,0,1-2.71,1.06,2.3,2.3,0,0,1-1.63-.53,1.64,1.64,0,0,1-.59-1.29,1.87,1.87,0,0,1,.77-1.48,3.55,3.55,0,0,1,2.27-.63c.26,0,.56,0,.87.05s.65.09,1,.17v-.94a1.06,1.06,0,0,0-.45-.84,2.11,2.11,0,0,0-1.33-.35,6.55,6.55,0,0,0-1.9.4,2.08,2.08,0,0,1-.28.07.23.23,0,0,1-.19-.09.25.25,0,0,1-.08-.21.23.23,0,0,1,.07-.18,2.21,2.21,0,0,1,.78-.29,7.08,7.08,0,0,1,1.63-.29,2.47,2.47,0,0,1,1.72.55,1.61,1.61,0,0,1,.62,1.23v3.84h.77a.47.47,0,0,1,.3.08.29.29,0,0,1,.09.21.26.26,0,0,1-.09.21.42.42,0,0,1-.3.08Zm0-2.89a5.83,5.83,0,0,0-.87-.17,7.27,7.27,0,0,0-1-.06,3.23,3.23,0,0,0-2,.55,1.2,1.2,0,0,0-.54,1,1.13,1.13,0,0,0,.41.88,1.79,1.79,0,0,0,1.2.36,3.26,3.26,0,0,0,1.4-.3,5,5,0,0,0,1.34-1Z" transform="translate(-94.07 -177.82)"/><path d="M472.73,214l-6.28,3.5a.52.52,0,0,1-.23.09.27.27,0,0,1-.2-.09.29.29,0,0,1-.09-.21q0-.17.24-.3l5.38-3-5.38-3c-.15-.09-.23-.19-.23-.3a.32.32,0,0,1,.08-.21.29.29,0,0,1,.21-.09.52.52,0,0,1,.23.09Z" transform="translate(-94.07 -177.82)"/><path class="cls-1" d="M106,255v2.73H96.31v1.39c0,2.37-.19,5.7-1.65,8a2.6,2.6,0,0,0-.59-.34c1.43-2.27,1.56-5.38,1.56-7.67V255Zm-9.67,2.14h9v-1.55h-9Zm7.11,7a19.63,19.63,0,0,1,1.59,2l-.47.24c-.14-.21-.32-.48-.55-.78-2,.11-4.11.21-5.56.27l0-.6,2.84-.08v-1.32H97.67v3.4H97V263.3h4.21v-1H97.6v-2.27h3.63v-.94c-1.28.08-2.6.13-3.8.13a1.68,1.68,0,0,0-.17-.49,62.69,62.69,0,0,0,7.57-.54l.46.48c-.92.15-2.12.28-3.43.38v1h3.73v2.27h-3.73v1h4.34v3.17c0,.37-.07.54-.38.64a7.78,7.78,0,0,1-1.84.1,3.41,3.41,0,0,0-.22-.54c.78,0,1.37,0,1.56,0s.23-.05.23-.21v-2.62h-3.69v1.29l1.73-.07-.61-.73Zm-5.17-2.38h3v-1.21h-3Zm3.61,0h3.08v-1.21h-3.08Z" transform="translate(-94.07 -177.82)"/><path class="cls-1" d="M109.55,257.12a14.92,14.92,0,0,1-.76,3.71l-.58-.2A13.61,13.61,0,0,0,109,257Zm1.48-2.78v12.85h-.68V254.34Zm.87,2.25A12.79,12.79,0,0,1,113,259l-.56.3a12.57,12.57,0,0,0-1-2.49Zm4.73,9.44v-4h-3.16v-.65h3.16v-3.32h-2.36a12.49,12.49,0,0,1-1.11,2.37c-.13-.08-.44-.24-.62-.33a14.17,14.17,0,0,0,1.87-5.13l.68.12c-.17.79-.37,1.57-.6,2.31h2.14v-3.05h.71v3.05h3.42v.66h-3.42v3.32h3.11v.65h-3.11v4H121v.65h-8.63V266Z" transform="translate(-94.07 -177.82)"/><path class="cls-1" d="M287.39,255v2.73h-9.66v1.39c0,2.37-.19,5.7-1.65,8a2.84,2.84,0,0,0-.59-.34c1.43-2.27,1.55-5.38,1.55-7.67V255Zm-9.66,2.14h9v-1.55h-9Zm7.11,7a21.15,21.15,0,0,1,1.59,2l-.47.24c-.14-.22-.33-.48-.55-.78-2.06.11-4.11.21-5.56.27l0-.6,2.83-.08v-1.32h-3.55v3.4h-.66V263.3h4.21v-1H279v-2.27h3.62v-.94c-1.27.07-2.59.13-3.79.13a1.45,1.45,0,0,0-.18-.49,62.69,62.69,0,0,0,7.57-.54l.47.48c-.92.15-2.12.28-3.43.38v1H287v2.27h-3.73v1h4.34v3.17c0,.37-.07.54-.38.64a7.83,7.83,0,0,1-1.85.1,2.61,2.61,0,0,0-.21-.54c.78,0,1.36,0,1.56,0s.23-.05.23-.21v-2.62h-3.69v1.29l1.73-.07-.61-.73Zm-5.17-2.38h3v-1.21h-3Zm3.61,0h3.08v-1.21h-3.08Z" transform="translate(-94.07 -177.82)"/><path class="cls-1" d="M291,257.12a14.47,14.47,0,0,1-.75,3.71l-.58-.2a13.61,13.61,0,0,0,.77-3.61Zm1.49-2.78v12.85h-.68V254.34Zm.87,2.25a12.69,12.69,0,0,1,1.07,2.42l-.55.3a13.21,13.21,0,0,0-1-2.49Zm4.73,9.44v-4h-3.16v-.65h3.16v-3.32h-2.37a11.91,11.91,0,0,1-1.1,2.37c-.13-.08-.44-.24-.63-.33a14.18,14.18,0,0,0,1.88-5.13l.67.12c-.17.79-.36,1.57-.59,2.31h2.14v-3.05h.71v3.05h3.42v.66h-3.42v3.32h3.1v.65h-3.1v4h3.7v.65h-8.63V266Z" transform="translate(-94.07 -177.82)"/><path class="cls-1" d="M307.91,254.54a23.19,23.19,0,0,1-1.53,3.31v9.39h-.65v-8.31a16.28,16.28,0,0,1-1.44,1.9,4.88,4.88,0,0,0-.44-.64,16.87,16.87,0,0,0,3.43-5.84Zm4.74-.13-.3,1.49h4v.62h-4.1c-.12.57-.25,1.09-.38,1.53h3.59v8.05h1.39v.63h-9.49v-.63h1.43v-8.05h2.44c.12-.42.24-1,.36-1.53h-3.63v-.62h3.74c.1-.56.19-1.11.24-1.56Zm2.14,5.68v-1.44h-5.37v1.44Zm-5.37,2h5.37v-1.46h-5.37Zm0,2h5.37v-1.48h-5.37Zm5.37,2v-1.39h-5.37v1.39Z" transform="translate(-94.07 -177.82)"/><path class="cls-2" d="M238.5,178.84v.69h-4.6a17.37,17.37,0,0,1-1.12,1.72v9.42h-.72v-8.5a18.64,18.64,0,0,1-5.53,4.5,4.09,4.09,0,0,0-.45-.56,17.43,17.43,0,0,0,7-6.58h-6.66v-.69Zm-4.64,3.33a30.53,30.53,0,0,1,5,3.7l-.53.54a29.44,29.44,0,0,0-4.93-3.8Z" transform="translate(-94.07 -177.82)"/><path class="cls-2" d="M244.53,180.57v-1.45h-3.95v-.62h12.09v.62h-4.11v1.45H252v3.48h-6.65l.57.14c-.23.44-.51.91-.81,1.38h7.77v.62h-2.74a5.87,5.87,0,0,1-2.27,2.57,38.23,38.23,0,0,1,4.7,1.42l-.63.53a38.63,38.63,0,0,0-4.89-1.5,18.2,18.2,0,0,1-6.38,1.43,2.16,2.16,0,0,0-.3-.61A19.2,19.2,0,0,0,246,189c-1.19-.27-2.45-.52-3.74-.75a22.17,22.17,0,0,0,1.61-2h-3.53v-.62h4a16.93,16.93,0,0,0,.89-1.52h-3.88v-3.48ZM242,183.44h2.55v-2.27H242Zm2.69,2.75c-.41.6-.85,1.17-1.23,1.63,1.19.22,2.38.46,3.52.73a5.8,5.8,0,0,0,2.42-2.36Zm.53-5.62h2.71v-1.45H245.2Zm0,2.87h2.71v-2.27H245.2Zm3.36,0h2.76v-2.27h-2.76Z" transform="translate(-94.07 -177.82)"/><path class="cls-2" d="M257.06,188.23c.3.16.61.5,1.18.87a6.67,6.67,0,0,0,3.8.74c1.88,0,3.95-.12,5.35-.23a2.67,2.67,0,0,0-.21.74c-1,.07-3.78.15-5.16.15a6.86,6.86,0,0,1-4-.83c-.55-.4-1-.94-1.33-.94-.48,0-1.18.84-2,1.9l-.51-.58a5.66,5.66,0,0,1,2.22-1.9v-4.82h-2v-.65h2.68Zm-1.73-10.15a21.65,21.65,0,0,1,2.3,2.33l-.53.42a21.07,21.07,0,0,0-2.26-2.39Zm6.71.67v-.93h.66v.93h3.39v2.18H262.7v1H267v.56h-9.29V182H262v-1h-3.25v-2.18Zm.68,5.81v1.11c0,1-.46,2.39-4,3.27a1.68,1.68,0,0,0-.41-.52c3.4-.74,3.7-1.9,3.7-2.75v-1.11Zm3.12-1.16v3.5h-.7V184h-5.46v3H259V183.4Zm-6.4-3H262v-1.06h-2.6Zm3.26,0h2.72v-1.06H262.7Zm.47,6.54a21.73,21.73,0,0,1,3.56,1.48l-.31.57a21.36,21.36,0,0,0-3.58-1.57Z" transform="translate(-94.07 -177.82)"/><path class="cls-2" d="M268.9,181.81a24.18,24.18,0,0,1,2.43,1.38l-.38.56a28.35,28.35,0,0,0-2.45-1.46Zm1.87,3.77.54.37c-.56,1.48-1.34,3.28-2,4.55l-.6-.39A46.69,46.69,0,0,0,270.77,185.58ZM269.56,178a22.25,22.25,0,0,1,2.27,1.52l-.41.55a23.26,23.26,0,0,0-2.28-1.6Zm11.11.36v2.89h-7.49v1.17h8V183h-3.72v1.28h3.43V190c0,.37-.09.55-.37.64a6.1,6.1,0,0,1-1.7.11,1.86,1.86,0,0,0-.22-.54c.7,0,1.28,0,1.45,0s.21-.06.21-.22v-5.1h-2.8v5.71h-.63v-5.71h-2.72v5.83h-.61v-6.41h3.33V183h-3.68c-.05,2.34-.32,5.4-1.76,7.6a2.37,2.37,0,0,0-.54-.38c1.5-2.3,1.64-5.44,1.64-7.77v-4.12Zm-7.49,2.28H280v-1.69h-6.84Zm1.77,7a10.87,10.87,0,0,1,1.43,1.22l-.35.38a18.06,18.06,0,0,0-1.44-1.29Zm0-2.07a15.11,15.11,0,0,1,1.44,1.14l-.35.41a13.26,13.26,0,0,0-1.43-1.21Zm3.29,2a13.21,13.21,0,0,1,1.47,1.24l-.34.39c-.34-.35-1-.9-1.47-1.3Zm0-2a13.47,13.47,0,0,1,1.47,1.17l-.32.4a17.17,17.17,0,0,0-1.48-1.25Z" transform="translate(-94.07 -177.82)"/><path class="cls-2" d="M289,181.73v-2.65h-5.43v-.66h6.1v4h-4.89c-.16.85-.33,1.77-.49,2.52h5.42l0,.36c-.24,3.29-.5,4.53-1,5a1.19,1.19,0,0,1-1,.34,19.36,19.36,0,0,1-2.27-.06,1.37,1.37,0,0,0-.24-.69c1,.1,2,.1,2.29.1s.48,0,.61-.15c.36-.31.6-1.44.83-4.23h-5.54c.27-1,.58-2.63.76-3.83Zm5.06-3.82v12.78h-.68V177.91Z" transform="translate(-94.07 -177.82)"/><path class="cls-2" d="M309.38,183.5v.64H301c-.18.62-.42,1.3-.63,1.88h7.27a3.12,3.12,0,0,1,0,.36c-.38,2.49-.75,3.54-1.26,4a1.55,1.55,0,0,1-1,.29c-.44,0-1.39,0-2.36-.07a1.56,1.56,0,0,0-.24-.66c1,.11,2.05.12,2.42.12s.52,0,.68-.14c.42-.31.72-1.23,1-3.26h-7.5c.3-.67.65-1.66.94-2.51H297.2v-.64Zm-1.72-5.06V182H299v-3.54Zm-8,2.92H307v-2.28h-7.31Z" transform="translate(-94.07 -177.82)"/><path class="cls-2" d="M176.27,254.48a12,12,0,0,1-.51,1.16h4.06v.61H177a10.15,10.15,0,0,1,.53,1.49l-.66.21a7.13,7.13,0,0,0-.58-1.7h-.83a10,10,0,0,1-1.35,1.83,5.29,5.29,0,0,0-.58-.38,9.4,9.4,0,0,0,2.1-3.39Zm5.46,0a8.36,8.36,0,0,1-.51,1.19h5v.61h-3.43a8.13,8.13,0,0,1,.94,1.53l-.61.27a8.07,8.07,0,0,0-1.08-1.8h-1.2a8.21,8.21,0,0,1-1,1.25h.42v1.15h4.74v.61h-4.74v1.54h6.1v.64h-3.16v1.49h2.82v.64h-2.82v2.69c0,.51-.12.72-.54.83a11.29,11.29,0,0,1-2.41.12,3,3,0,0,0-.29-.67c1.11,0,2,0,2.23,0s.33-.09.33-.29v-2.7H174v-.64h8.57v-1.49h-9v-.64h6v-1.54H175v-.61h4.62v-.87l0,.06a3.83,3.83,0,0,0-.59-.41,7.45,7.45,0,0,0,2.09-3.12Zm-5.06,9.34a10,10,0,0,1,2.58,2.17l-.54.46a9.85,9.85,0,0,0-2.55-2.23Z" transform="translate(-94.07 -177.82)"/><path class="cls-2" d="M200.24,260v.63h-8.36c-.19.63-.43,1.31-.64,1.89h7.27a2.26,2.26,0,0,1,0,.35c-.38,2.5-.75,3.55-1.26,4a1.57,1.57,0,0,1-1.05.3c-.44,0-1.39,0-2.37-.07a1.65,1.65,0,0,0-.24-.67c1,.11,2.06.13,2.43.13a1,1,0,0,0,.68-.14c.42-.31.72-1.24,1-3.26l-7.08,0h-.41c.29-.66.65-1.66.93-2.51h-3.08V260ZM198.53,255v3.55h-8.71V255Zm-8,2.93h7.32v-2.29H190.5Z" transform="translate(-94.07 -177.82)"/><line class="cls-3" x1="13.65" y1="75.89" x2="39.12" y2="50.42"/><polygon class="cls-2" points="40.53 53 41.99 47.54 36.53 49 40.53 53"/><line class="cls-3" x1="93.02" y1="75.89" x2="67.28" y2="45"/><polygon class="cls-2" points="69.98 43.82 64.67 41.87 65.64 47.44 69.98 43.82"/><line class="cls-3" x1="202.15" y1="75.89" x2="176.68" y2="50.42"/><polygon class="cls-2" points="179.27 49 173.81 47.54 175.27 53 179.27 49"/><line class="cls-3" x1="131.29" y1="13.52" x2="79.4" y2="29.09"/><polygon class="cls-2" points="80.01 27.19 74.59 30.53 80.95 30.34 80.01 27.19"/><line class="cls-3" x1="216.33" y1="13.52" x2="268.21" y2="29.09"/><polygon class="cls-2" points="266.66 30.34 273.02 30.53 267.61 27.19 266.66 30.34"/><path class="cls-4" d="M360,219.69c0,1.56-.34,2.83-.76,2.83h-90.6c-.42,0-.77,1.27-.77,2.83,0-1.56-.34-2.83-.76-2.83h-90.6c-.42,0-.76-1.27-.76-2.83" transform="translate(-94.07 -177.82)"/><path class="cls-4" d="M147.4,219.69a22.3,22.3,0,0,1-.09,2.83H136.16a21.14,21.14,0,0,0-.1,2.83,22.3,22.3,0,0,0-.09-2.83H124.82a21.14,21.14,0,0,1-.1-2.83" transform="translate(-94.07 -177.82)"/></svg>