<svg id="图层_1" data-name="图层 1" xmlns="http://www.w3.org/2000/svg" viewBox="0 0 800 253.04"><defs><style>.cls-1,.cls-17,.cls-3,.cls-7{font-size:36.45px;}.cls-1,.cls-3,.cls-7{font-family:Calibri, Calibri;}.cls-1,.cls-8{letter-spacing:0em;}.cls-2{letter-spacing:0em;}.cls-3{letter-spacing:0em;}.cls-4{letter-spacing:-0.02em;}.cls-5{letter-spacing:0em;}.cls-6{letter-spacing:0em;}.cls-9{letter-spacing:0em;}.cls-10{letter-spacing:0em;}.cls-11{letter-spacing:0em;}.cls-12{letter-spacing:0em;}.cls-13{letter-spacing:0em;}.cls-14{letter-spacing:-0.07em;}.cls-15{letter-spacing:0em;}.cls-16{letter-spacing:0em;}.cls-17,.cls-22,.cls-24{font-family:SourceHanSansCN-ExtraLight-GBpc-EUC-H, Source Han Sans CN;}.cls-18{letter-spacing:-0.02em;}.cls-19,.cls-21{fill:none;stroke-miterlimit:8;stroke-width:0.48px;}.cls-19,.cls-24{stroke:red;}.cls-20,.cls-24{fill:red;}.cls-20{fill-rule:evenodd;}.cls-21{stroke:#00b0f0;}.cls-22,.cls-24{font-size:29.97px;}.cls-23{letter-spacing:0.11em;}.cls-24{stroke-miterlimit:10;stroke-width:0.4px;}.cls-25{letter-spacing:0.16em;}</style></defs><title>标签属性</title><text class="cls-1" transform="translate(45.59 97.64)">&lt;<tspan class="cls-2" x="18.19" y="0">a </tspan></text><text class="cls-3" transform="translate(89.57 97.64)">h<tspan class="cls-4" x="19.19" y="0">r</tspan><tspan class="cls-5" x="31.35" y="0">e</tspan><tspan class="cls-6" x="49.34" y="0">f</tspan></text><text class="cls-7" transform="translate(150.07 97.64)"><tspan class="cls-8">=“</tspan><tspan class="cls-9" x="33.48" y="0">h</tspan><tspan class="cls-10" x="52.45" y="0">tt</tspan><tspan class="cls-9" x="75.53" y="0">p</tspan><tspan class="cls-11" x="94.5" y="0">s</tspan><tspan class="cls-12" x="108.83" y="0">://</tspan><tspan class="cls-13" x="146.74" y="0">ww</tspan><tspan class="cls-14" x="199.22" y="0">w</tspan><tspan x="222.8" y="0">.</tspan><tspan class="cls-11" x="232" y="0">s</tspan><tspan class="cls-15" x="246.33" y="0">c</tspan><tspan class="cls-8" x="261.67" y="0">u</tspan><tspan class="cls-16" x="280.85" y="0">t</tspan><tspan x="293.03" y="0">.</tspan><tspan class="cls-11" x="302.23" y="0">e</tspan><tspan class="cls-8" x="320.44" y="0">du</tspan><tspan x="358.81" y="0">.</tspan><tspan class="cls-15" x="368.02" y="0">c</tspan><tspan class="cls-8" x="383.36" y="0">n”</tspan><tspan class="cls-12" x="417.83" y="0">&gt;</tspan></text><text class="cls-17" transform="translate(587.01 97.64)">华南理工</text><text class="cls-7" transform="translate(732.81 97.64)"><tspan class="cls-8">&lt;</tspan><tspan class="cls-18" x="18.19" y="0">/</tspan><tspan x="31.58" y="0">a&gt;</tspan></text><line class="cls-19" x1="63.88" y1="188.68" x2="114.12" y2="138.43"/><polygon class="cls-20" points="116.99 144.16 121.28 131.28 108.4 135.57 116.99 144.16 116.99 144.16"/><path class="cls-21" d="M149.9,115c0,3.16-.42,5.71-1,5.71H122.18c-.52,0-1,2.56-1,5.71,0-3.15-.43-5.71-1-5.71H93.51c-.53,0-1-2.55-1-5.71"/><path class="cls-21" d="M542.84,115c0,3.16-.42,5.71-1,5.71H371.63c-.53,0-1,2.56-1,5.71,0-3.15-.42-5.71-.95-5.71H199.46c-.53,0-1-2.55-1-5.71"/><text class="cls-22" transform="matrix(0.95, 0, -0.32, 0.95, 9.95, 223.19)"><tspan class="cls-23">属性</tspan><tspan x="66.59" y="0">名</tspan></text><line class="cls-19" x1="428.2" y1="187.95" x2="377.96" y2="137.71"/><polygon class="cls-20" points="375.09 143.43 370.8 130.55 383.68 134.84 375.09 143.43 375.09 143.43"/><text class="cls-22" transform="matrix(0.95, 0, -0.32, 0.95, 377.53, 223.19)"><tspan class="cls-23">属性</tspan><tspan x="66.59" y="0">值</tspan></text><line class="cls-19" x1="230.94" y1="190.16" x2="168.38" y2="111.96"/><polygon class="cls-20" points="164.9 117.34 162.05 104.06 174.39 109.75 164.9 117.34 164.9 117.34"/><text class="cls-22" transform="matrix(0.95, 0, -0.32, 0.95, 198.91, 223.19)">等号</text><line class="cls-19" x1="184.41" y1="68.39" x2="234.65" y2="18.15"/><polygon class="cls-20" points="237.52 23.87 241.81 10.99 228.93 15.28 237.52 23.87 237.52 23.87"/><line class="cls-19" x1="550.92" y1="68.39" x2="500.67" y2="18.15"/><polygon class="cls-20" points="497.81 23.87 493.51 10.99 506.4 15.28 497.81 23.87 497.81 23.87"/><text class="cls-24" transform="matrix(0.95, 0, -0.32, 0.95, 265.59, 25.21)"><tspan class="cls-25">不要遗漏引</tspan><tspan x="174.12" y="0">号</tspan></text></svg>