<svg id="图层_1" data-name="图层 1" xmlns="http://www.w3.org/2000/svg" viewBox="0 0 788.49 197.31"><defs><style>.cls-1,.cls-3{fill:none;stroke-miterlimit:8;stroke-width:0.48px;}.cls-1,.cls-4{stroke:red;}.cls-2,.cls-4{fill:red;}.cls-2{fill-rule:evenodd;}.cls-3{stroke:#00b0f0;}.cls-4{stroke-miterlimit:10;stroke-width:0.4px;}</style></defs><title>标签属性</title><path d="M28.92,66.41,41.7,59.28a1.14,1.14,0,0,1,.46-.17.58.58,0,0,1,.42.18.61.61,0,0,1,.17.42c0,.23-.16.44-.48.62l-11,6.08,10.94,6.08c.32.17.48.38.48.61a.58.58,0,0,1-.18.42.55.55,0,0,1-.41.18,1.17,1.17,0,0,1-.47-.17Z" transform="translate(-10.13 -1.33)"/><path d="M56.88,74.61v-1.7a8.41,8.41,0,0,1-5.5,2.16A4.77,4.77,0,0,1,48.06,74a3.42,3.42,0,0,1-1.2-2.64,3.79,3.79,0,0,1,1.58-3A7.16,7.16,0,0,1,53,67.08a16.29,16.29,0,0,1,1.77.11q1,.11,2.07.33V65.6a2.13,2.13,0,0,0-.9-1.69,4.33,4.33,0,0,0-2.7-.71,13.47,13.47,0,0,0-3.87.8,2.86,2.86,0,0,1-.58.14.54.54,0,0,1-.39-.17.61.61,0,0,1-.16-.42.52.52,0,0,1,.14-.38A5.18,5.18,0,0,1,50,62.59,14.28,14.28,0,0,1,53.34,62a5.14,5.14,0,0,1,3.49,1.1,3.29,3.29,0,0,1,1.25,2.5v7.83h1.57a.91.91,0,0,1,.62.16.53.53,0,0,1,.19.43.52.52,0,0,1-.19.42.9.9,0,0,1-.62.17Zm0-5.88a10.55,10.55,0,0,0-1.76-.35,15.24,15.24,0,0,0-1.95-.12,6.44,6.44,0,0,0-4,1.12,2.43,2.43,0,0,0-1.1,2,2.3,2.3,0,0,0,.84,1.8,3.59,3.59,0,0,0,2.44.73,6.6,6.6,0,0,0,2.85-.61,10.32,10.32,0,0,0,2.71-2Z" transform="translate(-10.13 -1.33)"/><path d="M84.16,57v7.27a7.51,7.51,0,0,1,2.16-1.72,5.3,5.3,0,0,1,2.32-.5,5.06,5.06,0,0,1,2.34.49A4.09,4.09,0,0,1,92.59,64a3.85,3.85,0,0,1,.65,2.12v7.33h1.32a.92.92,0,0,1,.62.16.58.58,0,0,1,.17.43.57.57,0,0,1-.17.42.92.92,0,0,1-.62.17H90.72a.92.92,0,0,1-.62-.17.54.54,0,0,1-.18-.42.55.55,0,0,1,.18-.43.92.92,0,0,1,.62-.16H92V66.18A2.79,2.79,0,0,0,91.12,64a3.63,3.63,0,0,0-2.57-.86,3.74,3.74,0,0,0-2.21.64,15.84,15.84,0,0,0-2.18,2.12v7.49H85.5a.88.88,0,0,1,.6.16.53.53,0,0,1,.19.43.52.52,0,0,1-.19.42.88.88,0,0,1-.6.17H81.64a.88.88,0,0,1-.6-.17.55.55,0,0,1-.19-.42.56.56,0,0,1,.19-.43.88.88,0,0,1,.6-.16H83V58.14H81.39a.93.93,0,0,1-.61-.16.59.59,0,0,1-.18-.44.54.54,0,0,1,.18-.42.87.87,0,0,1,.61-.17Z" transform="translate(-10.13 -1.33)"/><path d="M103.94,62.42v3a19.23,19.23,0,0,1,3.45-2.68,4.63,4.63,0,0,1,2.12-.6,3.07,3.07,0,0,1,2,.71c.61.47.91.83.91,1.07a.61.61,0,0,1-.18.45.57.57,0,0,1-.44.17.47.47,0,0,1-.24,0,1.66,1.66,0,0,1-.36-.31,3.63,3.63,0,0,0-.86-.68,1.66,1.66,0,0,0-.72-.18,4,4,0,0,0-1.87.62,28.19,28.19,0,0,0-3.77,3v6.48h5.23a.92.92,0,0,1,.62.16A.55.55,0,0,1,110,74a.54.54,0,0,1-.18.42.92.92,0,0,1-.62.17H99.9a.91.91,0,0,1-.61-.16.57.57,0,0,1,0-.82.92.92,0,0,1,.62-.16h2.85V63.62h-2.18a.88.88,0,0,1-.6-.17.58.58,0,0,1-.19-.44.54.54,0,0,1,.18-.42.89.89,0,0,1,.61-.17Z" transform="translate(-10.13 -1.33)"/><path d="M129,68.8H117a5.65,5.65,0,0,0,1.92,3.69,5.82,5.82,0,0,0,4,1.4,9.64,9.64,0,0,0,2.77-.43A7,7,0,0,0,128,72.3a.82.82,0,0,1,.47-.21.51.51,0,0,1,.39.18.53.53,0,0,1,.17.41.66.66,0,0,1-.22.47,6.33,6.33,0,0,1-2.4,1.31,10.46,10.46,0,0,1-3.54.61,7,7,0,0,1-5.08-2,6.5,6.5,0,0,1-2-4.82,6,6,0,0,1,1.91-4.42A6.51,6.51,0,0,1,122.43,62a6.43,6.43,0,0,1,4.77,1.89A6.59,6.59,0,0,1,129,68.8Zm-1.19-1.2A5.19,5.19,0,0,0,126,64.42a5.84,5.84,0,0,0-7.13,0A5.12,5.12,0,0,0,117,67.6Z" transform="translate(-10.13 -1.33)"/><path d="M139.16,63.62v9.81h5.2a.88.88,0,0,1,.6.16.55.55,0,0,1,.18.43.54.54,0,0,1-.18.42.88.88,0,0,1-.6.17h-9.25a.93.93,0,0,1-.61-.17.54.54,0,0,1-.18-.42.55.55,0,0,1,.18-.43.93.93,0,0,1,.61-.16H138V63.62h-2.56a.89.89,0,0,1-.61-.17.57.57,0,0,1-.18-.44.54.54,0,0,1,.18-.42.89.89,0,0,1,.61-.17H138V60.63a3.36,3.36,0,0,1,1.21-2.58,4.54,4.54,0,0,1,3.21-1.1,21.92,21.92,0,0,1,3.57.31,1.86,1.86,0,0,1,.87.26.62.62,0,0,1,.14.41.57.57,0,0,1-.16.42.65.65,0,0,1-.46.16,2.32,2.32,0,0,1-.37,0,24.16,24.16,0,0,0-3.59-.33,3.46,3.46,0,0,0-2.39.76,2.3,2.3,0,0,0-.84,1.73v1.79h5.53a.89.89,0,0,1,.61.17.57.57,0,0,1,.18.44.54.54,0,0,1-.18.42.89.89,0,0,1-.61.17Z" transform="translate(-10.13 -1.33)"/><path d="M163.7,64.83H150.81a.89.89,0,0,1-.61-.17.57.57,0,0,1-.18-.44.54.54,0,0,1,.18-.42.89.89,0,0,1,.61-.17H163.7a.88.88,0,0,1,.6.17.58.58,0,0,1,.19.44.55.55,0,0,1-.19.42A.88.88,0,0,1,163.7,64.83Zm0,4.24H150.81a.89.89,0,0,1-.61-.17.54.54,0,0,1-.18-.43.57.57,0,0,1,.18-.43,1,1,0,0,1,.61-.16H163.7a.94.94,0,0,1,.6.16.57.57,0,0,1,.19.43.54.54,0,0,1-.19.43A.88.88,0,0,1,163.7,69.07Z" transform="translate(-10.13 -1.33)"/><path d="M169.64,57.24h3.74l-1,6.84a1.31,1.31,0,0,1-.31.76.79.79,0,0,1-.57.21.81.81,0,0,1-.58-.21,1.38,1.38,0,0,1-.31-.76Zm6,0h3.75l-1,6.84a1.31,1.31,0,0,1-.31.76.78.78,0,0,1-.56.21.84.84,0,0,1-.59-.21,1.31,1.31,0,0,1-.3-.76Z" transform="translate(-10.13 -1.33)"/><path d="M188,57v7.27a7.51,7.51,0,0,1,2.16-1.72,5.29,5.29,0,0,1,2.31-.5,5.13,5.13,0,0,1,2.35.49A4.15,4.15,0,0,1,196.38,64,3.84,3.84,0,0,1,197,66.1v7.33h1.33a.89.89,0,0,1,.61.16.55.55,0,0,1,.18.43.54.54,0,0,1-.18.42.89.89,0,0,1-.61.17H194.5a.89.89,0,0,1-.61-.17.52.52,0,0,1-.19-.42.53.53,0,0,1,.19-.43.89.89,0,0,1,.61-.16h1.33V66.18a2.82,2.82,0,0,0-.92-2.14,3.64,3.64,0,0,0-2.57-.86,3.72,3.72,0,0,0-2.21.64A15.28,15.28,0,0,0,188,65.94v7.49h1.33a.91.91,0,0,1,.61.16.55.55,0,0,1,.18.43.54.54,0,0,1-.18.42.91.91,0,0,1-.61.17h-3.85a.91.91,0,0,1-.61-.17.54.54,0,0,1-.18-.42.55.55,0,0,1,.18-.43.91.91,0,0,1,.61-.16h1.33V58.14h-1.59a.88.88,0,0,1-.6-.16.59.59,0,0,1-.18-.44.54.54,0,0,1,.18-.42.83.83,0,0,1,.6-.17Z" transform="translate(-10.13 -1.33)"/><path d="M206.71,62.42h6.41a.89.89,0,0,1,.61.17.57.57,0,0,1,.18.44.54.54,0,0,1-.18.42.89.89,0,0,1-.61.17h-6.41v7.87a2.14,2.14,0,0,0,.82,1.71,3.66,3.66,0,0,0,2.41.69,10.39,10.39,0,0,0,2.59-.36,8.72,8.72,0,0,0,2.17-.81.93.93,0,0,1,.47-.18.51.51,0,0,1,.39.18.57.57,0,0,1,.17.41.58.58,0,0,1-.18.4,5.88,5.88,0,0,1-2.19,1,11.23,11.23,0,0,1-3.33.54,5.12,5.12,0,0,1-3.29-1,3.15,3.15,0,0,1-1.23-2.61V63.62h-2.18a.93.93,0,0,1-.61-.17.57.57,0,0,1-.18-.44.54.54,0,0,1,.18-.42.93.93,0,0,1,.61-.17h2.18V58.93a.88.88,0,0,1,.17-.6.55.55,0,0,1,.42-.19.58.58,0,0,1,.44.19.88.88,0,0,1,.17.6Z" transform="translate(-10.13 -1.33)"/><path d="M224,62.42h6.42a.93.93,0,0,1,.61.17.57.57,0,0,1,.18.44.54.54,0,0,1-.18.42.93.93,0,0,1-.61.17H224v7.87a2.15,2.15,0,0,0,.83,1.71,3.66,3.66,0,0,0,2.41.69,10.39,10.39,0,0,0,2.59-.36,8.87,8.87,0,0,0,2.17-.81.93.93,0,0,1,.46-.18.55.55,0,0,1,.4.18.57.57,0,0,1,.17.41.6.6,0,0,1-.19.4,5.88,5.88,0,0,1-2.19,1,11.12,11.12,0,0,1-3.32.54,5.16,5.16,0,0,1-3.3-1,3.17,3.17,0,0,1-1.22-2.61V63.62h-2.18a.89.89,0,0,1-.61-.17.57.57,0,0,1-.18-.44.54.54,0,0,1,.18-.42.89.89,0,0,1,.61-.17h2.18V58.93a.83.83,0,0,1,.17-.6.55.55,0,0,1,.42-.19.56.56,0,0,1,.43.19.83.83,0,0,1,.17.6Z" transform="translate(-10.13 -1.33)"/><path d="M239.27,62.42v2.16a7.6,7.6,0,0,1,2.27-1.93A6,6,0,0,1,244.4,62a6.51,6.51,0,0,1,3.22.82,5.75,5.75,0,0,1,2.29,2.27,6.2,6.2,0,0,1,.81,3.06,5.92,5.92,0,0,1-1.83,4.36,6.45,6.45,0,0,1-9.62-.77v7.12h2.87a.89.89,0,0,1,.61.16.55.55,0,0,1,.18.43.54.54,0,0,1-.18.42.84.84,0,0,1-.61.17H236.5a.88.88,0,0,1-.6-.16.58.58,0,0,1,0-.86.88.88,0,0,1,.6-.16h1.59V63.62H236.5a.88.88,0,0,1-.6-.17.55.55,0,0,1-.19-.44.52.52,0,0,1,.19-.42.88.88,0,0,1,.6-.17Zm10.25,5.73a4.73,4.73,0,0,0-1.49-3.5,5.26,5.26,0,0,0-7.26,0,4.82,4.82,0,0,0,0,7,5.23,5.23,0,0,0,7.26,0A4.74,4.74,0,0,0,249.52,68.15Z" transform="translate(-10.13 -1.33)"/><path d="M264.93,63.2a.85.85,0,0,1,.17-.59.52.52,0,0,1,.42-.19.55.55,0,0,1,.44.19.89.89,0,0,1,.17.61v2a.93.93,0,0,1-.17.61.57.57,0,0,1-.44.18.54.54,0,0,1-.4-.16.75.75,0,0,1-.19-.5,1.92,1.92,0,0,0-.87-1.4A5.38,5.38,0,0,0,261,63.2a5.11,5.11,0,0,0-3.08.8,1.69,1.69,0,0,0-.83,1.35,1.64,1.64,0,0,0,1,1.41,7.34,7.34,0,0,0,2.56.6,17.15,17.15,0,0,1,3.42.61,4.3,4.3,0,0,1,2,1.36,3,3,0,0,1,.67,1.89,3.4,3.4,0,0,1-1.45,2.68,6.64,6.64,0,0,1-4.25,1.17,7.13,7.13,0,0,1-4.59-1.42,2.48,2.48,0,0,1-.05.62.49.49,0,0,1-.21.24.56.56,0,0,1-.33.1.54.54,0,0,1-.42-.18.91.91,0,0,1-.17-.61V71.39a.91.91,0,0,1,.16-.61.55.55,0,0,1,.43-.18.58.58,0,0,1,.43.18.61.61,0,0,1,.18.47,1.73,1.73,0,0,0,.32,1.08,3.59,3.59,0,0,0,1.57,1.12,7.07,7.07,0,0,0,2.64.44,5.57,5.57,0,0,0,3.43-.86,2.35,2.35,0,0,0,1.13-1.81,2,2,0,0,0-1.14-1.76,8.7,8.7,0,0,0-3.36-.89,13.32,13.32,0,0,1-3.16-.59,3.18,3.18,0,0,1-1.49-1.1,2.56,2.56,0,0,1-.53-1.57,2.71,2.71,0,0,1,1.49-2.42A6.84,6.84,0,0,1,261,62,6.27,6.27,0,0,1,264.93,63.2Z" transform="translate(-10.13 -1.33)"/><path d="M278,62.42h.51a1.93,1.93,0,0,1,1.91,1.9,1.82,1.82,0,0,1-.57,1.38,1.86,1.86,0,0,1-1.34.55H278a1.86,1.86,0,0,1-1.35-.56,1.81,1.81,0,0,1-.56-1.34A1.85,1.85,0,0,1,276.7,63,1.88,1.88,0,0,1,278,62.42Zm0,8.8h.51a1.89,1.89,0,0,1,1.91,1.9,1.8,1.8,0,0,1-.57,1.36,1.86,1.86,0,0,1-1.34.55H278a1.85,1.85,0,0,1-1.35-.55,1.91,1.91,0,0,1,0-2.71A1.84,1.84,0,0,1,278,71.22Z" transform="translate(-10.13 -1.33)"/><path d="M300.91,56.09,291.4,76.47c-.16.34-.37.52-.62.52a.58.58,0,0,1-.42-.18.5.5,0,0,1-.17-.38,1.08,1.08,0,0,1,.14-.47l9.5-20.38a1.19,1.19,0,0,1,.29-.42.57.57,0,0,1,.34-.1.54.54,0,0,1,.41.18.51.51,0,0,1,.18.38A1.35,1.35,0,0,1,300.91,56.09Z" transform="translate(-10.13 -1.33)"/><path d="M318.21,56.09l-9.52,20.38c-.16.34-.36.52-.62.52a.55.55,0,0,1-.41-.18.51.51,0,0,1-.18-.38,1.25,1.25,0,0,1,.14-.47l9.5-20.38a1.19,1.19,0,0,1,.3-.42.53.53,0,0,1,.34-.1.55.55,0,0,1,.41.18.51.51,0,0,1,.18.38A1.35,1.35,0,0,1,318.21,56.09Z" transform="translate(-10.13 -1.33)"/><path d="M334.26,74.61H332.8L330.2,67l-2.59,7.6h-1.47l-2.44-11h-.58a.91.91,0,0,1-.61-.17.57.57,0,0,1-.18-.44.54.54,0,0,1,.18-.42.91.91,0,0,1,.61-.17h3.25a.88.88,0,0,1,.6.17.55.55,0,0,1,.19.44.52.52,0,0,1-.19.42.88.88,0,0,1-.6.17h-1.51L327,73l2.52-7.49h1.41L333.48,73l2-9.37H334a.91.91,0,0,1-.61-.17.59.59,0,0,1,0-.86.92.92,0,0,1,.62-.17h3.23a.92.92,0,0,1,.62.17A.55.55,0,0,1,338,63a.52.52,0,0,1-.19.42.92.92,0,0,1-.62.17h-.56Z" transform="translate(-10.13 -1.33)"/><path d="M351.56,74.61H350.1L347.49,67l-2.59,7.6h-1.46l-2.45-11h-.57a.89.89,0,0,1-.61-.17.57.57,0,0,1-.18-.44.54.54,0,0,1,.18-.42.89.89,0,0,1,.61-.17h3.25a.88.88,0,0,1,.6.17.57.57,0,0,1,.18.44.54.54,0,0,1-.18.42.88.88,0,0,1-.6.17h-1.51l2.1,9.37,2.52-7.49h1.4L350.77,73l2-9.37h-1.5a.93.93,0,0,1-.61-.17.58.58,0,0,1-.19-.44.54.54,0,0,1,.18-.42.94.94,0,0,1,.62-.17h3.24a.92.92,0,0,1,.62.17.57.57,0,0,1,.18.44.54.54,0,0,1-.18.42.92.92,0,0,1-.62.17H354Z" transform="translate(-10.13 -1.33)"/><path d="M368.86,74.61H367.4L364.79,67l-2.59,7.6h-1.46l-2.45-11h-.58a.88.88,0,0,1-.6-.17.55.55,0,0,1-.19-.44.52.52,0,0,1,.19-.42.88.88,0,0,1,.6-.17H361a.91.91,0,0,1,.61.17.57.57,0,0,1,.18.44.54.54,0,0,1-.18.42.91.91,0,0,1-.61.17h-1.5L361.55,73l2.52-7.49h1.41L368.07,73l2-9.37h-1.49a.93.93,0,0,1-.61-.17.59.59,0,0,1,0-.86.92.92,0,0,1,.62-.17h3.24a.92.92,0,0,1,.62.17.57.57,0,0,1,.18.44.54.54,0,0,1-.18.42.92.92,0,0,1-.62.17h-.56Z" transform="translate(-10.13 -1.33)"/><path d="M381.82,71.22h.51a1.89,1.89,0,0,1,1.91,1.9,1.8,1.8,0,0,1-.57,1.36,1.86,1.86,0,0,1-1.34.55h-.51a1.83,1.83,0,0,1-1.35-.55,1.91,1.91,0,0,1,0-2.71A1.84,1.84,0,0,1,381.82,71.22Z" transform="translate(-10.13 -1.33)"/><path d="M403.25,63.2a.85.85,0,0,1,.17-.59.52.52,0,0,1,.42-.19.55.55,0,0,1,.44.19.89.89,0,0,1,.17.61v2a.93.93,0,0,1-.17.61.57.57,0,0,1-.44.18.54.54,0,0,1-.4-.16.75.75,0,0,1-.19-.5,1.92,1.92,0,0,0-.87-1.4,5.38,5.38,0,0,0-3.06-.78,5.11,5.11,0,0,0-3.08.8,1.69,1.69,0,0,0-.83,1.35,1.64,1.64,0,0,0,1,1.41,7.34,7.34,0,0,0,2.56.6,17.15,17.15,0,0,1,3.42.61,4.3,4.3,0,0,1,2,1.36,3,3,0,0,1,.67,1.89,3.4,3.4,0,0,1-1.45,2.68,6.64,6.64,0,0,1-4.25,1.17,7.13,7.13,0,0,1-4.59-1.42,2.48,2.48,0,0,1-.05.62.49.49,0,0,1-.21.24.56.56,0,0,1-.33.1.54.54,0,0,1-.42-.18.91.91,0,0,1-.17-.61V71.39a.91.91,0,0,1,.16-.61.55.55,0,0,1,.43-.18.58.58,0,0,1,.43.18.61.61,0,0,1,.18.47,1.73,1.73,0,0,0,.32,1.08,3.59,3.59,0,0,0,1.57,1.12,7.07,7.07,0,0,0,2.64.44,5.57,5.57,0,0,0,3.43-.86,2.35,2.35,0,0,0,1.13-1.81,2,2,0,0,0-1.14-1.76,8.7,8.7,0,0,0-3.36-.89,13.32,13.32,0,0,1-3.16-.59,3.18,3.18,0,0,1-1.49-1.1,2.56,2.56,0,0,1-.53-1.57,2.71,2.71,0,0,1,1.49-2.42,6.84,6.84,0,0,1,3.56-.89A6.27,6.27,0,0,1,403.25,63.2Z" transform="translate(-10.13 -1.33)"/><path d="M421.58,63.62v-.4a.89.89,0,0,1,.16-.61.56.56,0,0,1,.43-.19.54.54,0,0,1,.43.19.84.84,0,0,1,.17.61V65.9a1,1,0,0,1-.17.62.57.57,0,0,1-.43.18.52.52,0,0,1-.4-.16.79.79,0,0,1-.19-.54,2.77,2.77,0,0,0-1.32-1.9,5.5,5.5,0,0,0-3.31-.9,4.91,4.91,0,0,0-4,1.64,5.76,5.76,0,0,0-1.37,3.77,5.09,5.09,0,0,0,1.51,3.79,5.27,5.27,0,0,0,3.9,1.49,8.49,8.49,0,0,0,2.8-.5,7.07,7.07,0,0,0,2.59-1.64.84.84,0,0,1,.52-.28.58.58,0,0,1,.4.16.55.55,0,0,1,.16.4c0,.41-.47.92-1.42,1.54a9.13,9.13,0,0,1-5.11,1.5,6.35,6.35,0,0,1-4.69-1.82,6.2,6.2,0,0,1-1.84-4.62A6.44,6.44,0,0,1,417,62,6.66,6.66,0,0,1,421.58,63.62Z" transform="translate(-10.13 -1.33)"/><path d="M438,74.61V72.88a7.69,7.69,0,0,1-5.24,2.19,3.47,3.47,0,0,1-2.63-.94A4.06,4.06,0,0,1,429,71.25V63.62h-1.59a.93.93,0,0,1-.61-.17.57.57,0,0,1-.18-.44.54.54,0,0,1,.18-.42.93.93,0,0,1,.61-.17h2.77v8.83a2.63,2.63,0,0,0,.73,1.9,2.49,2.49,0,0,0,1.83.74,7.1,7.1,0,0,0,5.3-2.64V63.62H435.8a.88.88,0,0,1-.6-.17A.57.57,0,0,1,435,63a.54.54,0,0,1,.18-.42.88.88,0,0,1,.6-.17h3.37v11h1a.88.88,0,0,1,.6.16A.56.56,0,0,1,441,74a.55.55,0,0,1-.19.42.88.88,0,0,1-.6.17Z" transform="translate(-10.13 -1.33)"/><path d="M448.81,62.42h6.42a.88.88,0,0,1,.6.17A.57.57,0,0,1,456,63a.54.54,0,0,1-.18.42.88.88,0,0,1-.6.17h-6.42v7.87a2.14,2.14,0,0,0,.82,1.71,3.69,3.69,0,0,0,2.42.69,10.45,10.45,0,0,0,2.59-.36,8.78,8.78,0,0,0,2.16-.81,1,1,0,0,1,.47-.18.51.51,0,0,1,.39.18.57.57,0,0,1,.17.41.58.58,0,0,1-.18.4,5.88,5.88,0,0,1-2.19,1,11.23,11.23,0,0,1-3.33.54,5.12,5.12,0,0,1-3.29-1,3.15,3.15,0,0,1-1.23-2.61V63.62h-2.18a.88.88,0,0,1-.6-.17.55.55,0,0,1-.19-.44.52.52,0,0,1,.19-.42.88.88,0,0,1,.6-.17h2.18V58.93a.88.88,0,0,1,.17-.6.55.55,0,0,1,.42-.19.58.58,0,0,1,.44.19.88.88,0,0,1,.17.6Z" transform="translate(-10.13 -1.33)"/><path d="M468.29,71.22h.51a1.89,1.89,0,0,1,1.91,1.9,1.8,1.8,0,0,1-.57,1.36,1.86,1.86,0,0,1-1.34.55h-.51a1.83,1.83,0,0,1-1.35-.55,1.91,1.91,0,0,1,0-2.71A1.84,1.84,0,0,1,468.29,71.22Z" transform="translate(-10.13 -1.33)"/><path d="M492.21,68.8h-12a5.7,5.7,0,0,0,1.93,3.69,5.82,5.82,0,0,0,4,1.4,9.64,9.64,0,0,0,2.77-.43,7.13,7.13,0,0,0,2.36-1.16.82.82,0,0,1,.47-.21.51.51,0,0,1,.39.18.57.57,0,0,1,.17.41.66.66,0,0,1-.22.47,6.5,6.5,0,0,1-2.4,1.31,10.46,10.46,0,0,1-3.54.61,7,7,0,0,1-5.08-2,6.5,6.5,0,0,1-2-4.82,5.92,5.92,0,0,1,1.91-4.42A6.51,6.51,0,0,1,485.6,62a6.43,6.43,0,0,1,4.77,1.89A6.59,6.59,0,0,1,492.21,68.8ZM491,67.6a5.24,5.24,0,0,0-1.85-3.18,5.84,5.84,0,0,0-7.13,0,5.12,5.12,0,0,0-1.86,3.19Z" transform="translate(-10.13 -1.33)"/><path d="M508.9,57V73.43h1.58a.92.92,0,0,1,.62.16.55.55,0,0,1,.18.43.54.54,0,0,1-.18.42.92.92,0,0,1-.62.17h-2.77V72.26a6.21,6.21,0,0,1-5.22,2.81,6.17,6.17,0,0,1-5.4-3.27,6.78,6.78,0,0,1-.85-3.26,6.69,6.69,0,0,1,.85-3.25A6.19,6.19,0,0,1,502.5,62a6.33,6.33,0,0,1,5.21,2.81V58.14h-1.58a.92.92,0,0,1-.62-.16.59.59,0,0,1-.18-.44.54.54,0,0,1,.18-.42.87.87,0,0,1,.62-.17Zm-1.19,11.59a5.24,5.24,0,0,0-1.52-3.8,5,5,0,0,0-7.25,0,5.51,5.51,0,0,0,0,7.6,5,5,0,0,0,7.25,0A5.24,5.24,0,0,0,507.71,68.54Z" transform="translate(-10.13 -1.33)"/><path d="M524.46,74.61V72.88a7.69,7.69,0,0,1-5.24,2.19,3.47,3.47,0,0,1-2.63-.94,4.06,4.06,0,0,1-1.17-2.88V63.62h-1.59a.93.93,0,0,1-.61-.17A.57.57,0,0,1,513,63a.54.54,0,0,1,.18-.42.93.93,0,0,1,.61-.17h2.77v8.83a2.63,2.63,0,0,0,.73,1.9,2.49,2.49,0,0,0,1.83.74,7.1,7.1,0,0,0,5.3-2.64V63.62h-2.19a.88.88,0,0,1-.6-.17.57.57,0,0,1-.18-.44.54.54,0,0,1,.18-.42.88.88,0,0,1,.6-.17h3.37v11h1a.88.88,0,0,1,.6.16.55.55,0,0,1,.18.43.54.54,0,0,1-.18.42.88.88,0,0,1-.6.17Z" transform="translate(-10.13 -1.33)"/><path d="M537.45,71.22H538a1.89,1.89,0,0,1,1.91,1.9,1.8,1.8,0,0,1-.57,1.36A1.86,1.86,0,0,1,538,75h-.51a1.85,1.85,0,0,1-1.35-.55,1.91,1.91,0,0,1,0-2.71A1.84,1.84,0,0,1,537.45,71.22Z" transform="translate(-10.13 -1.33)"/><path d="M559.94,63.62v-.4a.89.89,0,0,1,.17-.61.52.52,0,0,1,.42-.19.56.56,0,0,1,.44.19.89.89,0,0,1,.17.61V65.9a1,1,0,0,1-.18.62.55.55,0,0,1-.43.18.54.54,0,0,1-.4-.16.84.84,0,0,1-.19-.54,2.77,2.77,0,0,0-1.32-1.9,5.48,5.48,0,0,0-3.31-.9,4.91,4.91,0,0,0-4,1.64A5.75,5.75,0,0,0,550,68.61a5.12,5.12,0,0,0,1.5,3.79,5.3,5.3,0,0,0,3.9,1.49,8.55,8.55,0,0,0,2.81-.5,7.12,7.12,0,0,0,2.58-1.64.87.87,0,0,1,.52-.28.56.56,0,0,1,.57.56c0,.41-.48.92-1.43,1.54a9.11,9.11,0,0,1-5.11,1.5,6.37,6.37,0,0,1-4.69-1.82,6.24,6.24,0,0,1-1.84-4.62A6.44,6.44,0,0,1,555.38,62,6.66,6.66,0,0,1,559.94,63.62Z" transform="translate(-10.13 -1.33)"/><path d="M568.48,62.42v1.79a8.67,8.67,0,0,1,2.24-1.73A5.15,5.15,0,0,1,573,62a5.26,5.26,0,0,1,2.47.58,4,4,0,0,1,1.42,1.4,3.58,3.58,0,0,1,.64,2v7.45h1a.89.89,0,0,1,.61.16.55.55,0,0,1,.18.43.54.54,0,0,1-.18.42.89.89,0,0,1-.61.17h-3.16a.92.92,0,0,1-.62-.17.55.55,0,0,1-.19-.42.56.56,0,0,1,.19-.43.92.92,0,0,1,.62-.16h1V66.18a2.82,2.82,0,0,0-.91-2.12A3.41,3.41,0,0,0,573,63.2a4.09,4.09,0,0,0-2,.47A10.73,10.73,0,0,0,568.48,66v7.42h1.34a.88.88,0,0,1,.6.16.53.53,0,0,1,.19.43.52.52,0,0,1-.19.42.88.88,0,0,1-.6.17H566a.88.88,0,0,1-.6-.17.55.55,0,0,1-.19-.42.56.56,0,0,1,.19-.43.88.88,0,0,1,.6-.16h1.34V63.62h-1a.88.88,0,0,1-.6-.17.55.55,0,0,1-.19-.44.52.52,0,0,1,.19-.42.88.88,0,0,1,.6-.17Z" transform="translate(-10.13 -1.33)"/><path d="M584.7,57.24h3.74l-1,6.84a1.31,1.31,0,0,1-.31.76.89.89,0,0,1-1.15,0,1.38,1.38,0,0,1-.31-.76Zm6,0h3.75l-1,6.84a1.31,1.31,0,0,1-.31.76.79.79,0,0,1-.56.21.84.84,0,0,1-.59-.21,1.31,1.31,0,0,1-.3-.76Z" transform="translate(-10.13 -1.33)"/><path d="M614.17,66.41l-12.78,7.12a1.17,1.17,0,0,1-.47.17.55.55,0,0,1-.41-.18.58.58,0,0,1-.18-.42c0-.23.16-.44.48-.61l11-6.08-10.94-6.08c-.31-.18-.47-.39-.47-.62a.57.57,0,0,1,.17-.42.58.58,0,0,1,.42-.18,1.14,1.14,0,0,1,.46.17Z" transform="translate(-10.13 -1.33)"/><path d="M629.47,68.36V64.81h.86v3.55h12.28v.86H630.33v7.41h-.86V69.22H617.16v-.86Zm-3.14-17.44a30.19,30.19,0,0,1-2.94,4v9.92h-.87v-9a32.7,32.7,0,0,1-4.44,3.86,4.44,4.44,0,0,0-.72-.58,27,27,0,0,0,8.16-8.5Zm5.59.08v5.88a33.5,33.5,0,0,0,8.56-3.74l.81.6a42.55,42.55,0,0,1-9.37,3.95V62c0,.81.26,1,1.82,1h6c1.24,0,1.44-.52,1.56-3.49a3,3,0,0,0,.83.41c-.14,3.11-.46,3.92-2.39,3.92h-6c-2.13,0-2.76-.29-2.76-1.9V58c-1.56.46-3.18.89-4.7,1.3a2.5,2.5,0,0,0-.35-.69c1.64-.41,3.37-.9,5-1.42V51Z" transform="translate(-10.13 -1.33)"/><path d="M659.19,50.51v3.55h12.19v.86H659.19v3.92h10.2V75.1c0,.89-.2,1.3-.92,1.44a29.82,29.82,0,0,1-4.7.17,4.48,4.48,0,0,0-.37-.95c2.22.09,4,.06,4.52,0s.63-.17.63-.66V59.68H649.1V76.63h-.87V58.84h10V54.92h-12v-.86h12V50.51Zm4.64,10.21a44,44,0,0,1-2.19,4.09h4.49v.84h-7V69.6h7.44v.86H659.1v5.91h-.86V70.46h-7.09V69.6h7.09V65.65h-6.49v-.84h9a37.51,37.51,0,0,0,2.25-4.41Zm-9.6-.18a13.24,13.24,0,0,1,2,3.69l-.75.32a13.56,13.56,0,0,0-2-3.72Z" transform="translate(-10.13 -1.33)"/><path d="M678.76,71V62.16H675.1v-.87h3.66V53.77h-4v-.86h8.42v.86h-3.58v7.52h3.23v.87h-3.23v8.59l3.52-1.21.14.86c-3,1-6.16,2.11-8.5,2.91l-.29-.89C675.67,72.07,677.14,71.58,678.76,71Zm12.88,3.77V69.62h-7.2v-.83h7.2v-4.3H685V52.13h14.38V64.49h-6.83v4.3h7.32v.83h-7.32v5.19h8.3v.84H682v-.84Zm-5.85-17h5.85V53h-5.85Zm0,5.8h5.85v-5h-5.85Zm6.72-5.8h6V53h-6Zm0,5.8h6v-5h-6Z" transform="translate(-10.13 -1.33)"/><path d="M715.94,73.37V55H705.1v-.87h22.77V55H716.8V73.37h12.34v.84H703.69v-.84Z" transform="translate(-10.13 -1.33)"/><path d="M732.19,66.41,745,59.28a1.17,1.17,0,0,1,.47-.17.62.62,0,0,1,.59.6c0,.23-.16.44-.48.62L734.6,66.41l10.93,6.08c.32.17.48.38.48.61a.61.61,0,0,1-.17.42.58.58,0,0,1-.42.18,1.14,1.14,0,0,1-.46-.17Z" transform="translate(-10.13 -1.33)"/><path d="M762.07,56.09l-9.51,20.38c-.16.34-.37.52-.62.52a.58.58,0,0,1-.42-.18.53.53,0,0,1-.17-.38,1.08,1.08,0,0,1,.14-.47L761,55.58a1.19,1.19,0,0,1,.29-.42.57.57,0,0,1,.34-.1.58.58,0,0,1,.42.18.53.53,0,0,1,.17.38A1.35,1.35,0,0,1,762.07,56.09Z" transform="translate(-10.13 -1.33)"/><path d="M777.45,74.61v-1.7a8.41,8.41,0,0,1-5.5,2.16A4.77,4.77,0,0,1,768.63,74a3.42,3.42,0,0,1-1.2-2.64,3.79,3.79,0,0,1,1.58-3,7.16,7.16,0,0,1,4.6-1.28,16.14,16.14,0,0,1,1.77.11q1,.11,2.07.33V65.6a2.13,2.13,0,0,0-.9-1.69,4.33,4.33,0,0,0-2.7-.71A13.47,13.47,0,0,0,770,64a2.86,2.86,0,0,1-.58.14A.5.5,0,0,1,769,64a.57.57,0,0,1-.17-.42.49.49,0,0,1,.15-.38,5,5,0,0,1,1.58-.58,14.37,14.37,0,0,1,3.33-.59,5.14,5.14,0,0,1,3.49,1.1,3.29,3.29,0,0,1,1.25,2.5v7.83h1.58a.94.94,0,0,1,.62.16A.55.55,0,0,1,781,74a.54.54,0,0,1-.18.42.94.94,0,0,1-.62.17Zm0-5.88a10.55,10.55,0,0,0-1.76-.35,15.13,15.13,0,0,0-2-.12,6.44,6.44,0,0,0-4,1.12,2.42,2.42,0,0,0-1.09,2,2.29,2.29,0,0,0,.83,1.8,3.59,3.59,0,0,0,2.44.73,6.6,6.6,0,0,0,2.85-.61,10.32,10.32,0,0,0,2.71-2Z" transform="translate(-10.13 -1.33)"/><path d="M798.62,66.41l-12.78,7.12a1.19,1.19,0,0,1-.46.17.58.58,0,0,1-.42-.18.57.57,0,0,1-.17-.42c0-.23.16-.44.47-.61l11-6.08-10.93-6.08c-.32-.18-.48-.39-.48-.62a.58.58,0,0,1,.18-.42.54.54,0,0,1,.41-.18,1.22,1.22,0,0,1,.47.17Z" transform="translate(-10.13 -1.33)"/><line class="cls-1" x1="47.67" y1="162.38" x2="95.34" y2="114.7"/><polygon class="cls-2" points="98.06 120.14 102.14 107.91 89.91 111.98 98.06 120.14 98.06 120.14"/><path class="cls-3" d="M139.42,93.79c0,3-.4,5.42-.9,5.42h-25.4c-.5,0-.91,2.43-.91,5.42,0-3-.4-5.42-.9-5.42H85.91c-.5,0-.91-2.42-.91-5.42" transform="translate(-10.13 -1.33)"/><path class="cls-3" d="M572.93,93.79c0,3-.41,5.42-.91,5.42H383.13c-.49,0-.9,2.43-.9,5.42,0-3-.4-5.42-.9-5.42H192.44c-.5,0-.9-2.42-.9-5.42" transform="translate(-10.13 -1.33)"/><path d="M40,175.54l-1.62,4.89H19.78l-1,2.94c-1.49,4.45-3.9,10.63-8.14,15a1.73,1.73,0,0,0-.53-.43c4.17-4.35,6.41-10.26,7.86-14.6l2.6-7.83ZM29.28,192.71a30.41,30.41,0,0,1,2.19,3.72l-.74.43c-.18-.43-.46-1-.78-1.56l-11.27.48.22-.84,5.92-.18.91-2.73H18.31l-2.2,6.61H15.3l2.46-7.39H26l.7-2.11H19.57L21,185h7.13l.66-2c-2.55.14-5.26.24-7.67.27a1.65,1.65,0,0,0,0-.7,130.72,130.72,0,0,0,14.88-1l.42.68c-1.85.27-4.25.51-6.82.7L28.86,185h7.28l-1.38,4.15H27.47l-.7,2.11h8.42l-2.06,6.18a1.3,1.3,0,0,1-1,1,22.44,22.44,0,0,1-3.61.13,4.88,4.88,0,0,0-.05-.73c1.63.06,2.84.06,3.25,0s.51-.14.61-.43l1.8-5.4H26.51l-.9,2.7,3.94-.16L28.61,193ZM20,179.65H37.82l1.1-3.32H21.14Zm.61,8.68H27l.86-2.56H21.5Zm7.09,0h6.51l.85-2.56H28.6Z" transform="translate(-10.13 -1.33)"/><path d="M45.48,179.48a36.33,36.33,0,0,1-3.77,6.94l-.7-.24a35,35,0,0,0,3.76-6.83Zm4.49-5.2-8.09,24.25h-.81l8.09-24.25Zm3.56,22.47,2.7-8.09H50l.26-.78h6.23l2.27-6.8H53.85a37.47,37.47,0,0,1-3.8,4.69,5.11,5.11,0,0,0-.62-.4,42.73,42.73,0,0,0,7-9.83l.75.17c-.87,1.56-1.84,3.1-2.81,4.56H59l2-5.94h.83l-2,5.94h6.77l-.27.81H59.6l-2.27,6.8h6.15l-.26.78H57.07l-2.7,8.09H61.6l-.26.79H45l.26-.79Zm-3.3-18.24a18.11,18.11,0,0,1,.54,4.67l-.84.43a21.09,21.09,0,0,0-.45-4.8Z" transform="translate(-10.13 -1.33)"/><path d="M77,181.24a25.49,25.49,0,0,1,3.8,3.88A36.86,36.86,0,0,0,91,177.84H79.56A43.12,43.12,0,0,1,71.05,183a1.76,1.76,0,0,0-.41-.53,38.19,38.19,0,0,0,11.86-8.15l.89.16a38.38,38.38,0,0,1-2.87,2.62H91.77L92,177l.35.32c-4.2,4.84-10.46,8.42-16.53,10.77H88.93l-3.49,10.47h-.78l.54-1.62H71.28l-.55,1.65H70L73.13,189a51.19,51.19,0,0,1-5.46,1.48,1.8,1.8,0,0,0-.19-.73,52.92,52.92,0,0,0,12.41-4.21,24.52,24.52,0,0,0-3.64-3.88Zm10.88,7.66H74l-2.41,7.23H85.47Z" transform="translate(-10.13 -1.33)"/><line class="cls-1" x1="424.96" y1="161.69" x2="377.28" y2="114.01"/><polygon class="cls-2" points="374.57 119.44 370.49 107.22 382.72 111.29 374.57 119.44 374.57 119.44"/><path d="M420.48,175.54l-1.63,4.89H400.29l-1,2.94c-1.49,4.45-3.9,10.63-8.14,15a1.73,1.73,0,0,0-.53-.43c4.17-4.35,6.41-10.26,7.86-14.6l2.61-7.83Zm-10.69,17.17a30.41,30.41,0,0,1,2.19,3.72l-.74.43c-.18-.43-.46-1-.77-1.56l-11.28.48.23-.84,5.91-.18.91-2.73h-7.42l-2.2,6.61h-.81l2.46-7.39h8.23l.7-2.11h-7.12l1.39-4.15h7.12l.66-2c-2.55.14-5.26.24-7.67.27a1.65,1.65,0,0,0,0-.7,130.72,130.72,0,0,0,14.88-1l.42.68c-1.84.27-4.24.51-6.82.7l-.68,2.05h7.28l-1.38,4.15H408l-.7,2.11h8.42l-2.06,6.18a1.3,1.3,0,0,1-1,1,22.36,22.36,0,0,1-3.61.13,4.88,4.88,0,0,0-.05-.73c1.63.06,2.84.06,3.26,0s.5-.14.6-.43l1.8-5.4H407l-.9,2.7,3.94-.16-.94-1.54Zm-9.24-13.06h17.78l1.1-3.32H401.66Zm.61,8.68h6.31l.86-2.56H402Zm7.09,0h6.51l.85-2.56h-6.5Z" transform="translate(-10.13 -1.33)"/><path d="M426,179.48a36.33,36.33,0,0,1-3.77,6.94l-.7-.24a34.49,34.49,0,0,0,3.76-6.83Zm4.49-5.2-8.09,24.25h-.81l8.09-24.25Zm3.57,22.47,2.69-8.09h-6.23l.26-.78H437l2.27-6.8h-4.91a36.6,36.6,0,0,1-3.8,4.69,5.11,5.11,0,0,0-.62-.4,42.73,42.73,0,0,0,7.05-9.83l.75.17c-.87,1.56-1.84,3.1-2.81,4.56h4.61l2-5.94h.84l-2,5.94h6.77l-.27.81h-6.77l-2.27,6.8H444l-.26.78h-6.15l-2.7,8.09h7.23l-.26.79H425.53l.26-.79Zm-3.31-18.24a18.61,18.61,0,0,1,.55,4.67l-.85.43a20.53,20.53,0,0,0-.45-4.8Z" transform="translate(-10.13 -1.33)"/><path d="M460,174.49a66.53,66.53,0,0,1-5.13,6.4l-5.91,17.72h-.78l5.48-16.43a50.76,50.76,0,0,1-4.48,4.13,3.42,3.42,0,0,0-.38-.65,53.46,53.46,0,0,0,10.49-11.38Zm8.79-.08-1.57,2.94h7.77l-.27.81h-8c-.64,1.19-1.28,2.3-1.84,3.19h7l-5.13,15.4h2.78l-.27.79h-18l.26-.79h2.83l5.14-15.4h4.61c.56-.87,1.18-2,1.82-3.19h-7.07l.27-.81h7.23c.59-1.1,1.14-2.21,1.58-3.1Zm-2.81,22.34,1-2.94h-10.8l-1,2.94ZM456.38,193h10.8l1-3.13H457.43Zm1.31-3.91h10.79l1-3.11H458.72Zm12.09-3.89,1-3.07H460l-1,3.07Z" transform="translate(-10.13 -1.33)"/><line class="cls-1" x1="213.34" y1="163.79" x2="153.98" y2="89.58"/><polygon class="cls-2" points="150.68 94.69 147.97 82.08 159.68 87.48 150.68 94.69 150.68 94.69"/><path d="M214.08,190.63l1.06-3.16H197.79l.27-.81h11.65l1.1-3.29h-9l.26-.78h9l.8-2.4h.81l-.8,2.4h9.23l-.26.78h-9.23l-1.1,3.29h11.85l-.27.81h-6.18l-1,3.16h5.55l-.27.81H214.6l-1.91,5.72a1.55,1.55,0,0,1-1.31,1.27,37.26,37.26,0,0,1-4.63.13,3.35,3.35,0,0,0-.09-.81c2.28.06,3.87.06,4.43,0s.67-.16.81-.57l1.91-5.74H197.19l.27-.81Zm-7.36-16.19c-.58.83-1.21,1.67-1.87,2.45h8.2l-.26.79H207a14.06,14.06,0,0,1,0,3.13l-.89.18a12.93,12.93,0,0,0,.05-3.31h-2a28.82,28.82,0,0,1-3.73,3.58,5.81,5.81,0,0,0-.55-.45,29.06,29.06,0,0,0,6.1-6.56Zm-5,17.75a11.64,11.64,0,0,1,3.68,4.18l-.81.57a12,12,0,0,0-3.65-4.26ZM217,174.41a24.34,24.34,0,0,1-1.94,2.48h10.15l-.26.79h-7.07a10.29,10.29,0,0,1,.9,3.21l-.85.35a9.77,9.77,0,0,0-1-3.56h-2.59a24.41,24.41,0,0,1-3.57,3.1,4.06,4.06,0,0,0-.49-.54,22.79,22.79,0,0,0,6-6Z" transform="translate(-10.13 -1.33)"/><path d="M249.07,185.12l-.26.79H232.76c-.84,1.32-1.88,2.8-2.76,4h14.11s-.14.35-.22.51c-2.42,4.89-3.78,6.88-5.06,7.72a3.36,3.36,0,0,1-1.88.46c-.78,0-2.58,0-4.42-.16a1.71,1.71,0,0,0,0-.81c1.92.21,3.86.24,4.53.24a2.31,2.31,0,0,0,1.35-.24c1.11-.68,2.35-2.54,4.52-6.94l-13.91,0h-.49c1-1.26,2.33-3.18,3.4-4.74h-6.07l.26-.79Zm-.1-9.55-2.13,6.37H230.55l2.12-6.37Zm-17.35,5.59H246.3l1.6-4.81H233.22Z" transform="translate(-10.13 -1.33)"/><line class="cls-1" x1="177.49" y1="49.36" x2="250.08" y2="25.17"/><polygon class="cls-2" points="250.08 31.25 259.19 22.13 246.43 20.31 250.08 31.25 250.08 31.25"/><line class="cls-1" x1="565.41" y1="49.36" x2="492.82" y2="25.17"/><polygon class="cls-2" points="492.82 31.25 483.71 22.13 496.47 20.31 492.82 31.25 492.82 31.25"/><path class="cls-4" d="M330.24,3.5l-.27.81h-8.85c-1,1.16-2.21,2.33-3.42,3.46l-6,18h-.81l5.67-17a58.82,58.82,0,0,1-14.05,9.12,6,6,0,0,0-.34-.59,56,56,0,0,0,18-13H307l.27-.81ZM319.13,9.71a35,35,0,0,1,7.26,7l-.75.62a35.51,35.51,0,0,0-7.18-7.09Z" transform="translate(-10.13 -1.33)"/><path class="cls-4" d="M337,17.16h-6.94l.26-.78h7.48c1.09-1.11,2.13-2.19,3-3.19l.69.22c-.8.94-1.76,2-2.77,3h15.21l-.26.78h-5.23a18.36,18.36,0,0,1-6.66,5.23,52.49,52.49,0,0,1,8.62,2.89l-1,.62A52.42,52.42,0,0,0,340.53,23a42.89,42.89,0,0,1-13,2.75,2.5,2.5,0,0,0-.15-.75,42.55,42.55,0,0,0,12-2.3c-2.2-.51-4.55-1-7-1.43C333.79,20.13,335.43,18.67,337,17.16Zm4.57-10.39,1-3.08H335l.26-.78h22.85l-.26.78h-8l-1,3.08h6.56l-2.12,6.37h-20l2.12-6.37Zm-3.68,10.39c-1.36,1.32-2.75,2.59-3.94,3.56,2.32.41,4.58.89,6.73,1.4a18.19,18.19,0,0,0,6.84-5Zm-3.58-4.81h5.39l1.61-4.8h-5.4Zm6.18,0h5.69l1.6-4.8h-5.69Zm1.86-5.58h5.69l1-3.08h-5.7ZM347,12.35h5.77l1.61-4.8h-5.78Z" transform="translate(-10.13 -1.33)"/><path class="cls-4" d="M360.81,21.37c.57.24.92,1,1.87,1.83,1.35,1.22,3.47,1.43,6.67,1.43,3.75,0,7.63-.21,10.3-.37a3.78,3.78,0,0,0-.58.94c-1.9.11-7.43.27-10,.27-3.48,0-5.66-.27-7.1-1.62-.74-.78-1.3-1.83-1.87-1.83-.94,0-2.83,1.53-5.19,3.67l-.46-.65c2.31-2,4.25-3.51,5.57-3.75l3.21-9.64h-4l.26-.78h4.83ZM363.89,2.1a23.41,23.41,0,0,1,3,4.43L366.1,7a23.56,23.56,0,0,0-2.91-4.53Zm10,12.06-.7,2.11c-.65,2-2.18,4.61-9.5,6.34a1.8,1.8,0,0,0-.29-.68c7.06-1.51,8.43-3.94,9-5.66l.7-2.11Zm6.77-2-2.23,6.69h-.81l2-5.91H368.45l-2,5.91h-.81l2.23-6.69Zm-4.05-8.75.63-1.88h.78l-.63,1.88H384l-1.27,3.84h-6.61l-.76,2.26h8.55l-.26.78H365.93l.26-.78h8.42l.75-2.26h-6.28l1.28-3.84Zm-6.52,3.05h5.5l.75-2.24h-5.5ZM373.18,19a30.35,30.35,0,0,1,5.94,3l-.68.76a27.86,27.86,0,0,0-5.92-3.13Zm3.23-12.52h5.8L383,4.23h-5.8Z" transform="translate(-10.13 -1.33)"/><path class="cls-4" d="M389.7,16.38l.46.45c-2,2.76-4.73,6.26-6.75,8.61l-.53-.51C384.72,22.88,387.6,19.26,389.7,16.38ZM412.77,2.51l-1.71,5.15H396.62l-.82,2.46h15.54l-.27.81h-7.31l-.9,2.69h6.67l-3.69,11.07c-.2.59-.46.89-1,1a15.7,15.7,0,0,1-3.32.16,3.32,3.32,0,0,0-.08-.73c1.44.05,2.63,0,3,0s.47-.11.58-.44l3.44-10.3H402.6l-3.72,11.17h-.81l3.72-11.17h-5.66l-3.81,11.41h-.78l4.07-12.2h6.44l.9-2.69h-7.42c-1.51,4.45-3.95,10.38-8.31,14.73a1.42,1.42,0,0,0-.47-.51c4.42-4.38,6.67-10.31,8.14-14.74l2.64-7.9ZM388.11,9.17a28.81,28.81,0,0,1,3.75,2.65l-.65.67a30.28,30.28,0,0,0-3.75-2.75Zm3.77-7.28a26.68,26.68,0,0,1,3.31,2.94l-.7.64A25.07,25.07,0,0,0,391.2,2.4Zm4,18.13a12.78,12.78,0,0,1,2,2.45l-.66.52a24.42,24.42,0,0,0-2-2.59Zm1.35-4a19.23,19.23,0,0,1,2.06,2.32l-.67.54a16.62,16.62,0,0,0-2-2.43Zm-.37-9.09h13.65l1.2-3.59H398.08Zm5.45,13a17.67,17.67,0,0,1,2.11,2.51l-.67.54a23.17,23.17,0,0,0-2.06-2.64Zm1.41-4a17.55,17.55,0,0,1,2.09,2.4l-.64.54a19,19,0,0,0-2.08-2.51Z" transform="translate(-10.13 -1.33)"/><path class="cls-4" d="M427.61,9.06l1.85-5.56H418.73l.26-.78h11.52l-2.38,7.13h-9.52c-.9,1.72-2,3.75-2.8,5.23h10.61s-.15.35-.23.51c-2.61,6.37-3.88,8.72-5,9.53a2.67,2.67,0,0,1-1.83.54,38.13,38.13,0,0,1-4.26-.16,1.63,1.63,0,0,0,0-.79c1.88.19,3.77.19,4.34.19a1.74,1.74,0,0,0,1.24-.27c1-.62,2.18-2.88,4.6-8.77H414.53c1.08-1.78,2.61-4.69,3.67-6.8Zm11.53-7.39-8.05,24.15h-.78l8.05-24.15Z" transform="translate(-10.13 -1.33)"/><path class="cls-4" d="M465.52,12.35l-.26.79H449.21c-.84,1.32-1.88,2.8-2.76,4h14.11s-.14.35-.22.51c-2.41,4.89-3.78,6.88-5.06,7.72a3.36,3.36,0,0,1-1.88.46c-.78,0-2.58,0-4.42-.16a1.71,1.71,0,0,0,0-.81c1.92.21,3.86.24,4.53.24a2.31,2.31,0,0,0,1.35-.24c1.11-.68,2.36-2.54,4.52-6.94l-13.91,0H445c1-1.27,2.33-3.19,3.39-4.75h-6.07l.26-.79Zm-.1-9.55-2.13,6.37H447l2.12-6.37ZM448.07,8.39h14.68l1.6-4.8H449.67Z" transform="translate(-10.13 -1.33)"/></svg>